<svg width="30" height="30" viewBox="0 0 30 30" fill="none" xmlns="http://www.w3.org/2000/svg">
<circle cx="15" cy="15" r="15" fill="white"/>
<path d="M15.2648 9.03163C15.0795 9.07226 14.8789 9.18397 14.724 9.33886C14.4041 9.65878 14.3203 10.1158 14.5057 10.5576C14.5564 10.6795 14.818 10.9512 16.9635 13.0992L19.3654 15.5062L16.9635 17.9133C14.818 20.0613 14.5564 20.333 14.5057 20.4549C14.3203 20.8967 14.4041 21.3537 14.724 21.6736C14.983 21.9301 15.3182 22.0418 15.6609 21.9859C16.0266 21.925 15.8514 22.085 18.9643 18.9746C21.5059 16.4355 21.8207 16.1131 21.8791 15.9836C22.0162 15.6814 22.0213 15.359 21.8893 15.0467C21.8385 14.9248 21.5389 14.615 19.0125 12.0836C17.4611 10.5297 16.1408 9.2246 16.0773 9.18397C16.0139 9.14335 15.9098 9.09257 15.8488 9.06972C15.7066 9.01894 15.4146 9.00116 15.2648 9.03163Z" fill="#EE0D09"/>
<path d="M9.88203 9.56482C9.69668 9.60544 9.49863 9.71716 9.34121 9.87205C8.99082 10.2224 8.89941 10.7658 9.11777 11.2279C9.20156 11.4107 9.11269 11.3117 11.1871 13.4953L12.835 15.232L12.6445 15.425C12.4465 15.6281 9.80839 18.4135 9.41738 18.8299C9.15839 19.1092 9.05683 19.292 9.01367 19.5738C8.90957 20.267 9.43007 20.9144 10.0978 20.9144C10.3365 20.9144 10.6057 20.8129 10.7885 20.6529C10.8824 20.5717 14.9805 16.2578 15.1861 16.0267C15.5035 15.6636 15.5771 15.1381 15.3664 14.7013C15.2775 14.516 15.3613 14.6049 12.8807 11.9922C11.5807 10.6236 10.7555 9.77302 10.6768 9.72224C10.6082 9.67908 10.5041 9.62576 10.4482 9.60544C10.3086 9.5572 10.0242 9.53689 9.88203 9.56482Z" fill="#EE0D09"/>
</svg>
