<svg width="18" height="13" viewBox="0 0 18 13" fill="none" xmlns="http://www.w3.org/2000/svg">
<path d="M1.2385 0.0575161C0.375566 0.267327 -0.165881 1.14718 0.0506978 1.98303C0.118379 2.23684 0.243588 2.46695 0.41279 2.64292C0.565072 2.79859 7.77308 7.62084 8.03703 7.73929C8.43973 7.92202 8.91688 7.91526 9.32973 7.72237C9.65122 7.57008 16.7137 2.84258 16.8931 2.65984C17.7357 1.8003 17.2755 0.338392 16.0707 0.0541325C15.7526 -0.0203166 1.54983 -0.0169325 1.2385 0.0575161Z" fill="#EE0D09"/>
<path d="M0 7.59717C0 10.3382 0.0101521 11.5937 0.0372244 11.7189C0.162434 12.3145 0.642968 12.8018 1.25548 12.9473C1.57358 13.0218 15.6952 13.0218 16.0505 12.9473C16.6664 12.8187 17.1638 12.3247 17.2891 11.7189C17.333 11.5125 17.3432 3.64461 17.2992 3.66492C17.2857 3.6683 15.6512 4.75796 13.6648 6.08451C11.6783 7.41105 9.94569 8.55147 9.81033 8.61577C9.43809 8.80527 9.11999 8.87634 8.66314 8.87634C8.2063 8.87634 7.8882 8.80527 7.51595 8.61577C7.38059 8.55147 5.64796 7.41105 3.66153 6.08451C1.6751 4.75796 0.0406085 3.6683 0.0270723 3.66492C0.0101521 3.65815 0 5.428 0 7.59717Z" fill="#EE0D09"/>
</svg>
