<svg width="10" height="18" viewBox="0 0 10 18" fill="none" xmlns="http://www.w3.org/2000/svg">
<path d="M6.15202 0.0501518C5.13958 0.208345 4.42946 0.55286 3.84589 1.16806C3.35373 1.68835 3.04789 2.29652 2.87563 3.09452C2.80884 3.39685 2.80181 3.57966 2.78775 4.99989L2.77368 6.57481H1.38508H0V8.17434V9.77386L1.38157 9.7809L2.75962 9.79144L2.77017 13.894L2.7772 18H4.42946H6.08172V13.8869V9.77386H7.45274C8.20856 9.77386 8.82376 9.77035 8.82376 9.76332C8.91868 9.12351 9.23155 6.62051 9.22101 6.59942C9.21397 6.58536 8.50386 6.57481 7.64257 6.57481H6.0782L6.08875 5.26355C6.09929 3.98393 6.10281 3.95229 6.18366 3.7484C6.34889 3.33709 6.6934 3.09101 7.21369 3.02422C7.35431 3.00664 7.89217 2.98906 8.41245 2.98906H9.35108L9.34405 1.55476L9.3335 0.123976L8.87649 0.0817909C8.1277 0.0149975 6.50357 -0.00609589 6.15202 0.0501518Z" fill="black"/>
</svg>
