<svg width="18" height="18" viewBox="0 0 18 18" fill="none" xmlns="http://www.w3.org/2000/svg">
<path d="M12.1785 0.066803C12.1187 0.105474 12.0519 0.186333 12.0273 0.249615C11.9992 0.330475 11.9886 1.94415 11.9886 6.17344V11.9883H6.17025C-0.203579 11.9883 0.169078 11.9742 0.0565777 12.1957C-0.0137348 12.3258 -0.0137348 12.4207 0.0495464 12.5438C0.133921 12.702 5.42142 17.9578 5.51986 17.9824C5.56908 17.993 8.34994 17.9965 11.6968 17.993L17.7894 17.9824L17.8843 17.884L17.9827 17.7891L17.9933 11.6965C17.9968 8.34962 17.9933 5.56876 17.9827 5.51954C17.9581 5.4211 12.7023 0.133598 12.5441 0.0492249C12.4175 -0.0175724 12.3085 -0.0140572 12.1785 0.066803ZM17.255 11.5137L17.2445 17.2441L11.514 17.2547L5.78353 17.2617L3.53353 15.0117L1.28353 12.7617H6.85228C11.848 12.7617 12.4281 12.7547 12.5335 12.7055C12.7796 12.5895 12.762 13.0219 12.762 6.85196V1.28321L15.012 3.53321L17.262 5.78321L17.255 11.5137Z" fill="#EE0D09"/>
</svg>
