<svg width="17" height="17" viewBox="0 0 17 17" fill="none" xmlns="http://www.w3.org/2000/svg">
<path d="M2.28785 0.0500927C1.46327 0.326542 0.75785 0.946167 0.381308 1.72785C0.0381308 2.43327 0 2.63822 0 3.70588C0.00476635 4.48757 0.0190654 4.71159 0.109626 5.13102C1.19635 10.1166 6.78252 15.6933 11.8301 16.8229C12.464 16.9659 13.9797 16.9802 14.4659 16.8467C15.5192 16.556 16.2914 15.9173 16.7442 14.964C16.911 14.6113 16.9206 14.5732 16.9206 14.0965C16.9206 13.6533 16.9063 13.5627 16.7966 13.3292C16.7251 13.1814 16.5869 12.9717 16.4868 12.8573C16.3867 12.7477 15.6622 12.2091 14.8806 11.6609C13.3506 10.5933 13.1218 10.4741 12.5832 10.4741C12.097 10.4741 11.4869 10.741 11.1866 11.0842C11.1247 11.1557 10.934 11.4131 10.7672 11.6514C10.5956 11.8945 10.4478 12.0947 10.4335 12.0947C10.4002 12.0947 9.74719 11.618 9.36588 11.313C8.0742 10.2787 6.50131 8.69626 5.50037 7.42364C5.28112 7.14243 4.83785 6.5228 4.83785 6.49897C4.83785 6.48944 5.07617 6.31308 5.36691 6.10813C5.97224 5.68392 6.21532 5.38841 6.36308 4.90701C6.48224 4.51617 6.48224 4.17775 6.36308 3.78691C6.28205 3.5343 6.08187 3.21018 5.27159 2.05196C4.72346 1.27028 4.18486 0.545794 4.07523 0.4457C3.74159 0.14542 3.40794 0.0167274 2.90748 0.00242996C2.64056 -0.00710297 2.40701 0.011961 2.28785 0.0500927Z" fill="#EE0D09"/>
</svg>
