<svg width="47" height="46" viewBox="0 0 47 46" fill="none" xmlns="http://www.w3.org/2000/svg">
<path d="M11.9837 0.136902C11.8742 0.209919 11.7647 0.383331 11.7373 0.529362C11.7099 0.666267 11.5365 2.51905 11.3631 4.65476C11.1805 6.79047 11.0163 8.625 10.9889 8.74365L10.9524 8.94444L8.65237 8.92619L6.3615 8.89881L6.24285 8.49722C6.09682 8.00436 5.74086 7.62103 5.24801 7.42936C4.92856 7.31071 4.5361 7.29246 2.99364 7.31984C1.14086 7.34722 1.12261 7.34722 0.75753 7.59365C0.529356 7.73968 0.310308 7.99524 0.191657 8.24166C-9.30019e-06 8.64325 -0.00913628 8.73452 0.0182447 11.5639L0.0456256 14.4845L0.310308 14.8222C0.821419 15.4976 0.894435 15.5159 3.1488 15.5159C5.06547 15.5159 5.17499 15.5067 5.52182 15.306C5.9234 15.0778 6.29761 14.5119 6.29761 14.1194V13.873H8.48809H10.6786V14.1651C10.6877 14.8952 9.93015 40.3321 9.89364 40.6698L9.84801 41.044L9.19086 41.0897C8.14126 41.1627 7.42936 41.6464 7.02777 42.5591C6.81785 43.0429 6.67182 44.6766 6.79047 45.3063C6.89999 45.9087 7.08253 46 8.10475 46C8.92618 46 9.01745 45.9817 9.19999 45.7901C9.64721 45.3155 9.27301 44.631 8.57936 44.631H8.21428V43.8643C8.21428 43.0246 8.34205 42.7417 8.82578 42.5409C9.01745 42.4679 10.3682 42.4405 13.7635 42.4587L18.4365 42.4861L18.7286 42.7873C19.0115 43.0702 19.0298 43.125 19.0663 43.8552L19.0936 44.631H15.169C10.8063 44.631 10.925 44.6127 10.8063 45.2425C10.7607 45.4798 10.7972 45.5802 10.9798 45.7627L11.2171 46H15.6436H20.0702L20.2619 45.7536C20.4444 45.5163 20.4627 45.4159 20.4262 44.1746C20.3988 43.0246 20.3714 42.7964 20.198 42.477C19.8877 41.902 19.5956 41.5917 19.1119 41.3452C18.7286 41.1536 18.5095 41.1171 17.6425 41.0897C16.6932 41.0623 16.6111 41.044 16.6111 40.8798C16.6111 40.3504 15.8809 16.1913 15.8353 15.1234L15.7805 13.873H17.6972H19.623V15.7623C19.623 17.8798 19.6869 18.1718 20.2528 18.6464C20.7548 19.0663 21.0012 19.0936 24.2413 19.0571L27.2623 19.0298L27.6274 18.7833C27.8282 18.6464 28.0928 18.3817 28.2115 18.1901C28.4214 17.8615 28.4305 17.7611 28.4579 15.8536L28.4853 13.873H32.0448H35.5952V17.6333V21.4028L32.7476 24.2504L29.8909 27.1071H29.0147C28.2571 27.1071 28.0928 27.1345 27.8282 27.3171C27.3444 27.6365 27.1984 28.0198 27.1984 28.9873V29.8179L26.6873 29.8817C26.0484 29.9548 25.6833 30.1373 25.4643 30.5115C25.1996 30.9405 25.1996 32.7659 25.4643 33.1948C25.7837 33.7151 26.0849 33.8155 27.454 33.8155H28.677L28.896 33.5599C29.1424 33.2679 29.1607 33.1492 29.0147 32.8206C28.8686 32.5012 28.4944 32.4008 27.5087 32.4008H26.6508V31.8532V31.3056H36.0059H45.3611V31.8532V32.4008H38.2968C33.3865 32.4008 31.1504 32.4282 30.9496 32.5012C30.2377 32.7476 30.3746 33.6786 31.1413 33.8155C31.3055 33.8429 34.6643 33.8611 38.6071 33.8429C45.4706 33.8155 45.7809 33.8063 46.0639 33.6421C46.575 33.3317 46.7301 32.9119 46.7301 31.8623C46.7301 30.8401 46.6389 30.5663 46.1917 30.1921C46.0456 30.0643 45.7536 29.9365 45.5528 29.9L45.1786 29.8452V28.9964C45.1786 28.0198 45.0325 27.6365 44.5488 27.3171C44.2841 27.1345 44.1198 27.1071 43.4079 27.1071H42.5774L39.7663 24.296L36.9643 21.494V17.679V13.873H39.0544C41.1262 13.873 41.1536 13.873 41.4 13.6631C41.8746 13.2524 41.7924 13.079 40.2409 11.0802C39.4651 10.0853 38.7623 9.19087 38.6801 9.10873C38.5432 8.97182 38.3607 8.94444 37.6762 8.94444C36.9186 8.94444 36.7544 8.90794 35.9238 8.58849C35.4127 8.3877 30.3472 6.37063 24.652 4.11627L14.2928 -3.8147e-06H13.2341C12.4401 -3.8147e-06 12.1298 0.0365067 11.9837 0.136902ZM13.5079 1.55159C13.5079 1.77063 14.0282 7.75793 14.1012 8.46071L14.1559 8.94444H13.2889H12.4127V8.68889C12.4127 8.36032 12.9512 2.04444 13.0151 1.66111C13.0516 1.42381 13.1063 1.36905 13.2798 1.36905C13.444 1.36905 13.5079 1.41468 13.5079 1.55159ZM24.004 5.33928L32.9758 8.89881L27.8373 8.94444L22.7079 8.99008L22.5345 9.20913C22.2972 9.50119 22.3155 9.82063 22.5893 10.0853L22.8083 10.3135H30.3655L37.9226 10.3226L38.7258 11.354C39.1639 11.929 39.5198 12.4218 39.5198 12.4492C39.5198 12.4766 32.054 12.4948 22.9361 12.4857L6.34324 12.4583L6.31586 11.3813L6.28848 10.3135H13.4167H20.5448L20.7639 10.0853C21.0559 9.80238 21.0559 9.45555 20.7639 9.17262L20.5448 8.94444H18.0258C16.6476 8.94444 15.5159 8.90794 15.5159 8.87143C15.5159 8.73452 14.9682 2.50079 14.9226 2.11746C14.8952 1.89841 14.9135 1.73412 14.9591 1.75238C15.0048 1.77063 19.0754 3.37698 24.004 5.33928ZM4.81904 8.74365C4.90118 8.80754 4.92856 9.40992 4.91031 11.4635L4.88293 14.1012H3.1488H1.41467L1.38729 11.5091C1.36904 9.6746 1.39642 8.88055 1.46944 8.79841C1.55158 8.69801 1.92578 8.67064 3.13967 8.67064C3.99761 8.67064 4.75515 8.70714 4.81904 8.74365ZM13.7817 13.9186C13.7817 13.946 13.3893 14.4845 12.9147 15.1234L12.0476 16.2734V15.0778V13.873H12.9147C13.3893 13.873 13.7817 13.8913 13.7817 13.9186ZM27.1071 15.6437C27.1071 17.1405 27.0798 17.4417 26.9611 17.5603C26.8424 17.6881 26.45 17.7063 24.0496 17.7063C21.6492 17.7063 21.2567 17.6881 21.1381 17.5603C21.0194 17.4417 20.9921 17.1405 20.9921 15.6437V13.873H24.0496H27.1071V15.6437ZM14.5667 19.5044C14.5301 19.5409 12.504 18.0714 12.504 18.0075C12.504 17.9436 12.9694 17.3139 13.8639 16.1548L14.4663 15.379L14.5301 17.4325C14.5667 18.5552 14.5849 19.4861 14.5667 19.5044ZM13.0151 20.1341C13.5353 20.5083 13.9643 20.8369 13.9643 20.8552C13.9643 20.9099 11.8559 23.8214 11.8194 23.8214C11.7738 23.8214 11.8651 20.3075 11.9198 19.8238C11.9472 19.6139 11.9928 19.4405 12.0202 19.4405C12.0476 19.4405 12.4948 19.7508 13.0151 20.1341ZM14.7766 26.0302C14.7766 26.7786 14.7675 27.381 14.7401 27.381C14.6579 27.381 12.3762 25.6833 12.3488 25.6012C12.3397 25.5464 12.8508 24.7889 13.4897 23.9127L14.6488 22.3155L14.7036 23.502C14.7401 24.15 14.7675 25.2909 14.7766 26.0302ZM35.5952 25.2361V27.1071H33.7059H31.8075L33.6786 25.2361C34.7099 24.2048 35.5587 23.3651 35.5678 23.3651C35.5861 23.3651 35.5952 24.2048 35.5952 25.2361ZM38.8353 25.2817L40.6607 27.1071H38.8079H36.9643V25.2817C36.9643 24.2778 36.9734 23.4563 36.9917 23.4563C37.0008 23.4563 37.8313 24.2778 38.8353 25.2817ZM12.5496 27.5179C12.9055 27.7734 13.4258 28.1567 13.7087 28.3667L14.2381 28.7591L12.9329 30.3929C12.221 31.2873 11.6186 32.0266 11.5913 32.0266C11.5639 32.0357 11.573 31.2052 11.6004 30.1921C11.6369 29.1698 11.6643 28.0198 11.6734 27.6274C11.6825 27.0798 11.7099 26.9337 11.8012 26.9794C11.8559 27.025 12.2028 27.2623 12.5496 27.5179ZM43.8095 29.1607V29.8452H36.1885H28.5674V29.1607V28.4762H36.1885H43.8095V29.1607ZM15.0139 33.204L15.0778 35.8782L13.5809 34.8103C12.7686 34.2171 12.0841 33.7242 12.0659 33.7151C12.0476 33.706 12.6591 32.9119 13.4258 31.9536C14.5119 30.6028 14.8405 30.2377 14.8861 30.3655C14.9135 30.4567 14.9774 31.7345 15.0139 33.204ZM12.9694 36.0607L14.2472 36.9825L13.9369 37.3659C13.7726 37.5667 13.1063 38.3972 12.4583 39.2004L11.2901 40.6607L11.354 38.6528C11.3813 37.5484 11.4087 36.2798 11.4087 35.8325C11.4087 35.148 11.427 35.0385 11.5456 35.0841C11.6278 35.1115 12.2667 35.5496 12.9694 36.0607ZM15.2238 41.0349C15.1964 41.0532 14.6305 41.0623 13.9643 41.0532L12.7595 41.0258L13.9369 39.5563L15.1051 38.0869L15.1873 39.5381C15.2238 40.3413 15.2421 41.0075 15.2238 41.0349Z" fill="#EE0D09"/>
</svg>
