<svg width="66" height="66" viewBox="0 0 66 66" fill="none" xmlns="http://www.w3.org/2000/svg">
<path d="M11.2793 0.0902023C9.33282 0.257782 8.04376 0.734734 7.60548 1.4566C7.27032 1.99801 7.28322 2.78434 7.61837 3.35153C7.77306 3.59645 9.21681 5.10465 10.841 6.70309C12.4524 8.30153 13.8703 9.79684 13.9863 10.0418C14.2828 10.6347 14.3731 11.8336 14.1797 12.4523C13.793 13.6769 12.8906 14.2957 11.5371 14.3086C10.1965 14.3086 9.82267 14.0379 6.57423 10.7636C4.97579 9.1652 3.4547 7.73434 3.19689 7.59254C1.85626 6.89645 0.683215 7.74723 0.244934 9.7195C-0.03866 10.9699 0.0129026 13.6383 0.348059 14.8886C1.23751 18.1886 3.33868 20.8054 6.31642 22.3008C7.61837 22.9582 8.72696 23.2804 10.2996 23.4738C11.8207 23.6543 13.4449 23.5125 14.8887 23.0613L15.7652 22.7906L17.4024 24.4277L19.0266 26.0519L18.8074 26.9156C18.6656 27.4441 18.5754 28.282 18.5625 29.0683C18.5367 32.4715 17.557 34.2246 13.1356 38.7234L10.493 41.4175L9.80978 41.25C9.01056 41.0566 8.18556 41.1468 7.50236 41.4949C6.80626 41.8558 1.35353 47.3859 1.10861 47.9789C0.825012 48.6492 0.850793 49.8222 1.16017 50.5312C1.52111 51.3433 15.5074 65.2394 16.3711 65.639C17.0285 65.9484 17.9953 65.9871 18.7688 65.7422C19.1555 65.6133 19.9418 64.9172 22.2106 62.6613C23.8348 61.05 25.2785 59.516 25.4332 59.2324C25.7426 58.6265 25.807 57.2343 25.5363 56.7316C25.3688 56.4222 25.4719 56.3062 28.8879 52.916C32.3942 49.4226 33.1031 48.8554 33.8637 48.8554C34.057 48.8554 34.8563 48.9457 35.6168 49.0746C37.3055 49.3453 38.2594 49.2164 39.9481 48.5332L41.0567 48.082L42.1266 49.1519L43.2094 50.2347L42.9387 51.0855C42.6035 52.1683 42.3586 53.9988 42.4488 54.7722C42.6164 56.3062 44.3438 56.1386 44.3438 54.5789C44.3567 53.509 44.5887 52.207 45.0012 51.0211C45.3234 50.08 45.3621 49.8351 45.2332 49.6031C45.1559 49.4355 41.611 45.8648 37.357 41.6496C32.0203 36.3515 29.6484 33.9281 29.7 33.7863C29.7258 33.6703 29.9063 33.1547 30.0996 32.6261C30.293 32.0976 30.4734 31.3629 30.5121 30.9761C30.5508 30.6023 30.6024 30.2929 30.6281 30.2929C30.6539 30.2929 31.1051 30.5765 31.6465 30.9246C33.3867 32.059 35.6942 32.7422 37.1766 32.5617L37.8598 32.4715L37.9371 33.1031C38.1563 34.9207 39.6774 36.5191 41.5078 36.8414C41.9203 36.9187 42.075 37.009 42.0363 37.1379C42.0106 37.241 41.9977 37.705 41.9977 38.182C41.9977 40.2574 43.5445 41.8945 45.6715 42.1008L46.4707 42.191L48.0305 43.7121C49.2164 44.8851 49.6676 45.2461 49.9254 45.2461C50.1059 45.2461 50.802 45.0656 51.4594 44.8336C52.568 44.4468 52.7871 44.4211 54.3984 44.4082C56.4094 44.4082 57.3246 44.6273 59.1035 45.5425C60.5344 46.2773 62.1328 47.8758 62.8676 49.3066C63.757 51.034 64.002 52.0136 63.9891 53.8828C63.9891 55.2234 63.8086 56.5898 63.6281 56.5898C63.6024 56.5898 62.2231 55.2363 60.5731 53.5863C57.2859 50.3121 56.8863 50.0156 55.2879 49.7707C53.8828 49.5386 52.5422 49.8867 51.3434 50.7633C50.9567 51.0468 50.6731 51.4336 50.3121 52.1554C49.8481 53.1222 49.8223 53.2125 49.8223 54.4629C49.8223 55.6617 49.8481 55.8164 50.2606 56.6543C50.6344 57.4664 51.0082 57.8789 53.7152 60.5343L56.7445 63.525L56.2547 63.6925C55.9195 63.8215 55.1461 63.873 53.8828 63.873C52.1813 63.8601 51.9235 63.8343 50.9824 63.5121C48.9199 62.7902 47.2055 61.5011 46.0711 59.7738C45.1817 58.459 45.0012 58.2656 44.5758 58.2656C44.1375 58.2656 43.5703 58.7683 43.5703 59.1679C43.5703 59.7609 44.8723 61.6172 46.0969 62.7902C47.3731 63.989 48.7395 64.8011 50.4024 65.3297C53.5477 66.348 57.7113 65.884 58.459 64.4531C58.7168 63.9633 58.7039 63.2543 58.4461 62.7386C58.3301 62.5066 56.8348 60.9082 55.1203 59.1679C52.5422 56.564 51.975 55.9195 51.8461 55.4812C51.2531 53.4058 52.3875 51.6914 54.3727 51.6527C55.752 51.6269 55.8551 51.7043 59.3613 55.1718C62.7387 58.5105 63.0996 58.7812 63.9633 58.6008C64.9301 58.4074 65.5102 57.5437 65.8066 55.855C66.2965 53.1609 65.768 50.3765 64.3113 47.9144C63.6024 46.6898 61.7203 44.8078 60.4957 44.0988C58.0078 42.6293 55.2363 42.1136 52.452 42.6035C51.8461 42.7066 51.0984 42.8742 50.7891 42.9902L50.2219 43.1965L49.3195 42.2812L48.4043 41.3789L51.2016 38.5816C54.3984 35.359 54.5789 35.114 54.5789 33.5156C54.5918 32.2394 54.2309 31.4144 53.2899 30.5636C52.5551 29.8933 51.7043 29.5195 50.918 29.5195H50.441L50.3766 28.5656C50.2477 26.5547 48.8684 24.9433 46.9219 24.5437C46.2645 24.4148 46.2129 24.3761 46.2774 24.0925C46.316 23.925 46.3418 23.3449 46.3289 22.8164C46.316 21.5918 45.9035 20.6508 44.9883 19.8C44.1633 19.0265 43.3512 18.6656 42.2426 18.5883C41.5336 18.5367 41.3789 18.4851 41.4434 18.3304C41.482 18.2273 41.4434 17.789 41.366 17.3507C40.9793 15.1593 39.2004 13.664 36.9961 13.664C35.3977 13.664 34.882 13.9476 32.7938 16.0101C31.8012 16.9898 30.9375 17.789 30.8859 17.789C30.8344 17.789 30.5766 17.6215 30.3188 17.4023C30.0609 17.1961 29.5711 16.964 29.2359 16.8996C28.1531 16.6547 27.3797 16.9383 26.3227 17.9566L25.6524 18.6269L24.2215 17.1961L22.7906 15.7652L23.0613 14.9015C24.8274 9.1652 21.682 2.84879 16.0359 0.786293C14.5793 0.257782 12.6457 -0.0258179 11.2793 0.0902023ZM14.2828 2.26871C14.8113 2.38473 15.7395 2.73278 16.4098 3.06794C17.3895 3.54489 17.802 3.85426 18.7559 4.82106C20.4317 6.50973 21.2438 8.14684 21.5402 10.4672C21.7207 11.8593 21.5531 13.316 21.0633 14.734C20.4961 16.3324 20.3801 16.0359 22.4426 18.1242L24.2988 19.9804L22.1332 22.1461L19.9805 24.2988L18.1887 22.507C16.152 20.4703 16.2422 20.509 14.734 21.0504C9.9129 22.7906 4.5504 20.3801 2.61681 15.5976C2.23009 14.6179 1.93361 13.1097 1.93361 12.0785C1.93361 11.2148 2.15275 9.82262 2.32032 9.52614C2.41056 9.38434 3.13243 10.0418 5.50431 12.4007C9.21681 16.0875 9.34571 16.1777 11.4727 16.1777C12.7231 16.1777 12.8906 16.1519 13.6641 15.7781C14.7211 15.2754 15.2754 14.7211 15.7781 13.664C16.1391 12.9035 16.1777 12.7101 16.1777 11.5371C16.1777 10.3511 16.1391 10.1836 15.7524 9.34567C15.3785 8.55934 14.9918 8.10817 12.375 5.47848C10.7379 3.84137 9.41017 2.46207 9.41017 2.4234C9.41017 2.33317 10.5059 2.08825 11.2793 2.0238C12.0399 1.94645 13.2129 2.04958 14.2828 2.26871ZM38.4914 16.0617C39.4324 16.8093 39.7805 18.2015 39.2777 19.1425C39.1617 19.3617 38.3496 20.2511 37.4731 21.1277C36.0938 22.4941 35.8359 22.7004 35.6297 22.5843C35.4879 22.507 34.6758 21.7336 33.8121 20.857L32.2266 19.2715L33.8766 17.6343C34.7789 16.732 35.6942 15.907 35.9004 15.791C36.1711 15.6492 36.5449 15.5976 37.1508 15.6234C37.8856 15.6621 38.0789 15.7265 38.4914 16.0617ZM34.1344 23.8992C36.9059 26.6836 39.1875 29.0425 39.1875 29.1457C39.1875 29.2617 38.9684 29.584 38.7106 29.8675C37.718 30.9375 35.8746 30.9117 33.6445 29.816C32.5359 29.2746 32.2524 29.0425 30.6024 27.4312C29.0426 25.9101 28.7203 25.6523 28.3723 25.6523C27.934 25.6523 27.4699 26.0261 27.4442 26.3871C27.4184 26.8254 27.4828 27.0058 27.9082 27.5859C28.4625 28.3722 28.6172 28.875 28.6172 29.9707C28.6172 31.5691 27.9984 33.0902 26.7609 34.5211C26.0262 35.3718 25.9231 35.7457 26.2582 36.1968C26.4387 36.4418 26.6578 36.5578 26.993 36.5836C27.4184 36.6222 27.5344 36.5578 27.9856 36.0808L28.5012 35.5265L34.057 41.0824L39.6129 46.6383L38.4785 46.9992L37.357 47.3472L35.5652 47.1152C33.3996 46.8316 32.768 46.9218 31.6207 47.7082C31.2082 48.0047 29.3649 49.732 27.5215 51.5754L24.1699 54.914L21.5531 52.3746C19.2973 50.209 18.8719 49.848 18.5367 49.848C18.0469 49.848 17.6602 50.2734 17.6602 50.8277C17.6602 51.1758 18.0469 51.614 20.6766 54.2695C22.5457 56.1386 23.7317 57.4277 23.7832 57.634C23.8348 57.8402 23.7961 58.1238 23.6672 58.3429C23.3836 58.8843 18.4336 63.7699 18.0082 63.9246C17.7375 64.0277 17.5442 64.0148 17.2348 63.8859C17.0027 63.7828 13.8059 60.6761 9.83556 56.6929C2.95196 49.8093 2.83595 49.6804 2.83595 49.1777C2.83595 48.6879 2.93907 48.5718 5.64611 45.8648C8.34025 43.1578 8.46915 43.0547 8.959 43.0547C9.43595 43.0547 9.56486 43.1578 12.1688 45.7488C13.6641 47.2312 15.0176 48.4816 15.1723 48.5203C15.5332 48.6363 16.2035 48.3011 16.3067 47.9402C16.3582 47.7984 16.3582 47.5535 16.3195 47.3988C16.2809 47.2441 15.2625 46.1355 14.0637 44.9367L11.8723 42.7453L14.6051 39.9609C19.2586 35.23 20.277 33.4254 20.4961 29.455C20.5863 27.5601 20.7152 27.0058 21.2051 26.0261C21.4629 25.5234 27.8953 18.9879 28.2949 18.8203C28.4367 18.7558 28.6688 18.7429 28.8106 18.7816C28.9524 18.8074 31.35 21.1148 34.1344 23.8992ZM42.9 20.6894C44.2277 21.2566 44.8207 22.7519 44.2277 24.041C44.0859 24.3375 43.2867 25.2398 42.3328 26.1808L40.6699 27.805L38.9426 26.0133L37.2152 24.2086L38.8137 22.5972C39.6902 21.7207 40.6184 20.8828 40.8633 20.7539C41.4176 20.4574 42.2555 20.4316 42.9 20.6894ZM46.5996 26.4386C48.082 26.8511 48.8684 28.4496 48.2754 29.8675C48.0305 30.4605 44.3824 34.173 43.5961 34.6371C42.0363 35.5652 40.0383 34.5468 39.8578 32.7551C39.7547 31.6207 39.9481 31.3113 42.2039 29.0297C44.1891 27.0187 44.6402 26.6449 45.375 26.4129C45.8391 26.2711 46.0195 26.284 46.5996 26.4386ZM51.5496 31.6465C52.1168 31.93 52.568 32.5617 52.6582 33.1804C52.8129 34.173 52.4906 34.6113 49.6805 37.4086C46.9219 40.1285 46.5867 40.3476 45.5684 40.1672C44.8981 40.0383 44.1504 39.3164 43.9699 38.6332C43.6992 37.5504 43.8539 37.3183 46.6383 34.4953C48.0434 33.0902 49.3582 31.8269 49.5645 31.698C50.0285 31.4015 51.034 31.3758 51.5496 31.6465Z" fill="#EE0D09"/>
</svg>
