<svg width="8" height="14" viewBox="0 0 8 14" fill="none" xmlns="http://www.w3.org/2000/svg">
<path d="M0.717446 13.5679C0.828139 13.8236 1.11823 13.9687 1.41595 13.9114C1.54573 13.8885 1.91598 13.5297 4.75582 10.6937C7.59184 7.85384 7.95064 7.4836 7.97354 7.35382C8.04224 6.99502 8.22546 7.20496 4.75582 3.7315C1.28618 0.261858 1.49229 0.445073 1.1335 0.513779C0.946465 0.548132 0.717446 0.777151 0.683093 0.964184C0.614387 1.32298 0.45789 1.13977 3.61454 4.30405L6.52308 7.21259L3.63362 10.1059C2.01522 11.7243 0.72508 13.0411 0.702178 13.1022C0.64874 13.2472 0.656374 13.4266 0.717446 13.5679Z" fill="#EE0D09"/>
</svg>
