<svg width="13" height="21" viewBox="0 0 13 21" fill="none" xmlns="http://www.w3.org/2000/svg">
<path d="M6.06949 0.05653C5.99729 0.0926323 4.59838 1.45545 2.96931 3.09353L0 6.06285V13.0033V19.9482L0.130866 20.0791C0.234657 20.1784 0.306859 20.21 0.446751 20.21C0.613718 20.21 0.893502 20.034 3.43412 18.3417L6.24097 16.4735L9.02076 18.3282C10.9251 19.6008 11.8457 20.1874 11.9495 20.2009C12.148 20.228 12.333 20.1423 12.4233 19.9888C12.4955 19.867 12.5 19.3571 12.5 13.0123C12.5 7.15491 12.491 6.1531 12.4368 6.04931C12.333 5.85978 6.53881 0.0926323 6.3944 0.0384808C6.23646 -0.0156708 6.23646 -0.0156708 6.06949 0.05653ZM11.5523 12.6468C11.5523 17.8634 11.5433 18.8156 11.4892 18.7975C11.4576 18.784 10.2978 18.0168 8.91246 17.0962C6.49368 15.4852 6.38538 15.4175 6.20939 15.4356C6.05144 15.4491 5.62726 15.7154 3.51083 17.1323C2.12545 18.0529 0.983755 18.811 0.970217 18.811C0.956679 18.811 0.947653 16.0358 0.947653 12.6423V6.46899L3.59657 3.82007L6.25 1.16664L8.89892 3.81556L11.5523 6.46899V12.6468Z" fill="#EE0D09"/>
<path d="M5.71809 3.96449C4.95094 4.26232 4.59896 5.13777 4.93741 5.88687C5.09084 6.22983 5.31195 6.45095 5.66394 6.6134C6.59354 7.03759 7.67206 6.34716 7.67206 5.32279C7.67206 4.88506 7.55925 4.61431 7.24336 4.30293C7.04029 4.09535 6.91394 4.00961 6.72892 3.95095C6.41304 3.85167 5.99336 3.85618 5.71809 3.96449ZM6.57098 4.97532C6.89589 5.30023 6.67928 5.76954 6.20546 5.76954C5.9708 5.76954 5.77676 5.57098 5.77676 5.33181C5.78127 5.01593 5.96629 4.8264 6.26863 4.82189C6.38145 4.82189 6.45816 4.8625 6.57098 4.97532Z" fill="#EE0D09"/>
</svg>
