<svg width="8" height="14" viewBox="0 0 8 14" fill="none" xmlns="http://www.w3.org/2000/svg">
<path d="M7.28255 13.5679C7.17186 13.8236 6.88177 13.9687 6.58405 13.9114C6.45427 13.8885 6.08402 13.5297 3.24418 10.6937C0.40816 7.85384 0.0493633 7.4836 0.0264613 7.35382C-0.0422444 6.99502 -0.22546 7.20496 3.24418 3.7315C6.71382 0.261858 6.50771 0.445073 6.8665 0.513779C7.05354 0.548132 7.28255 0.777151 7.31691 0.964184C7.38561 1.32298 7.54211 1.13977 4.38546 4.30405L1.47692 7.21259L4.36638 10.1059C5.98478 11.7243 7.27492 13.0411 7.29782 13.1022C7.35126 13.2472 7.34363 13.4266 7.28255 13.5679Z" fill="#EE0D09"/>
</svg>
