<svg width="18" height="18" viewBox="0 0 18 18" fill="none" xmlns="http://www.w3.org/2000/svg">
<path d="M1.68105 0.0562501C1.09394 0.182813 0.492765 0.653906 0.225577 1.19531C-0.182235 2.02852 -0.0275477 3.00586 0.612296 3.67383C1.45605 4.55273 2.85878 4.55273 3.69901 3.67383C4.34237 3.00234 4.49355 2.03203 4.08222 1.19883C3.89589 0.819141 3.48456 0.407813 3.11542 0.232031C2.65136 0.0105472 2.1662 -0.0492187 1.68105 0.0562501Z" fill="white"/>
<path d="M12.7062 5.74805C11.6198 5.95547 10.6952 6.54609 10.1257 7.40039L9.96045 7.64649L9.9499 6.80977L9.94287 5.97656H8.1499H6.35693V11.9883V18H8.22021H10.0835V14.843C10.0835 12.8813 10.0976 11.5383 10.1222 11.2887C10.2417 10.0055 10.7198 9.2918 11.6198 9.05274C11.9397 8.96484 12.4812 8.94727 12.7835 9.01406C13.3636 9.13711 13.687 9.38672 13.9331 9.89297C14.2495 10.5539 14.2671 10.7859 14.2671 14.734V18H16.1304H17.9937V14.3859C17.9937 12.3188 17.9796 10.5645 17.9585 10.2832C17.839 8.62735 17.4769 7.57266 16.7667 6.81328C16.2886 6.30352 15.6522 5.97305 14.7979 5.79375C14.3374 5.69883 13.114 5.67422 12.7062 5.74805Z" fill="white"/>
<path d="M0.299512 6.00117C0.285449 6.01172 0.274902 8.71875 0.274902 12.0129V18H2.15576H4.03662L4.02959 11.9953L4.01904 5.99414L2.16982 5.98359C1.15381 5.98008 0.310059 5.98711 0.299512 6.00117Z" fill="white"/>
</svg>
