<svg width="45" height="45" viewBox="0 0 45 45" fill="none" xmlns="http://www.w3.org/2000/svg">
<path d="M8.61667 0.182251C8.44087 0.358051 8.44087 0.472321 8.44087 22.1133V43.8685H6.11152H3.78217V42.2863C3.78217 41.0909 3.80854 40.6866 3.89644 40.669C5.1622 40.2998 5.97088 39.5702 6.34006 38.4451C6.75319 37.1969 6.26974 35.6411 5.22373 34.8852L4.84576 34.6127L5.17099 34.3753C5.62807 34.0413 5.97088 33.6282 6.23458 33.0568C6.41917 32.6525 6.46312 32.4415 6.46312 31.7823C6.46312 31.0791 6.43675 30.9297 6.19063 30.4198C4.99519 27.9059 1.51435 27.8883 0.33649 30.3847C-0.31397 31.7735 0.09916 33.4524 1.32097 34.3578L1.67257 34.6127L1.46161 34.7533C0.70567 35.2543 0.09916 36.2916 0.0288401 37.2321C-0.0942199 38.6649 0.91663 40.168 2.27908 40.5635L2.68342 40.6778L2.70979 42.2776L2.72737 43.8685H1.54072C0.46834 43.8685 0.33649 43.8861 0.17827 44.0443C-0.0414799 44.2641 -0.0502699 44.5893 0.16069 44.7739C0.31012 44.9145 1.98901 44.9233 22.5224 44.9233C43.9085 44.9233 44.726 44.9145 44.8578 44.7651C45.06 44.5454 45.0424 44.2553 44.8315 44.0443C44.6732 43.8861 44.5414 43.8685 43.469 43.8685H42.2824L42.2999 42.2776L42.3263 40.6778L42.7306 40.5635C44.0931 40.168 45.1039 38.6649 44.9809 37.2321C44.9106 36.2916 44.3041 35.2543 43.5481 34.7621L43.3372 34.6215L43.7239 34.3226C44.9281 33.3997 45.3237 31.7735 44.6732 30.3847C43.9085 28.7497 41.9923 28.0641 40.3749 28.8376C38.1598 29.8924 37.861 32.9426 39.8387 34.3753L40.164 34.6127L39.786 34.8852C38.74 35.6411 38.2565 37.1969 38.6697 38.4451C39.0388 39.5702 39.8475 40.2998 41.1221 40.669C41.2012 40.6866 41.2276 41.0909 41.2276 42.2863V43.8685H38.8982H36.5689V22.1133C36.5689 0.472321 36.5689 0.358051 36.3931 0.182251C36.0766 -0.134186 35.8041 -0.0462875 35.3119 0.507481C33.9934 2.00178 32.2002 3.54003 30.328 4.797C28.5524 5.97486 26.8559 6.84507 24.887 7.58343C24.3771 7.76802 23.8937 7.98777 23.8058 8.06688C23.6564 8.19873 23.6476 8.95467 23.6476 26.0424V43.8685H22.5049H21.3622V26.0424C21.3622 8.95467 21.3534 8.19873 21.2039 8.06688C21.116 7.98777 20.6326 7.76802 20.1228 7.58343C18.1538 6.84507 16.4573 5.97486 14.6818 4.797C12.8095 3.54003 11.0163 2.00178 9.69784 0.507481C9.2056 -0.0462875 8.93311 -0.134186 8.61667 0.182251ZM11.4295 3.79494C13.5918 5.64084 16.4398 7.33731 19.1471 8.4009L20.2195 8.81403V26.3413V43.8685H19.1207H18.022V40.6778C18.022 37.9353 18.0044 37.4606 17.8813 37.2936C17.7495 37.1002 17.7407 37.1002 14.9015 37.1002C12.0623 37.1002 12.0536 37.1002 11.9217 37.2936C11.7986 37.4606 11.7811 37.9353 11.7811 40.6778V43.8685H10.6823H9.58357V22.9747V2.08968L10.2252 2.69619C10.568 3.03021 11.113 3.52245 11.4295 3.79494ZM35.4262 22.9923V43.8685H34.3274H33.2287V40.6778C33.2287 37.9353 33.2111 37.4606 33.088 37.2936C32.9562 37.1002 32.9474 37.1002 30.1082 37.1002C27.269 37.1002 27.2603 37.1002 27.1284 37.2936C27.0053 37.4606 26.9878 37.9353 26.9878 40.6778V43.8685H25.889H24.7903V26.3413V8.81403L25.8714 8.4009C27.9898 7.56585 30.5038 6.16824 32.2618 4.84974C33.1232 4.19928 34.5208 2.99505 35.0306 2.47644C35.2152 2.27427 35.3822 2.11605 35.3998 2.11605C35.4174 2.11605 35.4262 11.5126 35.4262 22.9923ZM3.97555 29.7694C5.72476 30.3583 5.83903 32.881 4.16014 33.6458C3.18445 34.0941 2.02417 33.76 1.4704 32.8635C0.4156 31.1582 2.06812 29.1189 3.97555 29.7694ZM42.6427 29.8397C43.0295 30.0243 43.469 30.4462 43.6712 30.8066C43.7679 30.9912 43.8206 31.2988 43.8206 31.7471C43.8206 32.3361 43.7942 32.4591 43.5569 32.8371C42.9856 33.76 41.8429 34.1029 40.8496 33.6458C40.0936 33.303 39.6454 32.5734 39.6454 31.7208C39.6541 30.8769 40.2255 30.0507 40.999 29.7694C41.4473 29.6024 42.2208 29.6287 42.6427 29.8397ZM4.14256 35.5532C5.21494 36.063 5.65444 37.3024 5.15341 38.3748C4.78423 39.1835 4.0195 39.6142 3.08776 39.5439C1.74289 39.4472 0.87268 38.1814 1.23307 36.8365C1.35613 36.3619 2.07691 35.6147 2.55157 35.4565C2.9647 35.3159 3.7558 35.3598 4.14256 35.5532ZM42.4054 35.4477C42.924 35.6059 43.6448 36.3267 43.7767 36.8365C44.137 38.1814 43.2668 39.4472 41.922 39.5439C40.6386 39.6406 39.6454 38.7264 39.6454 37.4518C39.6454 36.7399 39.9266 36.2125 40.5244 35.7642C41.0957 35.351 41.711 35.2456 42.4054 35.4477ZM16.8793 41.0118V43.8685H14.9015H12.9238V41.0118V38.155H14.9015H16.8793V41.0118ZM32.086 41.0118V43.8685H30.1082H28.1305V41.0118V38.155H30.1082H32.086V41.0118Z" fill="#EE0D09"/>
<path d="M11.8848 15.591C11.709 15.7756 11.6914 15.8898 11.6914 16.7249C11.6914 17.6303 11.7002 17.6654 11.9287 17.8412C12.1924 18.0522 12.4386 18.017 12.6847 17.7445C12.8077 17.6039 12.8341 17.4017 12.8341 16.6897C12.8341 15.8811 12.8165 15.8019 12.6144 15.6086C12.3507 15.3361 12.1309 15.3273 11.8848 15.591Z" fill="#EE0D09"/>
<path d="M14.4356 15.5292C14.2598 15.6523 14.2422 15.7314 14.2422 16.6192C14.2422 17.1378 14.2686 17.6388 14.2949 17.7179C14.4268 18.0432 15.0157 18.052 15.2267 17.7267C15.2618 17.674 15.297 17.1905 15.297 16.6456C15.297 15.7314 15.2882 15.6523 15.1036 15.5292C14.9981 15.4501 14.8487 15.3886 14.7696 15.3886C14.6905 15.3886 14.541 15.4501 14.4356 15.5292Z" fill="#EE0D09"/>
<path d="M17.0492 15.5561C16.8559 15.7055 16.8383 15.811 16.8119 16.5493C16.7768 17.4811 16.8647 17.8151 17.1899 17.9382C17.4272 18.0261 17.7349 17.9294 17.8667 17.7272C17.9019 17.6745 17.937 17.2086 17.937 16.6812C17.937 15.8549 17.9195 15.7231 17.7612 15.5649C17.5415 15.3451 17.3129 15.3451 17.0492 15.5561Z" fill="#EE0D09"/>
<path d="M11.8672 19.784C11.709 19.9422 11.6914 20.0741 11.6914 20.9091C11.6914 21.7529 11.709 21.8848 11.8672 22.0254C12.1045 22.2364 12.4825 22.2188 12.6759 21.9815C12.8077 21.8233 12.8341 21.6211 12.8341 20.9267C12.8341 20.1971 12.8077 20.0389 12.6495 19.8367C12.4298 19.5642 12.1133 19.5379 11.8672 19.784Z" fill="#EE0D09"/>
<path d="M14.3916 19.7663C14.2686 19.8982 14.2422 20.1179 14.2422 20.909C14.2422 21.9902 14.3125 22.1572 14.7696 22.1572C15.2267 22.1572 15.297 21.9902 15.297 20.8827C15.297 19.9509 15.2882 19.8718 15.1036 19.7488C14.8399 19.5642 14.5674 19.573 14.3916 19.7663Z" fill="#EE0D09"/>
<path d="M17.0021 19.793C16.8702 19.9424 16.8263 20.1358 16.8087 20.8302C16.7823 21.8498 16.879 22.096 17.3097 22.1399C17.8371 22.1927 17.9338 22.0081 17.9338 20.9093C17.9338 20.0743 17.9162 19.9424 17.758 19.7842C17.5295 19.5557 17.213 19.5644 17.0021 19.793Z" fill="#EE0D09"/>
<path d="M11.8672 24.0032C11.7178 24.1526 11.6914 24.2932 11.6914 25.0843C11.6914 26.1479 11.7881 26.3765 12.2628 26.3765C12.755 26.3765 12.8605 26.1303 12.8165 25.014C12.7902 24.2053 12.7638 24.0559 12.6231 23.9504C12.377 23.7746 12.0694 23.801 11.8672 24.0032Z" fill="#EE0D09"/>
<path d="M14.3892 23.9858C14.1783 24.2143 14.1695 26.0338 14.3805 26.236C14.565 26.4294 14.9694 26.4118 15.1452 26.2184C15.3737 25.9723 15.3649 24.1792 15.1364 23.977C14.9254 23.7836 14.565 23.7924 14.3892 23.9858Z" fill="#EE0D09"/>
<path d="M17.0039 24.0118C16.7051 24.3459 16.7138 25.9369 17.0215 26.2445C17.2061 26.4291 17.6104 26.4115 17.7862 26.2181C18.0148 25.972 18.006 24.1789 17.7774 23.9767C17.5577 23.7745 17.2061 23.7921 17.0039 24.0118Z" fill="#EE0D09"/>
<path d="M11.832 28.2398C11.7266 28.3892 11.6914 28.6617 11.6914 29.3385C11.6914 30.1296 11.7178 30.2703 11.8672 30.4197C12.0694 30.6219 12.377 30.6482 12.6231 30.4724C12.7638 30.367 12.7902 30.2175 12.8165 29.3825C12.8429 28.4947 12.8341 28.398 12.6671 28.231C12.421 27.9849 12.0078 27.9937 11.832 28.2398Z" fill="#EE0D09"/>
<path d="M14.3936 28.2047C14.1651 28.4509 14.1739 30.244 14.4024 30.4462C14.6134 30.6396 14.9738 30.6308 15.1496 30.4374C15.3781 30.1913 15.3693 28.3981 15.1408 28.196C14.9298 28.0026 14.5694 28.0114 14.3936 28.2047Z" fill="#EE0D09"/>
<path d="M17.0215 28.1784C16.7138 28.4861 16.7051 30.0771 17.0039 30.4111C17.2149 30.6396 17.5928 30.6484 17.7862 30.4375C18.0148 30.1913 18.006 28.3982 17.7774 28.196C17.5753 28.0114 17.1973 28.0026 17.0215 28.1784Z" fill="#EE0D09"/>
<path d="M11.832 32.4591C11.7266 32.6085 11.6914 32.881 11.6914 33.5578C11.6914 34.3489 11.7178 34.4895 11.8672 34.639C12.043 34.8148 12.3594 34.8675 12.5352 34.7445C12.755 34.6038 12.8341 34.261 12.8341 33.4787C12.8341 32.4942 12.7286 32.2657 12.2628 32.2657C12.0518 32.2657 11.9199 32.3272 11.832 32.4591Z" fill="#EE0D09"/>
<path d="M14.3828 32.4062C14.2686 32.5116 14.2422 32.749 14.2422 33.5313C14.2422 34.3839 14.2686 34.5421 14.4004 34.6652C14.6026 34.8498 14.8487 34.8586 15.1036 34.674C15.2882 34.5509 15.297 34.4718 15.297 33.5401C15.297 32.4325 15.2267 32.2655 14.7696 32.2655C14.6289 32.2655 14.4531 32.3271 14.3828 32.4062Z" fill="#EE0D09"/>
<path d="M17.0029 32.3888C16.8535 32.5031 16.8359 32.6262 16.8359 33.4788C16.8359 34.3051 16.8623 34.4721 17.0029 34.6303C17.2139 34.8588 17.5303 34.8676 17.7589 34.6391C17.9171 34.4809 17.9347 34.349 17.9347 33.514C17.9347 32.6965 17.9083 32.5383 17.7765 32.4152C17.5743 32.2306 17.2315 32.2218 17.0029 32.3888Z" fill="#EE0D09"/>
<path d="M27.25 15.5649C27.0918 15.7231 27.0742 15.8549 27.0742 16.6812C27.0742 17.2086 27.1094 17.6745 27.1445 17.7272C27.2764 17.9294 27.584 18.0261 27.8214 17.9382C28.1466 17.8151 28.2345 17.4811 28.1993 16.5493C28.173 15.811 28.1554 15.7055 27.962 15.5561C27.6983 15.3451 27.4698 15.3451 27.25 15.5649Z" fill="#EE0D09"/>
<path d="M29.9043 15.5292C29.7197 15.6523 29.7109 15.7314 29.7109 16.6456C29.7109 17.1905 29.7461 17.674 29.7813 17.7267C29.9922 18.052 30.5811 18.0432 30.713 17.7179C30.7394 17.6388 30.7657 17.1378 30.7657 16.6192C30.7657 15.7314 30.7482 15.6523 30.5724 15.5292C30.4669 15.4501 30.3174 15.3886 30.2383 15.3886C30.1592 15.3886 30.0098 15.4501 29.9043 15.5292Z" fill="#EE0D09"/>
<path d="M32.3916 15.6086C32.1895 15.8019 32.1719 15.8811 32.1719 16.6897C32.1719 17.4017 32.1982 17.6039 32.3301 17.7445C32.5674 18.017 32.8135 18.0522 33.0772 17.8412C33.3058 17.6654 33.3146 17.6391 33.3146 16.7161C33.3146 15.8459 33.297 15.758 33.1124 15.5822C32.8487 15.3361 32.6553 15.3361 32.3916 15.6086Z" fill="#EE0D09"/>
<path d="M27.25 19.7842C27.0918 19.9424 27.0742 20.0743 27.0742 20.9093C27.0742 22.0081 27.1709 22.1927 27.6983 22.1399C28.129 22.096 28.2257 21.8498 28.1993 20.8302C28.1818 20.1358 28.1378 19.9424 28.006 19.793C27.795 19.5644 27.4786 19.5557 27.25 19.7842Z" fill="#EE0D09"/>
<path d="M29.9043 19.7488C29.7197 19.8718 29.7109 19.9509 29.7109 20.8827C29.7109 21.9902 29.7813 22.1572 30.2383 22.1572C30.6954 22.1572 30.7657 21.9902 30.7657 20.8915C30.7657 20.0388 30.7394 19.8806 30.6075 19.7576C30.4053 19.573 30.1592 19.5642 29.9043 19.7488Z" fill="#EE0D09"/>
<path d="M32.3565 19.8367C32.1982 20.0389 32.1719 20.1971 32.1719 20.9267C32.1719 21.6211 32.1982 21.8233 32.3301 21.9815C32.5235 22.2188 32.9014 22.2364 33.1388 22.0254C33.297 21.8848 33.3146 21.7529 33.3146 20.9091C33.3146 20.0741 33.297 19.9422 33.1388 19.784C32.8927 19.5379 32.5762 19.5642 32.3565 19.8367Z" fill="#EE0D09"/>
<path d="M27.2257 23.9855C26.9971 24.2316 27.0059 26.0248 27.2345 26.227C27.4366 26.4116 27.8146 26.4204 27.9904 26.2446C28.298 25.9369 28.3068 24.3459 28.008 24.0119C27.797 23.7834 27.419 23.7746 27.2257 23.9855Z" fill="#EE0D09"/>
<path d="M29.8604 23.9856C29.7373 24.1174 29.7109 24.3372 29.7109 25.1195C29.7109 26.1831 29.7988 26.3765 30.2647 26.3765C30.6954 26.3765 30.7657 26.1919 30.7657 25.1107C30.7657 24.2581 30.7394 24.0999 30.6075 23.9768C30.3966 23.7834 30.0362 23.7922 29.8604 23.9856Z" fill="#EE0D09"/>
<path d="M32.386 23.9504C32.2454 24.0559 32.219 24.2053 32.1926 25.014C32.1487 26.1303 32.2542 26.3765 32.7464 26.3765C33.2211 26.3765 33.3178 26.1479 33.3178 25.0843C33.3178 24.2932 33.2914 24.1526 33.142 24.0032C32.9398 23.801 32.6321 23.7746 32.386 23.9504Z" fill="#EE0D09"/>
<path d="M27.2257 28.2047C26.9971 28.4508 27.0059 30.244 27.2345 30.4461C27.4542 30.6483 27.8058 30.6307 28.008 30.411C28.3068 30.077 28.298 28.486 27.9904 28.1783C27.8058 27.9937 27.4015 28.0113 27.2257 28.2047Z" fill="#EE0D09"/>
<path d="M29.8624 28.2047C29.6338 28.4509 29.6426 30.244 29.8712 30.4462C30.0821 30.6396 30.4425 30.6308 30.6183 30.4374C30.8469 30.1913 30.8381 28.3981 30.6095 28.196C30.3986 28.0026 30.0382 28.0114 29.8624 28.2047Z" fill="#EE0D09"/>
<path d="M32.3404 28.231C32.1734 28.398 32.1646 28.4947 32.191 29.3825C32.2173 30.2175 32.2437 30.367 32.3843 30.4724C32.6305 30.6482 32.9381 30.6219 33.1403 30.4197C33.2897 30.2703 33.3161 30.1296 33.3161 29.3385C33.3161 28.6617 33.2809 28.3892 33.1754 28.2398C32.9996 27.9937 32.5865 27.9849 32.3404 28.231Z" fill="#EE0D09"/>
<path d="M27.2236 32.424C27.1006 32.5558 27.0742 32.7756 27.0742 33.5227C27.0742 34.349 27.0918 34.4809 27.25 34.6391C27.4786 34.8676 27.795 34.8588 28.006 34.6303C28.1466 34.4721 28.173 34.3051 28.173 33.4788C28.173 32.6262 28.1554 32.5031 28.006 32.3888C27.7686 32.2218 27.3907 32.2306 27.2236 32.424Z" fill="#EE0D09"/>
<path d="M29.8516 32.4067C29.7373 32.5122 29.7109 32.7495 29.7109 33.5406C29.7109 34.4723 29.7197 34.5514 29.9043 34.6745C30.168 34.8591 30.4405 34.8503 30.6163 34.6569C30.7394 34.5251 30.7657 34.3053 30.7657 33.5142C30.7657 32.433 30.6954 32.266 30.2383 32.266C30.0977 32.266 29.9219 32.3276 29.8516 32.4067Z" fill="#EE0D09"/>
<path d="M32.314 32.4589C32.147 32.6962 32.1206 34.1905 32.27 34.4893C32.4722 34.8673 32.8502 34.9288 33.1402 34.6388C33.2897 34.4893 33.316 34.3487 33.316 33.5576C33.316 32.494 33.2193 32.2655 32.7447 32.2655C32.5337 32.2655 32.4019 32.327 32.314 32.4589Z" fill="#EE0D09"/>
</svg>
