<svg width="152" height="142" viewBox="0 0 152 142" fill="none" xmlns="http://www.w3.org/2000/svg">
<path d="M80.76 10.2906C74.8485 10.6605 69.0677 13.9634 65.6354 18.8928L64.0047 21.2695L61.2548 20.7647C56.2821 19.8929 51.5099 20.9264 47.4193 23.7366L45.2885 25.2296L33.6173 23.4543C20.5929 21.4731 20.6493 21.4817 19.0566 23.2296L18.2624 24.0895L12.1173 64.4877L5.97215 104.886L4.77525 104.79C2.92137 104.653 2.55187 105.375 2.32657 109.321C2.127 113.098 2.74245 115.499 4.58973 118.146C6.05885 120.244 7.40719 121.43 9.66377 122.523C11.2499 123.283 13.219 123.612 66.7825 131.759C120.346 139.907 122.324 140.179 124.064 139.925C126.544 139.552 128.184 138.821 130.21 137.254C132.566 135.42 133.998 133.215 134.857 130.029C136.057 125.741 135.804 124.375 133.746 124.062L132.872 123.929L139 83.644L145.123 43.3868L144.645 42.3621C144.355 41.7989 143.814 40.9955 143.439 40.6211C142.739 39.909 142.429 39.8618 129.305 37.7789L115.866 35.677L114.043 34.3901C110.974 32.1927 108.097 31.3802 103.017 31.2132C102.558 31.2009 102.464 30.8694 102.374 29.1828C101.993 21.8274 96.98 14.7769 90.0417 11.8467C87.6031 10.8123 83.5 10.1016 80.76 10.2906ZM89.049 14.58C92.0864 15.8497 94.0642 17.4485 96.1719 20.2785C98.8252 23.8837 100.062 28.4561 99.4771 32.4918C99.1769 34.4652 99.7193 34.6919 103.539 34.2345C110.442 33.4098 117.007 38.7927 117.77 45.9176C118.451 52.6265 113.956 58.6633 107.155 60.1382C105.458 60.4858 105.233 60.4515 79.9323 56.6895C61.8249 53.9928 53.9399 52.7357 52.762 52.3257C45.779 49.879 41.6321 42.4411 43.2024 35.1518C44.5533 28.9252 49.7831 24.125 56.0972 23.3837C58.2735 23.109 62.2374 23.5966 63.8603 24.305C65.3183 24.9594 65.914 24.6462 66.9079 22.663C71.046 14.6105 80.7613 11.0407 89.049 14.58ZM42.8698 28.2364C42.7141 28.5012 42.2625 29.3843 41.852 30.1872L41.1087 31.6605L33.4038 30.5462C25.9203 29.4944 25.6341 29.4797 25.0973 29.9749C24.5322 30.4658 24.1824 32.5759 19.1951 65.3624C14.4651 96.4574 13.9383 100.3 14.2472 100.924L14.5758 101.608L70.0845 110.052L125.593 118.496L126.11 117.94C126.591 117.436 127.23 113.611 131.956 82.5438C136.682 51.4769 137.209 47.6343 136.9 47.0104C136.571 46.3259 136.515 46.3173 128.452 45.0909L120.361 43.8601L119.954 42.5579C119.714 41.858 119.296 40.8137 119.063 40.2591L118.58 39.2627L130.11 41.0166C138.709 42.3245 141.712 42.8679 141.927 43.1602C142.143 43.4525 140.808 52.7967 136.133 83.5253L130.053 123.501L69.4413 114.281L8.82988 105.061L14.9107 65.0856C19.5849 34.3571 21.0889 25.0386 21.3812 24.8235C21.6736 24.6084 24.5337 24.9569 32.4555 26.1619C42.5198 27.6928 43.1357 27.8154 42.8698 28.2364ZM39.9905 37.1149C39.5153 43.2729 42.4806 49.3773 47.6466 52.9609C50.7569 55.0782 52.9804 55.8202 59.4362 56.8022L64.8207 57.6213L64.0843 61.8935L63.3436 66.1939L59.384 65.6781C56.077 65.2328 55.3594 65.2101 55.0174 65.5619C54.7122 65.8616 54.3508 67.4796 53.7761 71.2572L52.9742 76.529L52.1095 76.7147C51.6566 76.8477 50.8097 77.2958 50.2575 77.7021C46.018 80.9223 47.5573 87.3001 52.7445 88.0892C58.6083 88.9811 61.8002 81.6501 57.1717 77.9463L55.8344 76.8775L56.4623 72.56L57.1141 68.2749L61.0327 68.871C64.2466 69.3598 65.077 69.3996 65.471 69.0846C65.8932 68.7738 66.1193 67.8564 66.8012 63.374L67.6117 58.0458L71.9813 58.7105L76.351 59.3752L74.3612 72.456L72.3714 85.5367L71.6691 85.603C71.2616 85.6275 70.4925 85.9432 69.9532 86.2649C66.9277 88.1411 66.2569 92.7405 68.6741 95.2427C72.0621 98.7578 77.8412 96.9832 78.5702 92.1907C78.7289 91.1476 78.673 90.1873 78.4223 89.3704C78.0258 88.1851 76.2815 86.1892 75.5485 86.0777C75.2384 86.0305 75.5294 83.7385 77.1761 72.913L79.1701 59.804L83.5398 60.4687L87.9094 61.1334L87.0989 66.4615C86.4171 70.944 86.3602 71.8871 86.6709 72.3094C86.9534 72.7273 87.7581 72.9363 90.9719 73.4251L94.8905 74.0212L94.2344 78.3345L93.5783 82.6477L92.2478 83.0511C89.9142 83.7922 88.2161 86.0432 88.2027 88.4064C88.2019 94.2904 95.9564 96.5948 98.994 91.6055C100.611 88.9382 99.6463 85.0418 96.9901 83.5417C96.376 83.2175 96.3803 83.1893 97.1865 77.8894C97.7654 74.0835 97.9014 72.4313 97.7273 72.0587C97.4772 71.6168 96.7853 71.4251 93.4955 70.8669L89.5616 70.182L90.1288 65.8841L90.6918 61.6143L97.9866 62.5797C105.789 63.6223 106.248 63.6346 109.819 62.5337C110.935 62.2131 112.48 61.352 114.039 60.2046C117.96 57.3687 119.811 54.3044 120.548 49.4555L120.947 46.8337L127.431 47.82L133.915 48.8063L128.855 82.0721L123.795 115.338L70.5133 107.233L17.2317 99.1281L22.2919 65.8623L27.3521 32.5965L33.7711 33.6306L40.1577 34.6887L39.9905 37.1149ZM55.5411 80.323C55.8689 80.6325 56.2214 81.3495 56.3697 81.8912C56.5837 82.7602 56.5408 83.0421 56.0781 83.8082C55.1203 85.3643 53.4473 85.7444 51.9237 84.7627C51.1901 84.2761 50.5655 82.8832 50.6984 82.0092C51.0286 79.8385 53.9537 78.8124 55.5411 80.323ZM96.0434 86.5416C97.1577 87.7495 97.2294 89.1738 96.2385 90.3787C94.709 92.2805 91.8721 91.5893 91.2609 89.16C90.7742 87.24 92.5121 85.4853 94.5419 85.7941C95.0775 85.8755 95.7762 86.2126 96.0434 86.5416ZM75.2729 89.7855C76.1402 91.1 75.9343 92.4532 74.6505 93.4981C73.8581 94.1564 73.4941 94.2741 72.5074 94.124C70.1957 93.7723 69.2824 90.8644 70.9621 89.3028C72.4059 87.9648 74.1666 88.1461 75.2729 89.7855ZM46.3062 115.434C46.5098 116.561 46.997 117.53 47.9532 118.829C50.2086 121.825 49.4321 121.621 67.8975 124.43C86.3628 127.239 85.5606 127.203 88.6051 125.013C89.9043 124.056 90.6574 123.277 91.1869 122.261L91.9455 120.877L112.215 123.96L132.485 127.043L132.026 129.108C131.441 131.817 130.15 133.668 127.833 135.248C126.839 135.905 125.32 136.597 124.334 136.822L122.629 137.226L67.2328 128.799L11.8368 120.373L10.2482 119.439C6.88665 117.457 4.9486 113.701 5.27808 109.828L5.45446 107.72L25.724 110.804L45.9936 113.887L46.3062 115.434ZM88.964 120.567C88.9468 120.68 88.6851 121.073 88.4235 121.466C87.6274 122.527 85.7908 123.604 84.5271 123.758C82.9968 123.958 53.6215 119.489 52.1916 118.839C51.0591 118.321 49.1885 116.017 49.0849 114.992L49.0101 114.346L68.9977 117.386C79.9924 119.059 88.9768 120.483 88.964 120.567Z" fill="#F3F3F3"/>
</svg>
