<svg width="29" height="29" viewBox="0 0 29 29" fill="none" xmlns="http://www.w3.org/2000/svg">
<path d="M5.18946 0.0854328C4.73067 0.204378 4.26055 0.464925 3.7791 0.878402C3.24668 1.33719 1.33789 3.27996 1.02637 3.68211C-0.236715 5.29637 -0.259371 7.80555 0.964066 11.0454C2.45371 15.0046 5.2461 19.0147 8.78047 22.2716C13.6516 26.7632 20.1766 29.6688 23.5354 28.8532C24.0338 28.7343 24.8607 28.3491 25.2402 28.0602C25.6254 27.7714 28.1855 25.1432 28.4234 24.7977C28.8652 24.1577 29.0352 23.3024 28.8652 22.5774C28.6727 21.7675 28.6104 21.6938 26.1465 19.2243C23.66 16.7378 23.5807 16.6755 22.7594 16.5056C22.108 16.3696 21.4453 16.4886 20.8053 16.8567C20.658 16.9473 19.9557 17.5874 19.2477 18.2897L17.9619 19.5585L17.5484 19.3432C16.5346 18.8165 15.7869 18.3124 14.6711 17.3948C13.527 16.4546 11.9297 14.8063 11.0461 13.6509C10.4061 12.8126 9.46582 11.2663 9.46016 11.0567C9.46016 11.0171 9.90196 10.5526 10.44 10.0259C11.5729 8.92137 12.0203 8.40594 12.2752 7.91883C12.5924 7.30145 12.6547 6.51981 12.4338 5.8741C12.2129 5.21707 11.9977 4.96785 9.83399 2.79852C7.69297 0.657503 7.36446 0.3743 6.75274 0.16473C6.32793 0.0118 5.62559 -0.0221844 5.18946 0.0854328ZM6.50352 1.67703C6.66211 1.76766 7.56836 2.62293 8.78614 3.84637C10.9895 6.05535 11.0744 6.15731 11.0688 6.74071C11.0688 7.25614 10.9328 7.43739 9.4545 8.91571C8.70684 9.6577 8.05547 10.3431 8.01016 10.4393C7.94219 10.5583 7.9252 10.7225 7.94219 11.0001C7.95918 11.3399 8.0045 11.4702 8.35 12.1556C9.13164 13.7075 10.1625 15.0725 11.8674 16.8171C13.5609 18.5503 15.2488 19.8417 16.9877 20.7366C17.6051 21.0538 17.724 21.0991 18.0072 21.0934C18.1998 21.0934 18.4037 21.0538 18.5227 20.9915C18.6303 20.9348 19.3326 20.2778 20.0803 19.5358C21.0432 18.5786 21.5133 18.1538 21.6945 18.0745C22.0344 17.9216 22.4762 17.9216 22.7877 18.0745C23.1275 18.2444 27.132 22.2432 27.3076 22.5944C27.4039 22.7813 27.4436 22.9513 27.4436 23.1948C27.4436 23.7782 27.3246 23.9368 25.716 25.5511C24.1244 27.1483 23.9772 27.2559 23.1275 27.4485C22.3063 27.6298 20.9299 27.4825 19.5365 27.069C17.4125 26.4403 14.5578 24.9337 12.2072 23.2005C7.68164 19.87 3.7961 14.778 2.18184 10.0712C1.41153 7.83387 1.32657 6.23094 1.91563 5.04149C2.09688 4.662 2.2668 4.46942 3.44493 3.2743C4.16993 2.53797 4.8666 1.86961 4.98555 1.78465C5.49532 1.43348 6.01641 1.39383 6.50352 1.67703Z" fill="white"/>
</svg>
