<svg width="14" height="13" viewBox="0 0 14 13" fill="none" xmlns="http://www.w3.org/2000/svg">
<path d="M3.09321 0.0272951C2.66919 0.0780764 2.16899 0.243115 1.78813 0.458936C0.802979 1.02515 0.152979 2.0103 0.0285645 3.13003C-0.00952148 3.46772 -0.00952148 9.53101 0.0285645 9.8687C0.208838 11.5013 1.49868 12.7912 3.1313 12.9714C3.46899 13.0095 9.53228 13.0095 9.86997 12.9714C11.5026 12.7912 12.7924 11.5013 12.9727 9.8687C13.0108 9.53101 13.0108 3.46772 12.9727 3.13003C12.7924 1.49741 11.5026 0.207569 9.86997 0.0272951C9.57036 -0.00571251 3.38521 -0.00571251 3.09321 0.0272951ZM10.134 0.842335C10.6622 0.987061 11.0684 1.21812 11.4239 1.57612C11.7819 1.93159 12.0129 2.33784 12.1602 2.86597L12.2262 3.10972V6.49937V9.88901L12.1602 10.1328C12.0129 10.6609 11.7819 11.0671 11.4239 11.4226C11.0684 11.7806 10.6622 12.0117 10.134 12.1589L9.89028 12.225H6.50063H3.11099L2.86724 12.1589C2.33911 12.0117 1.93286 11.7806 1.57739 11.4226C1.21938 11.0671 0.98833 10.6609 0.841064 10.1328L0.775049 9.88901V6.49937V3.10972L0.841064 2.86597C0.98833 2.33784 1.21938 1.93159 1.57485 1.57612C1.99634 1.15464 2.55239 0.875342 3.13638 0.789014C3.22017 0.776319 4.77407 0.768702 6.5895 0.77124L9.89028 0.77378L10.134 0.842335Z" fill="white"/>
<path d="M10.0173 1.69295C9.39774 1.77928 8.97626 2.38104 9.12607 2.96502C9.23017 3.37889 9.49423 3.64041 9.90556 3.74705C10.6038 3.92479 11.2893 3.29256 11.1725 2.57908C11.1091 2.18045 10.8171 1.84529 10.4362 1.73104C10.3245 1.69803 10.1188 1.68025 10.0173 1.69295ZM10.3017 2.50291C10.4388 2.58924 10.4616 2.79998 10.3474 2.91932C10.2534 3.0158 10.1392 3.03865 10.0224 2.98279C9.84462 2.899 9.80653 2.66541 9.94872 2.53338C10.0528 2.43436 10.1747 2.4242 10.3017 2.50291Z" fill="white"/>
<path d="M6.01058 2.98281C4.60648 3.17578 3.42073 4.23203 3.06273 5.61582C2.74788 6.82695 3.10081 8.10664 3.9971 9.00293C5.39358 10.3994 7.60765 10.3994 9.00413 9.00293C10.4006 7.60645 10.4006 5.39238 9.00413 3.9959C8.20179 3.19609 7.12776 2.83047 6.01058 2.98281ZM6.90687 3.74453C7.51624 3.83594 8.03421 4.09746 8.46839 4.53164C9.56273 5.62344 9.56273 7.37539 8.46839 8.46719C7.37659 9.56152 5.62464 9.56152 4.53284 8.46719C3.43851 7.37539 3.43851 5.62344 4.53284 4.53164C5.16507 3.89941 6.03343 3.60996 6.90687 3.74453Z" fill="white"/>
</svg>
