<svg width="64" height="66" viewBox="0 0 64 66" fill="none" xmlns="http://www.w3.org/2000/svg">
<path d="M9.25997 0.332344C2.83675 1.99352 -1.13623 8.47211 0.289612 14.9507C1.13404 18.7714 3.87499 22.0799 7.46036 23.6027L8.37401 23.9903V34.7741V45.544H7.05891H5.74381V35.314C5.74381 29.6798 5.70228 24.9731 5.66075 24.8485C5.50848 24.4609 4.92706 24.3225 4.53946 24.5717L4.22106 24.7932L4.24875 39.0101L4.29028 53.227L4.59483 53.7807C4.94091 54.4313 5.61922 55.0958 6.29753 55.4557C6.75436 55.7049 7.52957 55.7187 23.1862 55.788L39.5764 55.8572L40.1025 57.726C40.3793 58.7504 40.6147 59.6779 40.6285 59.7609C40.6285 59.8994 39.1888 59.9409 33.8592 59.9409H27.0761L27.2837 59.2349C27.4775 58.5981 27.4775 58.5012 27.2699 58.1967C27.1315 57.9752 26.9238 57.8644 26.6608 57.8644C26.1763 57.8644 26.024 58.0305 25.8164 58.8334C25.7333 59.1795 25.6364 59.5671 25.5949 59.6917C25.5395 59.8855 25.3734 59.9409 24.792 59.9409C21.5388 59.9409 19.0055 62.0174 18.9778 64.7168C18.964 65.6027 18.9917 65.6858 19.3101 65.8519C19.5869 65.9904 22.5771 66.018 34.3022 65.9904C48.7821 65.9627 48.9621 65.9627 49.1697 65.6858C49.6681 65.0213 48.9759 62.8618 47.9238 61.7544C46.7472 60.5362 45.6813 60.0932 43.6186 59.9547L42.2482 59.8717L41.7221 57.9336C41.4314 56.8677 41.1822 55.9541 41.1822 55.8987C41.1822 55.8433 45.6536 55.7741 51.1216 55.7603L61.0748 55.7187L61.7531 55.3034C62.5837 54.7913 63.262 53.8222 63.4558 52.8394C63.5666 52.341 63.6081 46.4715 63.5804 33.3621L63.5389 14.6046L63.2482 13.9678C62.916 13.2618 62.1684 12.4451 61.4901 12.0852C61.0748 11.8498 59.9951 11.836 43.7847 11.7945C28.1835 11.7668 26.5085 11.7806 26.3147 11.9883C26.0378 12.2513 26.0378 12.5974 26.287 12.9573C26.4808 13.2203 26.8546 13.2203 43.5771 13.2895C60.5626 13.3587 60.6872 13.3587 61.0748 13.6494C61.2825 13.8017 61.6009 14.2032 61.7808 14.5354L62.0854 15.1445V30.3443V45.544H35.9911H9.89675V34.954V24.364L10.2844 24.4609C10.492 24.5302 11.4749 24.5578 12.4577 24.5578C14.6311 24.544 15.8631 24.2533 17.732 23.3258C20.1684 22.1353 22.1341 20.2249 23.3108 17.8854L23.6015 17.304H40.7669H57.9324V30.372V43.4537L58.237 43.6614C58.6523 43.9521 58.8461 43.9382 59.1783 43.606C59.4552 43.3291 59.4552 43.1492 59.4552 29.8598C59.4552 18.4392 59.4275 16.3489 59.2614 16.1135C59.0676 15.8505 58.7077 15.8505 41.5975 15.809C25.0688 15.7813 24.1275 15.7674 24.2244 15.5321C24.5013 14.8538 24.7366 12.722 24.6535 11.6283C24.432 8.51364 23.3246 5.9665 21.262 3.82082C18.701 1.16293 15.9324 -0.0137329 12.2086 0.000114441C10.9073 0.0139542 10.229 0.083168 9.25997 0.332344ZM14.9495 1.81356C20.196 3.05944 23.7676 8.27831 23.0616 13.6356C22.4663 18.01 19.3239 21.5954 15.0049 22.7859C14.3542 22.9659 13.6344 23.0351 12.2501 23.0351C10.5335 23.0351 10.2705 22.9936 9.09385 22.606C7.50189 22.0661 6.14526 21.277 4.98244 20.1834C3.41816 18.7299 2.39377 17.0133 1.84004 14.9784C1.46628 13.5525 1.43859 11.13 1.78467 9.75952C3.29357 3.8485 9.02463 0.401566 14.9495 1.81356ZM62.0854 49.7385C62.0854 52.2303 62.0715 52.4518 61.7808 53.0193C61.3794 53.7945 60.7564 54.2237 59.8289 54.3344C59.4275 54.376 47.467 54.4036 33.2224 54.376L7.33577 54.3344L6.80973 54.0022C5.85455 53.4069 5.74381 53.0055 5.74381 49.8354V47.0668H33.9146H62.0854V49.7385ZM44.7815 61.6159C46.0412 61.8789 47.3701 63.0694 47.6331 64.1215L47.7162 64.5091H34.1499C26.6746 64.5091 20.5421 64.4538 20.5006 64.3984C20.376 64.2046 20.9297 63.1802 21.4142 62.6818C21.9126 62.1835 22.6878 61.7682 23.3938 61.5882C24.0998 61.4221 43.9786 61.4498 44.7815 61.6159Z" fill="#EE0D09"/>
<path d="M11.7933 4.95593C11.6548 5.09436 11.5579 5.4266 11.5579 5.70346C11.5579 6.14644 11.5164 6.20181 11.0319 6.34025C10.2567 6.57558 9.41225 7.24005 9.0108 7.93221C7.6957 10.1748 9.25997 12.6804 12.167 12.9988C13.3991 13.1372 14.0635 13.4971 14.3958 14.2031C15.1156 15.7121 13.3575 17.304 11.5995 16.7503C10.7273 16.4596 10.0352 15.6567 10.0352 14.9091C10.0352 14.48 9.73064 14.217 9.24613 14.217C8.70625 14.217 8.47091 14.6184 8.56781 15.3521C8.73393 16.5842 9.78601 17.7885 11.0319 18.1623C11.5026 18.3007 11.5579 18.3561 11.5579 18.7852C11.5579 19.5189 11.7656 19.7958 12.3193 19.7958C12.873 19.7958 13.0807 19.5189 13.0807 18.7991C13.0807 18.3699 13.1361 18.3146 13.7728 18.0931C15.1295 17.6086 16.1262 16.2796 16.1262 14.9507C16.1262 13.1372 14.3266 11.4899 12.3608 11.4899C11.6548 11.4899 11.0319 11.213 10.5197 10.6731C10.1736 10.2994 10.1044 10.1056 10.1044 9.55185C10.1044 8.97044 10.1736 8.80432 10.5612 8.40287C11.1288 7.82146 11.9871 7.5446 12.8038 7.68303C13.6206 7.82146 14.4373 8.58283 14.5481 9.28883C14.6726 10.0087 14.8941 10.2717 15.3648 10.2717C16.1677 10.2717 16.3477 9.41342 15.7939 8.23676C15.4063 7.37848 14.6865 6.7417 13.7728 6.40946C13.1084 6.17413 13.0807 6.14644 13.0807 5.66193C13.0807 4.83134 12.2916 4.40221 11.7933 4.95593Z" fill="#EE0D09"/>
<path d="M4.22106 11.7668C3.88882 12.099 3.87498 12.2929 4.16568 12.7081C4.34564 12.9712 4.49792 13.0127 5.31466 13.0127C6.29753 13.0127 6.71282 12.7912 6.71282 12.279C6.71282 11.7807 6.20062 11.49 5.32851 11.49C4.67788 11.49 4.44255 11.5453 4.22106 11.7668Z" fill="#EE0D09"/>
<path d="M18.2026 11.7668C17.8704 12.099 17.8565 12.2929 18.1473 12.7081C18.3272 12.9712 18.4795 13.0127 19.2962 13.0127C20.2791 13.0127 20.6944 12.7912 20.6944 12.279C20.6944 11.7807 20.1822 11.49 19.3101 11.49C18.6594 11.49 18.4241 11.5453 18.2026 11.7668Z" fill="#EE0D09"/>
<path d="M30.3292 50.1953C30.0108 50.4999 30.0523 51.0259 30.4123 51.2751C30.6753 51.4551 31.2567 51.4966 33.9423 51.4966C36.9878 51.4966 37.1816 51.4827 37.4446 51.2197C37.7768 50.8875 37.7907 50.6937 37.5 50.2784C37.2923 49.9738 37.2508 49.9738 33.9146 49.9738C31.0352 49.9738 30.5092 50.0015 30.3292 50.1953Z" fill="#EE0D09"/>
<path d="M36.0603 21.2217L35.7142 21.4016L35.6727 31.8255C35.6588 39.4254 35.6865 42.3186 35.7973 42.4432C36.0049 42.7062 41.1823 42.72 41.4314 42.4709C41.556 42.3463 41.5976 39.813 41.5976 31.8947C41.5976 22.3983 41.5837 21.4708 41.3622 21.3047C41.0438 21.0278 36.5587 20.9586 36.0603 21.2217ZM40.0748 31.8393V41.1142H38.6213H37.1678V31.8393V22.5644H38.6213H40.0748V31.8393Z" fill="#EE0D09"/>
<path d="M45.2798 26.0529C45.086 26.3297 45.0583 27.3265 45.0583 34.1926C45.0583 41.0588 45.086 42.0556 45.2798 42.3324C45.4875 42.6231 45.5567 42.637 48.1038 42.637C50.2911 42.637 50.7479 42.5954 50.9278 42.4155C51.1216 42.2217 51.1493 41.2942 51.1493 34.248C51.1493 29.0153 51.094 26.1913 51.0109 26.0114C50.8725 25.7622 50.6925 25.7483 48.1731 25.7483C45.5567 25.7483 45.4875 25.7622 45.2798 26.0529ZM49.6266 34.1234V41.1142H48.1038H46.5811V34.2203C46.5811 30.4273 46.6226 27.2711 46.678 27.2296C46.7195 27.1742 47.4117 27.1326 48.2007 27.1326H49.6266V34.1234Z" fill="#EE0D09"/>
<path d="M17.0952 31.3271L16.7491 31.5071L16.7076 36.8782C16.6938 40.7405 16.7214 42.3186 16.8322 42.4432C16.9568 42.5954 17.5797 42.637 19.67 42.637C22.1756 42.637 22.3556 42.6231 22.494 42.3739C22.5771 42.194 22.6325 40.2006 22.6325 36.8505C22.6325 32.13 22.6048 31.5763 22.3971 31.4102C22.0787 31.1333 17.5936 31.0641 17.0952 31.3271ZM21.1097 36.8921V41.1142H19.6562H18.2027V36.8921V32.6699H19.6562H21.1097V36.8921Z" fill="#EE0D09"/>
<path d="M26.3147 35.4662C26.1348 35.7292 26.0932 36.3106 26.0932 38.9824C26.0932 41.9033 26.1209 42.194 26.3424 42.4016C26.5639 42.6093 26.9653 42.637 29.1664 42.637C31.4644 42.637 31.7551 42.6093 31.9489 42.3878C32.295 42.014 32.295 35.9369 31.9627 35.4662C31.7551 35.1755 31.6859 35.1617 29.1387 35.1617C26.5916 35.1617 26.5224 35.1755 26.3147 35.4662ZM30.6615 38.8993V41.1142H29.1387H27.616V38.8993V36.6844H29.1387H30.6615V38.8993Z" fill="#EE0D09"/>
</svg>
