<svg width="162" height="162" viewBox="0 0 162 162" fill="none" xmlns="http://www.w3.org/2000/svg">
<path d="M10.1524 48.3385C8.26849 49.7631 6.4066 52.4386 5.54929 54.9321C3.01211 62.3114 6.84771 70.224 14.1933 72.7496C18.0346 74.0703 21.2705 73.8641 24.9609 72.0621C27.5646 70.7908 28.655 69.8658 30.3674 67.5156C32.3761 64.7963 33.3084 60.3316 32.6194 56.9109L32.2525 55.1834L41.8747 50.485L51.4969 45.7865L50.9634 47.3929C50.6622 48.269 50.4631 49.0671 50.5073 49.1577C50.629 49.4067 53.8864 50.5079 54.1354 50.3863C54.226 50.342 54.9769 48.3772 55.7542 46.0069L57.2255 41.7276L58.1931 43.0776C61.1518 47.1845 66.4388 49.3414 71.8429 48.6373C73.851 48.3858 77.6546 46.5285 79.0879 45.0997C82.6594 41.5613 84.2602 36.6859 83.3339 32.1474L82.967 30.4199L88.763 27.5898C94.9438 24.5718 96.606 23.9564 99.6861 23.5459C103.003 23.1039 105.648 23.4105 109.186 24.6269C114.78 26.5501 118.881 30.1269 121.369 35.221C123.856 40.3151 124.154 45.7491 122.231 51.3426C120.667 55.8915 118.259 59.1704 114.459 61.839C113.608 62.4508 107.449 65.5704 97.8266 70.2688L82.567 77.72L83.1004 76.1137C83.4016 75.2376 83.5897 74.4168 83.5233 74.2809C83.3796 73.9866 80.268 72.9545 79.9737 73.0982C79.8605 73.1535 79.087 75.1294 78.3097 77.4996L76.8383 81.779L75.8707 80.429C73.379 76.9913 68.9044 74.718 64.5997 74.7451C57.2413 74.7773 51.4573 79.9288 50.5886 87.2224C50.3584 88.933 50.5904 91.8198 50.9884 92.6349C51.1653 92.9971 50.961 93.153 48.8328 94.1921C42.3123 97.376 37.7688 102.426 35.5213 108.963C31.003 122.105 37.9677 136.368 51.1316 140.875C54.0068 141.883 56.5271 142.278 59.8968 142.231C63.6608 142.188 66.0664 141.602 70.3891 139.659L74.0553 138.037L73.4992 139.655L72.9315 141.306L74.8858 141.978L76.8065 142.638L78.3126 138.258L79.796 133.888L80.7637 135.238C83.7223 139.345 89.0094 141.502 94.4134 140.798C96.4215 140.547 100.225 138.689 101.658 137.26C105.23 133.722 106.831 128.847 105.904 124.308L105.538 122.581L115.16 117.882L124.782 113.184L124.248 114.79C123.947 115.666 123.748 116.464 123.792 116.555C123.914 116.804 127.171 117.905 127.42 117.784C127.511 117.739 128.262 115.774 129.039 113.404L130.511 109.125L131.478 110.475C134.437 114.582 139.724 116.739 145.128 116.035C147.136 115.783 150.94 113.926 152.373 112.497C154.909 109.997 156.621 106.554 156.864 103.491C157.365 96.8812 153.567 90.9973 147.423 88.8661C140.055 86.2952 132.098 90.1529 129.549 97.5659C128.645 100.251 128.536 103.416 129.267 105.947L129.737 107.54L125.457 106.069C123.11 105.224 121.076 104.619 120.941 104.685C120.646 104.829 119.58 107.929 119.724 108.223C119.779 108.337 120.542 108.693 121.418 108.994L123.013 109.561L113.346 114.282C104.176 118.759 103.667 118.98 103.479 118.595C103.081 117.78 100.925 115.833 99.4122 114.917C91.6586 110.235 81.788 113.793 78.8343 122.329C77.9301 125.014 77.8215 128.179 78.5526 130.71L79.0222 132.304L74.7428 130.832C72.3957 129.988 70.3619 129.382 70.226 129.449C69.9317 129.593 68.8659 132.692 69.0096 132.987C69.0649 133.1 69.8277 133.457 70.7375 133.769L72.3433 134.359L68.7788 135.959C66.1083 137.151 64.7404 137.623 63.3293 137.891C54.9773 139.334 46.7267 135.989 41.9675 129.228C38.2423 123.953 37.1803 117.07 39.1545 110.834C40.9661 105.127 44.2022 101.304 49.8876 98.2473C52.7872 96.6633 52.9341 96.6196 53.1441 97.0498C53.5532 97.8875 55.6759 99.823 57.2222 100.75C60.1352 102.524 63.2621 103.128 66.8271 102.677C68.8352 102.426 72.6388 100.569 74.072 99.1398C78.1437 95.1328 79.5478 89.6246 77.9186 84.3358L77.6011 83.3412L81.97 84.881L86.3504 86.387L87.0108 84.4664L87.6827 82.5121L86.0316 81.9444L84.3695 81.3541L100.604 73.3149C116.351 65.5415 116.883 65.2535 118.428 63.9384C121.973 60.8618 124.669 56.9095 126.106 52.7312C129.639 42.4541 126.241 31.1314 117.694 24.5943C111.787 20.0765 104.354 18.4065 96.9259 19.9029C95.1421 20.2692 94.0337 20.6982 88.0009 23.5599C81.6626 26.5427 81.0745 26.7738 80.8976 26.4115C80.5107 25.6191 78.3432 23.6493 76.8416 22.7563C69.0881 18.0746 59.2175 21.6326 56.2638 30.1686C55.3596 32.8532 55.251 36.0186 55.9821 38.5495L56.4516 40.1427L52.1723 38.6714C49.8252 37.8267 47.7914 37.2217 47.6555 37.288C47.3612 37.4317 46.2953 40.5317 46.4391 40.826C46.4943 40.9392 47.2572 41.2957 48.1333 41.5969L49.728 42.1641L40.0606 46.8846C30.8912 51.3619 30.3821 51.5825 30.1941 51.1976C29.7962 50.3826 27.6397 48.4354 26.1271 47.5197C22.0711 45.0702 17.5669 44.7461 13.2557 46.6549C12.1242 47.1513 10.72 47.8931 10.1524 48.3385ZM18.5364 49.4878C21.061 49.4327 23.0153 50.1047 25.0291 51.6448C26.6175 52.888 26.7623 53.0697 27.7683 55.1299C28.7743 57.1902 28.8285 57.4161 28.8321 59.4331C28.8193 61.9909 28.1252 63.8999 26.5061 65.9242C25.4456 67.2552 25.1392 67.4889 23.1921 68.4397C21.245 69.3904 20.8723 69.4883 19.1706 69.5061C16.5786 69.5381 14.6464 68.9114 12.6215 67.3486C11.0332 66.1054 10.8884 65.9238 9.89342 63.8861C8.93162 61.9164 8.83372 61.5436 8.81592 59.842C8.78186 57.4753 9.38694 55.4415 10.6538 53.7294C11.9555 51.9162 12.8411 51.2033 14.9456 50.2879C16.3598 49.6815 17.1501 49.5199 18.5364 49.4878ZM69.2509 24.7244C71.7755 24.6692 73.7298 25.3412 75.7436 26.8813C77.332 28.1245 77.4768 28.3062 78.4828 30.3665C79.4888 32.4267 79.543 32.6526 79.5466 34.6696C79.5338 37.2274 78.8397 39.1365 77.2206 41.1608C76.1601 42.4917 75.8537 42.7255 73.9066 43.6762C71.9595 44.6269 71.5868 44.7248 69.8851 44.7426C67.2931 44.7746 65.3609 44.1479 63.3361 42.5851C61.7477 41.3419 61.6029 41.1603 60.6079 39.1227C59.6461 37.1529 59.5482 36.7802 59.5304 35.0785C59.4964 32.7119 60.1015 30.678 61.3683 28.9659C62.67 27.1527 63.5556 26.4399 65.6601 25.5244C67.0743 24.918 67.8646 24.7564 69.2509 24.7244ZM64.2351 78.7645C66.7597 78.7093 68.714 79.3813 70.7278 80.9214C72.3162 82.1646 72.461 82.3463 73.467 84.4065C74.473 86.4668 74.5272 86.6927 74.5308 88.7097C74.5179 91.2675 73.8239 93.1766 72.2048 95.2009C71.1443 96.5318 70.8379 96.7655 68.8908 97.7163C66.9437 98.667 66.5709 98.7649 64.8693 98.7827C62.2773 98.8147 60.3451 98.188 58.3202 96.6252C56.7318 95.382 56.5871 95.2004 55.5921 93.1627C54.6303 91.193 54.5324 90.8202 54.5146 89.1186C54.4805 86.7519 55.0856 84.7181 56.3525 83.006C57.6541 81.1928 58.5398 80.48 60.6443 79.5645C62.0585 78.9581 62.8488 78.7965 64.2351 78.7645ZM91.8214 116.885C94.346 116.83 96.3004 117.502 98.3141 119.042C99.9025 120.285 100.047 120.467 101.053 122.527C102.059 124.588 102.114 124.813 102.117 126.83C102.104 129.388 101.41 131.297 99.7911 133.322C98.7307 134.652 98.4242 134.886 96.4771 135.837C94.5301 136.788 94.1573 136.886 92.4556 136.903C89.8636 136.935 87.9314 136.309 85.9066 134.746C84.3182 133.503 84.1734 133.321 83.1785 131.283C82.2167 129.314 82.1188 128.941 82.101 127.239C82.0669 124.873 82.672 122.839 83.9389 121.127C85.2405 119.313 86.1261 118.601 88.2306 117.685C89.6449 117.079 90.4351 116.917 91.8214 116.885ZM142.536 92.1217C145.061 92.0666 147.015 92.7385 149.029 94.2787C150.617 95.5218 150.762 95.7035 151.768 97.7638C152.774 99.8241 152.828 100.05 152.832 102.067C152.819 104.625 152.125 106.534 150.506 108.558C149.445 109.889 149.139 110.123 147.192 111.074C145.245 112.024 144.872 112.122 143.17 112.14C140.578 112.172 138.646 111.545 136.621 109.982C135.033 108.739 134.888 108.558 133.893 106.52C132.931 104.55 132.833 104.177 132.815 102.476C132.781 100.109 133.386 98.0753 134.653 96.3632C135.955 94.55 136.841 93.8372 138.945 92.9217C140.359 92.3153 141.15 92.1537 142.536 92.1217Z" fill="#F3F3F3"/>
</svg>
