<svg width="42" height="29" viewBox="0 0 42 29" fill="none" xmlns="http://www.w3.org/2000/svg">
<path d="M3.07686 0.163346C1.56906 0.566708 0.39739 1.85362 0.109275 3.40944C-0.0347829 4.17775 -0.0347829 24.826 0.0996709 25.5655C0.426201 27.2942 1.83797 28.6579 3.55705 28.9268C3.96041 28.9845 10.3086 29.0133 21.3722 28.9941L38.563 28.9653L39.1009 28.7444C40.2725 28.2738 41.1273 27.419 41.6171 26.2282L41.8284 25.7L41.8572 14.8956C41.8764 7.45266 41.8572 3.89924 41.7803 3.48628C41.6363 2.62193 41.2425 1.87283 40.6279 1.24858C40.0228 0.643538 39.5522 0.365027 38.7359 0.153743C37.91 -0.0575419 3.88358 -0.0479381 3.07686 0.163346ZM38.4094 1.69036C38.4766 1.75758 35.6627 4.293 29.8043 9.46947C25.012 13.6952 21.0456 17.1621 20.9784 17.1814C20.8632 17.2102 3.53785 1.98808 3.45141 1.7864C3.4322 1.73838 3.54745 1.66155 3.70111 1.63273C4.20051 1.52709 38.3037 1.58471 38.4094 1.69036ZM7.95561 7.92325C10.8176 10.4587 13.1513 12.5811 13.1417 12.6387C13.1225 12.6964 10.5679 15.6543 7.44661 19.1982C3.71071 23.4623 1.76114 25.6039 1.71312 25.5271C1.6747 25.4695 1.63629 20.4851 1.63629 14.4635C1.63629 3.75518 1.64589 3.50548 1.82836 3.09252L2.02044 2.67955L2.38538 2.99648C2.57746 3.17895 5.08406 5.39744 7.95561 7.92325ZM40.1477 3.37103C40.2725 3.81281 40.2821 25.431 40.1573 25.4983C40.0612 25.5655 28.7671 12.754 28.7671 12.5907C28.7671 12.5331 31.2545 10.2954 34.2893 7.60632C40.2917 2.2954 39.9268 2.56431 40.1477 3.37103ZM17.7995 16.6147C19.2689 17.9112 20.5751 19.0157 20.7095 19.0637C20.8536 19.1213 21.0264 19.1213 21.1801 19.0637C21.3146 19.0157 22.7647 17.7864 24.407 16.3362C26.0588 14.886 27.4418 13.6952 27.4802 13.6952C27.5282 13.6952 30.1789 16.6723 33.3674 20.3122C39.6963 27.5247 39.3121 27.0061 38.5246 27.2654C38.0636 27.4286 3.82596 27.4286 3.35537 27.275C2.61588 27.0253 2.31816 27.4286 8.59907 20.2834L14.419 13.6375L14.7743 13.9449C14.9664 14.1177 16.3302 15.3182 17.7995 16.6147Z" fill="white"/>
</svg>
