<svg xmlns="http://www.w3.org/2000/svg" xmlns:xlink="http://www.w3.org/1999/xlink" width="67" zoomAndPan="magnify" viewBox="0 0 50.25 50.249998" height="67" preserveAspectRatio="xMidYMid meet" version="1.0"><defs><clipPath id="43811e1fac"><path d="M 5.820312 4.609375 L 43.507812 4.609375 L 43.507812 45 L 5.820312 45 Z M 5.820312 4.609375 " clip-rule="nonzero"/></clipPath></defs><g clip-path="url(#43811e1fac)"><path fill="#ff3939" d="M 19.976562 10.289062 C 20.347656 10.273438 20.558594 10.292969 20.671875 10.3125 L 21.699219 15.839844 C 21.800781 16.390625 22.277344 16.789062 22.835938 16.789062 L 27.542969 16.789062 C 28.105469 16.789062 28.585938 16.386719 28.683594 15.835938 L 29.289062 12.460938 C 29.347656 12.117188 29.257812 11.78125 29.035156 11.515625 C 28.8125 11.25 28.5 11.101562 28.148438 11.101562 L 22.136719 11.101562 L 21.902344 9.832031 C 21.699219 8.921875 20.453125 8.972656 19.921875 8.996094 C 19.5625 9.011719 19.285156 9.3125 19.300781 9.671875 C 19.316406 10.027344 19.605469 10.304688 19.976562 10.289062 Z M 27.980469 12.398438 L 27.425781 15.492188 L 22.953125 15.492188 L 22.378906 12.398438 Z M 24.226562 18.007812 C 24.226562 18.363281 23.933594 18.65625 23.578125 18.65625 C 23.21875 18.65625 22.925781 18.363281 22.925781 18.007812 C 22.925781 17.648438 23.214844 17.359375 23.570312 17.359375 L 23.578125 17.359375 C 23.933594 17.359375 24.226562 17.648438 24.226562 18.007812 Z M 27.070312 18.007812 C 27.070312 18.363281 26.78125 18.65625 26.421875 18.65625 C 26.066406 18.65625 25.769531 18.363281 25.769531 18.007812 C 25.769531 17.648438 26.058594 17.359375 26.417969 17.359375 L 26.421875 17.359375 C 26.78125 17.359375 27.070312 17.648438 27.070312 18.007812 Z M 43.046875 39.601562 L 40.453125 39.601562 L 40.453125 23.589844 C 40.757812 23.535156 40.988281 23.273438 40.988281 22.953125 L 40.988281 20.882812 C 41.675781 20.824219 42.214844 20.257812 42.214844 19.554688 L 42.214844 12.972656 C 42.214844 12.234375 41.617188 11.632812 40.878906 11.632812 L 33.097656 11.632812 C 32.386719 7.671875 28.917969 4.65625 24.757812 4.65625 C 20.59375 4.65625 17.125 7.671875 16.414062 11.632812 L 8.632812 11.632812 C 7.894531 11.632812 7.292969 12.234375 7.292969 12.972656 L 7.292969 19.554688 C 7.292969 20.257812 7.835938 20.824219 8.523438 20.882812 L 8.523438 22.953125 C 8.523438 23.3125 8.8125 23.601562 9.171875 23.601562 L 9.175781 23.601562 L 9.175781 39.601562 L 6.464844 39.601562 C 6.109375 39.601562 5.816406 39.890625 5.816406 40.246094 L 5.816406 44.203125 C 5.816406 44.5625 6.109375 44.851562 6.464844 44.851562 L 43.046875 44.851562 C 43.402344 44.851562 43.695312 44.5625 43.695312 44.203125 L 43.695312 40.246094 C 43.695312 39.890625 43.402344 39.601562 43.046875 39.601562 Z M 9.816406 22.304688 L 9.816406 20.894531 L 21.339844 20.894531 C 21.371094 20.910156 21.40625 20.921875 21.4375 20.9375 C 21.460938 20.945312 21.484375 20.957031 21.507812 20.964844 C 21.617188 21.011719 21.722656 21.054688 21.832031 21.09375 C 21.847656 21.101562 21.867188 21.105469 21.886719 21.113281 C 22 21.152344 22.117188 21.195312 22.234375 21.230469 C 22.238281 21.230469 22.246094 21.234375 22.25 21.234375 C 22.917969 21.441406 23.609375 21.566406 24.320312 21.601562 C 24.425781 21.605469 24.539062 21.609375 24.648438 21.609375 C 24.683594 21.609375 24.71875 21.613281 24.753906 21.613281 C 24.902344 21.613281 25.046875 21.609375 25.191406 21.601562 C 25.898438 21.566406 26.585938 21.441406 27.253906 21.238281 C 27.261719 21.234375 27.269531 21.230469 27.277344 21.230469 C 27.390625 21.195312 27.507812 21.152344 27.621094 21.113281 C 27.640625 21.105469 27.660156 21.097656 27.679688 21.09375 C 27.789062 21.050781 27.890625 21.011719 27.996094 20.96875 C 28.023438 20.957031 28.046875 20.945312 28.074219 20.9375 C 28.105469 20.921875 28.140625 20.910156 28.171875 20.894531 L 39.691406 20.894531 L 39.691406 22.304688 Z M 33.230469 12.929688 L 40.878906 12.929688 C 40.898438 12.929688 40.921875 12.949219 40.921875 12.972656 L 40.921875 19.558594 C 40.921875 19.578125 40.898438 19.597656 40.878906 19.597656 L 30.238281 19.597656 C 30.292969 19.554688 30.34375 19.503906 30.398438 19.457031 C 30.425781 19.429688 30.457031 19.402344 30.488281 19.375 C 30.554688 19.316406 30.621094 19.253906 30.683594 19.1875 C 30.730469 19.144531 30.773438 19.101562 30.816406 19.058594 C 30.867188 19.003906 30.917969 18.953125 30.964844 18.898438 C 31.023438 18.835938 31.082031 18.769531 31.140625 18.703125 C 31.171875 18.667969 31.207031 18.628906 31.238281 18.59375 C 31.320312 18.492188 31.402344 18.394531 31.480469 18.289062 C 31.484375 18.28125 31.492188 18.273438 31.5 18.265625 C 32.316406 17.191406 32.886719 15.917969 33.117188 14.53125 C 33.140625 14.382812 33.164062 14.238281 33.179688 14.089844 C 33.179688 14.082031 33.179688 14.074219 33.183594 14.0625 C 33.199219 13.921875 33.210938 13.777344 33.21875 13.632812 C 33.21875 13.621094 33.21875 13.609375 33.222656 13.601562 C 33.230469 13.445312 33.234375 13.289062 33.234375 13.132812 C 33.234375 13.125 33.234375 13.117188 33.234375 13.109375 C 33.234375 13.050781 33.234375 12.988281 33.230469 12.929688 Z M 24.757812 5.953125 C 28.710938 5.953125 31.929688 9.167969 31.9375 13.121094 C 31.9375 13.125 31.9375 13.128906 31.9375 13.136719 C 31.9375 13.144531 31.9375 13.148438 31.9375 13.15625 C 31.9375 13.367188 31.925781 13.570312 31.90625 13.773438 C 31.898438 13.847656 31.890625 13.921875 31.882812 13.996094 C 31.863281 14.136719 31.84375 14.277344 31.816406 14.414062 C 31.804688 14.492188 31.792969 14.570312 31.773438 14.648438 C 31.734375 14.828125 31.6875 15.007812 31.636719 15.183594 C 31.605469 15.285156 31.570312 15.378906 31.539062 15.476562 C 31.507812 15.570312 31.472656 15.664062 31.4375 15.757812 C 31.394531 15.855469 31.355469 15.957031 31.3125 16.054688 C 31.269531 16.152344 31.222656 16.242188 31.175781 16.335938 C 31.109375 16.46875 31.039062 16.601562 30.964844 16.730469 C 30.898438 16.839844 30.835938 16.953125 30.765625 17.058594 C 30.71875 17.132812 30.667969 17.203125 30.617188 17.273438 C 30.539062 17.382812 30.460938 17.488281 30.378906 17.589844 C 30.335938 17.644531 30.292969 17.699219 30.25 17.75 C 30.117188 17.910156 29.980469 18.0625 29.835938 18.207031 C 29.828125 18.214844 29.824219 18.21875 29.816406 18.222656 C 29.671875 18.371094 29.519531 18.507812 29.359375 18.640625 C 29.332031 18.664062 29.300781 18.6875 29.269531 18.714844 C 29.121094 18.835938 28.964844 18.953125 28.800781 19.066406 C 28.785156 19.074219 28.769531 19.085938 28.753906 19.097656 C 28.382812 19.347656 27.984375 19.566406 27.570312 19.742188 C 27.554688 19.746094 27.542969 19.753906 27.53125 19.757812 C 27.328125 19.84375 27.121094 19.921875 26.90625 19.988281 C 26.894531 19.992188 26.878906 19.996094 26.867188 20 C 26.652344 20.066406 26.433594 20.121094 26.214844 20.167969 C 26.203125 20.171875 26.191406 20.171875 26.179688 20.175781 C 25.957031 20.21875 25.726562 20.253906 25.496094 20.277344 C 25.488281 20.28125 25.476562 20.28125 25.46875 20.28125 C 25.234375 20.304688 24.996094 20.316406 24.757812 20.316406 C 24.757812 20.316406 24.753906 20.316406 24.753906 20.316406 C 24.515625 20.316406 24.277344 20.304688 24.042969 20.28125 C 24.03125 20.28125 24.023438 20.28125 24.015625 20.277344 C 23.78125 20.253906 23.554688 20.21875 23.328125 20.175781 C 23.320312 20.171875 23.308594 20.171875 23.296875 20.167969 C 23.074219 20.121094 22.859375 20.066406 22.644531 20 C 22.628906 19.996094 22.617188 19.992188 22.605469 19.988281 C 22.390625 19.921875 22.183594 19.84375 21.976562 19.757812 C 21.964844 19.753906 21.953125 19.746094 21.941406 19.742188 C 21.523438 19.5625 21.128906 19.347656 20.757812 19.097656 C 20.742188 19.085938 20.726562 19.074219 20.710938 19.066406 C 20.546875 18.953125 20.390625 18.835938 20.238281 18.714844 C 20.210938 18.6875 20.179688 18.664062 20.148438 18.640625 C 19.992188 18.507812 19.835938 18.371094 19.691406 18.222656 C 19.683594 18.21875 19.679688 18.214844 19.675781 18.207031 C 19.53125 18.0625 19.390625 17.910156 19.257812 17.75 C 19.214844 17.699219 19.175781 17.644531 19.132812 17.589844 C 19.050781 17.488281 18.96875 17.382812 18.894531 17.273438 C 18.84375 17.203125 18.792969 17.132812 18.746094 17.058594 C 18.675781 16.953125 18.609375 16.839844 18.542969 16.730469 C 18.46875 16.601562 18.398438 16.46875 18.332031 16.335938 C 18.285156 16.242188 18.242188 16.152344 18.199219 16.054688 C 18.152344 15.957031 18.113281 15.855469 18.074219 15.757812 C 18.039062 15.664062 18.003906 15.570312 17.972656 15.476562 C 17.9375 15.378906 17.902344 15.285156 17.875 15.183594 C 17.820312 15.007812 17.773438 14.828125 17.734375 14.648438 C 17.71875 14.570312 17.707031 14.492188 17.691406 14.414062 C 17.667969 14.277344 17.644531 14.136719 17.628906 13.996094 C 17.617188 13.921875 17.609375 13.847656 17.601562 13.773438 C 17.585938 13.570312 17.574219 13.367188 17.574219 13.15625 C 17.574219 13.152344 17.570312 13.144531 17.570312 13.136719 C 17.570312 13.128906 17.570312 13.125 17.570312 13.121094 C 17.582031 9.167969 20.800781 5.953125 24.757812 5.953125 Z M 8.589844 12.972656 C 8.589844 12.949219 8.613281 12.929688 8.632812 12.929688 L 16.28125 12.929688 C 16.277344 12.988281 16.277344 13.050781 16.277344 13.109375 C 16.277344 13.117188 16.277344 13.125 16.277344 13.132812 C 16.277344 13.289062 16.28125 13.445312 16.289062 13.601562 C 16.289062 13.609375 16.292969 13.621094 16.292969 13.632812 C 16.300781 13.777344 16.3125 13.921875 16.328125 14.0625 C 16.328125 14.074219 16.332031 14.082031 16.332031 14.089844 C 16.347656 14.238281 16.371094 14.382812 16.394531 14.53125 C 16.625 15.917969 17.191406 17.191406 18.011719 18.265625 C 18.019531 18.277344 18.027344 18.285156 18.03125 18.292969 C 18.109375 18.394531 18.191406 18.492188 18.273438 18.59375 C 18.304688 18.628906 18.339844 18.667969 18.371094 18.707031 C 18.429688 18.769531 18.484375 18.835938 18.542969 18.898438 C 18.59375 18.953125 18.644531 19.003906 18.699219 19.058594 C 18.738281 19.101562 18.78125 19.144531 18.828125 19.1875 C 18.890625 19.25 18.957031 19.3125 19.023438 19.375 C 19.054688 19.402344 19.082031 19.429688 19.113281 19.457031 C 19.167969 19.503906 19.21875 19.554688 19.273438 19.597656 L 8.632812 19.597656 C 8.613281 19.597656 8.589844 19.578125 8.589844 19.558594 Z M 10.472656 23.601562 L 39.15625 23.601562 L 39.15625 39.601562 L 28.484375 39.601562 L 28.484375 28.199219 C 28.484375 27.839844 28.195312 27.550781 27.835938 27.550781 L 21.675781 27.550781 C 21.316406 27.550781 21.027344 27.839844 21.027344 28.199219 L 21.027344 39.601562 L 10.472656 39.601562 Z M 27.1875 39.601562 L 22.324219 39.601562 L 22.324219 28.847656 L 27.1875 28.847656 Z M 42.398438 43.554688 L 7.113281 43.554688 L 7.113281 40.894531 L 9.839844 40.894531 C 9.84375 40.894531 9.84375 40.894531 9.84375 40.894531 L 39.785156 40.894531 C 39.785156 40.894531 39.789062 40.894531 39.789062 40.894531 L 42.398438 40.894531 Z M 30.921875 35.011719 L 36.613281 35.011719 C 36.972656 35.011719 37.261719 34.71875 37.261719 34.363281 L 37.261719 28.199219 C 37.261719 27.839844 36.972656 27.550781 36.613281 27.550781 L 30.921875 27.550781 C 30.5625 27.550781 30.273438 27.84375 30.273438 28.199219 L 30.273438 34.363281 C 30.273438 34.71875 30.5625 35.011719 30.921875 35.011719 Z M 31.570312 28.847656 L 35.964844 28.847656 L 35.964844 33.714844 L 31.570312 33.714844 Z M 18.589844 27.550781 L 12.898438 27.550781 C 12.539062 27.550781 12.25 27.84375 12.25 28.199219 L 12.25 34.363281 C 12.25 34.71875 12.539062 35.011719 12.898438 35.011719 L 18.589844 35.011719 C 18.949219 35.011719 19.238281 34.71875 19.238281 34.363281 L 19.238281 28.199219 C 19.238281 27.839844 18.949219 27.550781 18.589844 27.550781 Z M 17.941406 33.714844 L 13.546875 33.714844 L 13.546875 28.847656 L 17.941406 28.847656 Z M 17.941406 33.714844 " fill-opacity="1" fill-rule="nonzero"/></g></svg>