<svg xmlns="http://www.w3.org/2000/svg" xmlns:xlink="http://www.w3.org/1999/xlink" width="67" zoomAndPan="magnify" viewBox="0 0 50.25 50.249998" height="67" preserveAspectRatio="xMidYMid meet" version="1.0"><defs><clipPath id="7f1eff7a58"><path d="M 21 5.46875 L 28 5.46875 L 28 12 L 21 12 Z M 21 5.46875 " clip-rule="nonzero"/></clipPath><clipPath id="953fecdc6c"><path d="M 5.46875 16 L 43.894531 16 L 43.894531 43.894531 L 5.46875 43.894531 Z M 5.46875 16 " clip-rule="nonzero"/></clipPath></defs><g clip-path="url(#7f1eff7a58)"><path fill="#ff3939" d="M 23.027344 9.285156 L 22.691406 11.03125 C 22.664062 11.171875 22.710938 11.28125 22.824219 11.367188 C 22.9375 11.449219 23.054688 11.457031 23.179688 11.390625 L 24.75 10.535156 L 26.308594 11.382812 C 26.433594 11.449219 26.550781 11.441406 26.664062 11.359375 C 26.78125 11.277344 26.824219 11.164062 26.796875 11.023438 L 26.464844 9.28125 L 27.757812 8.0625 C 27.855469 7.96875 27.882812 7.859375 27.84375 7.730469 C 27.800781 7.597656 27.710938 7.519531 27.570312 7.503906 L 25.8125 7.273438 L 25.050781 5.65625 C 24.988281 5.53125 24.890625 5.46875 24.75 5.46875 C 24.609375 5.46875 24.511719 5.53125 24.449219 5.65625 L 23.683594 7.261719 L 21.925781 7.492188 C 21.785156 7.511719 21.695312 7.585938 21.652344 7.71875 C 21.613281 7.847656 21.644531 7.960938 21.738281 8.054688 Z M 23.949219 7.898438 C 24.070312 7.882812 24.15625 7.820312 24.207031 7.714844 L 24.75 6.582031 L 25.292969 7.707031 C 25.34375 7.816406 25.429688 7.878906 25.546875 7.894531 L 26.792969 8.058594 L 25.882812 8.917969 C 25.792969 9.003906 25.761719 9.105469 25.78125 9.222656 L 26.011719 10.457031 L 24.910156 9.859375 C 24.796875 9.792969 24.6875 9.792969 24.574219 9.859375 L 23.472656 10.457031 L 23.703125 9.222656 C 23.726562 9.105469 23.691406 9.003906 23.605469 8.917969 L 22.695312 8.058594 Z M 23.949219 7.898438 " fill-opacity="1" fill-rule="nonzero"/></g><path fill="#ff3939" d="M 14.8125 12.824219 L 14.476562 14.570312 C 14.453125 14.707031 14.496094 14.820312 14.609375 14.902344 C 14.722656 14.984375 14.839844 14.992188 14.964844 14.925781 L 16.523438 14.078125 L 18.082031 14.925781 C 18.207031 14.992188 18.324219 14.984375 18.4375 14.902344 C 18.550781 14.820312 18.597656 14.707031 18.570312 14.570312 L 18.238281 12.824219 L 19.523438 11.605469 C 19.621094 11.511719 19.652344 11.402344 19.613281 11.273438 C 19.570312 11.140625 19.476562 11.0625 19.339844 11.042969 L 17.578125 10.8125 L 16.816406 9.210938 C 16.757812 9.082031 16.65625 9.019531 16.515625 9.019531 C 16.371094 9.019531 16.273438 9.082031 16.210938 9.210938 L 15.449219 10.8125 L 13.722656 11.046875 C 13.582031 11.066406 13.492188 11.140625 13.449219 11.277344 C 13.410156 11.40625 13.4375 11.515625 13.535156 11.609375 Z M 15.726562 11.4375 C 15.847656 11.421875 15.933594 11.359375 15.984375 11.253906 L 16.523438 10.121094 L 17.0625 11.253906 C 17.117188 11.359375 17.203125 11.421875 17.320312 11.4375 L 18.566406 11.601562 L 17.664062 12.464844 C 17.578125 12.550781 17.546875 12.648438 17.566406 12.769531 L 17.796875 14.003906 L 16.691406 13.402344 C 16.582031 13.339844 16.46875 13.339844 16.359375 13.402344 L 15.253906 14.003906 L 15.484375 12.769531 C 15.503906 12.648438 15.472656 12.550781 15.386719 12.464844 L 14.492188 11.601562 Z M 15.726562 11.4375 " fill-opacity="1" fill-rule="nonzero"/><path fill="#ff3939" d="M 31.242188 12.824219 L 30.910156 14.570312 C 30.882812 14.710938 30.925781 14.820312 31.042969 14.90625 C 31.15625 14.988281 31.273438 14.996094 31.398438 14.929688 L 32.957031 14.082031 L 34.515625 14.929688 C 34.640625 14.996094 34.757812 14.988281 34.871094 14.90625 C 34.988281 14.820312 35.03125 14.710938 35.003906 14.570312 L 34.667969 12.824219 L 35.957031 11.605469 C 36.054688 11.511719 36.082031 11.402344 36.046875 11.273438 C 36 11.144531 35.914062 11.066406 35.777344 11.046875 L 34.015625 10.816406 L 33.253906 9.214844 C 33.195312 9.085938 33.09375 9.023438 32.953125 9.023438 C 32.8125 9.023438 32.710938 9.085938 32.648438 9.214844 L 31.886719 10.816406 L 30.140625 11.046875 C 30 11.066406 29.910156 11.140625 29.867188 11.277344 C 29.828125 11.40625 29.859375 11.515625 29.957031 11.609375 Z M 32.167969 11.4375 C 32.289062 11.421875 32.375 11.359375 32.425781 11.253906 L 32.96875 10.121094 L 33.503906 11.253906 C 33.558594 11.359375 33.644531 11.421875 33.761719 11.4375 L 35.007812 11.601562 L 34.105469 12.464844 C 34.019531 12.550781 33.988281 12.648438 34.011719 12.769531 L 34.238281 14.003906 L 33.132812 13.402344 C 33.023438 13.339844 32.910156 13.339844 32.800781 13.402344 L 31.699219 14.003906 L 31.925781 12.769531 C 31.949219 12.648438 31.914062 12.550781 31.828125 12.464844 L 30.914062 11.601562 Z M 32.167969 11.4375 " fill-opacity="1" fill-rule="nonzero"/><path fill="#ff3939" d="M 7.867188 18.664062 L 7.53125 20.410156 C 7.507812 20.546875 7.550781 20.660156 7.667969 20.742188 C 7.78125 20.824219 7.898438 20.832031 8.019531 20.765625 L 9.582031 19.917969 L 11.136719 20.765625 C 11.265625 20.84375 11.390625 20.839844 11.507812 20.753906 C 11.628906 20.667969 11.675781 20.550781 11.640625 20.40625 L 11.304688 18.660156 L 12.59375 17.441406 C 12.6875 17.347656 12.71875 17.234375 12.679688 17.105469 C 12.636719 16.972656 12.546875 16.894531 12.40625 16.875 L 10.648438 16.644531 L 9.882812 15.046875 C 9.820312 14.917969 9.722656 14.855469 9.582031 14.855469 C 9.441406 14.855469 9.339844 14.917969 9.28125 15.046875 L 8.515625 16.644531 L 6.757812 16.875 C 6.617188 16.894531 6.527344 16.972656 6.484375 17.105469 C 6.445312 17.234375 6.472656 17.347656 6.570312 17.441406 Z M 8.792969 17.277344 C 8.910156 17.261719 8.996094 17.199219 9.050781 17.089844 L 9.589844 15.957031 L 10.132812 17.089844 C 10.183594 17.199219 10.269531 17.261719 10.390625 17.277344 L 11.632812 17.441406 L 10.714844 18.308594 C 10.625 18.390625 10.59375 18.492188 10.613281 18.609375 L 10.84375 19.84375 L 9.742188 19.246094 C 9.628906 19.179688 9.519531 19.179688 9.40625 19.246094 L 8.304688 19.84375 L 8.535156 18.609375 C 8.558594 18.492188 8.523438 18.390625 8.433594 18.308594 L 7.527344 17.441406 Z M 8.792969 17.277344 " fill-opacity="1" fill-rule="nonzero"/><path fill="#ff3939" d="M 38.183594 18.664062 L 37.851562 20.410156 C 37.820312 20.550781 37.863281 20.660156 37.980469 20.746094 C 38.097656 20.828125 38.214844 20.835938 38.339844 20.765625 L 39.898438 19.917969 L 41.460938 20.765625 C 41.582031 20.832031 41.699219 20.824219 41.8125 20.742188 C 41.929688 20.660156 41.972656 20.546875 41.945312 20.410156 L 41.613281 18.664062 L 42.898438 17.445312 C 42.996094 17.351562 43.023438 17.238281 42.984375 17.109375 C 42.945312 16.976562 42.851562 16.898438 42.710938 16.878906 L 40.953125 16.648438 L 40.1875 15.046875 C 40.128906 14.921875 40.027344 14.859375 39.886719 14.859375 C 39.75 14.859375 39.648438 14.921875 39.585938 15.046875 L 38.824219 16.648438 L 37.066406 16.878906 C 36.925781 16.898438 36.832031 16.976562 36.789062 17.109375 C 36.753906 17.238281 36.78125 17.351562 36.878906 17.445312 Z M 39.121094 17.277344 C 39.238281 17.261719 39.324219 17.199219 39.378906 17.089844 L 39.917969 15.957031 L 40.457031 17.089844 C 40.507812 17.199219 40.59375 17.261719 40.714844 17.277344 L 41.957031 17.441406 L 41.046875 18.308594 C 40.960938 18.390625 40.925781 18.492188 40.949219 18.609375 L 41.179688 19.84375 L 40.074219 19.246094 C 39.964844 19.179688 39.851562 19.179688 39.742188 19.246094 L 38.636719 19.84375 L 38.871094 18.609375 C 38.890625 18.492188 38.859375 18.390625 38.769531 18.308594 L 37.859375 17.441406 Z M 39.121094 17.277344 " fill-opacity="1" fill-rule="nonzero"/><g clip-path="url(#953fecdc6c)"><path fill="#ff3939" d="M 42.695312 26.539062 L 33.4375 26.539062 L 33.4375 19.402344 C 33.4375 19.3125 33.40625 19.230469 33.339844 19.167969 C 33.277344 19.101562 33.195312 19.070312 33.105469 19.070312 L 31.140625 19.070312 L 31.140625 17.015625 C 31.140625 16.925781 31.105469 16.84375 31.042969 16.78125 C 30.976562 16.714844 30.898438 16.683594 30.804688 16.683594 L 18.695312 16.683594 C 18.601562 16.683594 18.523438 16.714844 18.457031 16.78125 C 18.394531 16.84375 18.359375 16.925781 18.359375 17.015625 L 18.359375 19.070312 L 16.394531 19.070312 C 16.304688 19.070312 16.222656 19.101562 16.160156 19.167969 C 16.09375 19.230469 16.0625 19.3125 16.0625 19.402344 L 16.0625 26.554688 L 6.804688 26.554688 C 6.625 26.554688 6.457031 26.589844 6.292969 26.65625 C 6.128906 26.722656 5.984375 26.820312 5.859375 26.945312 C 5.734375 27.070312 5.636719 27.214844 5.570312 27.378906 C 5.5 27.542969 5.46875 27.714844 5.46875 27.890625 L 5.46875 43.699219 C 5.46875 43.789062 5.5 43.871094 5.566406 43.933594 C 5.628906 44 5.710938 44.03125 5.800781 44.03125 L 43.699219 44.03125 C 43.789062 44.03125 43.871094 44 43.933594 43.933594 C 44 43.871094 44.03125 43.789062 44.03125 43.699219 L 44.03125 27.875 C 44.03125 27.695312 44 27.527344 43.929688 27.363281 C 43.863281 27.199219 43.765625 27.054688 43.640625 26.929688 C 43.515625 26.804688 43.371094 26.707031 43.207031 26.640625 C 43.042969 26.570312 42.871094 26.539062 42.695312 26.539062 Z M 19.027344 17.351562 L 30.472656 17.351562 L 30.472656 19.070312 L 19.027344 19.070312 Z M 6.136719 27.875 C 6.136719 27.691406 6.199219 27.53125 6.332031 27.402344 C 6.460938 27.269531 6.621094 27.207031 6.804688 27.207031 L 16.0625 27.207031 L 16.0625 43.363281 L 6.136719 43.363281 Z M 16.730469 19.738281 L 32.769531 19.738281 L 32.769531 43.363281 L 28.347656 43.363281 L 28.347656 39.65625 L 30.316406 39.65625 C 30.410156 39.65625 30.488281 39.621094 30.554688 39.554688 C 30.617188 39.492188 30.652344 39.414062 30.652344 39.320312 C 30.652344 39.226562 30.617188 39.148438 30.554688 39.085938 C 30.488281 39.019531 30.410156 38.984375 30.316406 38.984375 L 19.183594 38.984375 C 19.089844 38.984375 19.011719 39.019531 18.945312 39.085938 C 18.878906 39.148438 18.847656 39.226562 18.847656 39.320312 C 18.847656 39.414062 18.878906 39.492188 18.945312 39.554688 C 19.011719 39.621094 19.089844 39.65625 19.183594 39.65625 L 21.1875 39.65625 L 21.1875 43.363281 L 16.730469 43.363281 Z M 21.863281 39.65625 L 24.414062 39.65625 L 24.414062 43.363281 L 21.863281 43.363281 Z M 25.085938 43.363281 L 25.085938 39.65625 L 27.679688 39.65625 L 27.679688 43.363281 Z M 43.363281 43.363281 L 33.4375 43.363281 L 33.4375 27.207031 L 42.695312 27.207031 C 42.878906 27.207031 43.039062 27.269531 43.167969 27.402344 C 43.296875 27.53125 43.363281 27.691406 43.363281 27.875 Z M 43.363281 43.363281 " fill-opacity="1" fill-rule="nonzero"/></g><path fill="#ff3939" d="M 20.300781 25.753906 L 23.773438 25.753906 C 23.867188 25.753906 23.945312 25.71875 24.011719 25.65625 C 24.074219 25.589844 24.109375 25.511719 24.109375 25.417969 L 24.109375 21.9375 C 24.109375 21.84375 24.074219 21.765625 24.011719 21.699219 C 23.945312 21.632812 23.867188 21.601562 23.773438 21.601562 L 20.300781 21.601562 C 20.210938 21.601562 20.128906 21.632812 20.066406 21.699219 C 20 21.765625 19.96875 21.84375 19.96875 21.9375 L 19.96875 25.417969 C 19.96875 25.511719 20 25.589844 20.066406 25.65625 C 20.128906 25.71875 20.210938 25.753906 20.300781 25.753906 Z M 20.636719 22.28125 L 23.441406 22.28125 L 23.441406 25.085938 L 20.636719 25.085938 Z M 20.636719 22.28125 " fill-opacity="1" fill-rule="nonzero"/><path fill="#ff3939" d="M 20.300781 31.410156 L 23.773438 31.410156 C 23.867188 31.410156 23.945312 31.378906 24.011719 31.3125 C 24.074219 31.246094 24.109375 31.167969 24.109375 31.074219 L 24.109375 27.605469 C 24.109375 27.511719 24.074219 27.433594 24.011719 27.367188 C 23.945312 27.300781 23.867188 27.269531 23.773438 27.269531 L 20.300781 27.269531 C 20.210938 27.269531 20.128906 27.300781 20.066406 27.367188 C 20 27.433594 19.96875 27.511719 19.96875 27.605469 L 19.96875 31.074219 C 19.96875 31.167969 20 31.246094 20.066406 31.3125 C 20.128906 31.378906 20.210938 31.410156 20.300781 31.410156 Z M 20.636719 27.9375 L 23.441406 27.9375 L 23.441406 30.742188 L 20.636719 30.742188 Z M 20.636719 27.9375 " fill-opacity="1" fill-rule="nonzero"/><path fill="#ff3939" d="M 20.300781 37.078125 L 23.773438 37.078125 C 23.867188 37.078125 23.945312 37.046875 24.011719 36.980469 C 24.074219 36.914062 24.109375 36.835938 24.109375 36.742188 L 24.109375 33.273438 C 24.109375 33.179688 24.074219 33.101562 24.011719 33.035156 C 23.945312 32.96875 23.867188 32.9375 23.773438 32.9375 L 20.300781 32.9375 C 20.210938 32.9375 20.128906 32.96875 20.066406 33.035156 C 20 33.101562 19.96875 33.179688 19.96875 33.273438 L 19.96875 36.742188 C 19.96875 36.835938 20 36.914062 20.066406 36.980469 C 20.128906 37.046875 20.210938 37.078125 20.300781 37.078125 Z M 20.636719 33.605469 L 23.441406 33.605469 L 23.441406 36.410156 L 20.636719 36.410156 Z M 20.636719 33.605469 " fill-opacity="1" fill-rule="nonzero"/><path fill="#ff3939" d="M 25.726562 25.753906 L 29.199219 25.753906 C 29.289062 25.753906 29.367188 25.71875 29.433594 25.65625 C 29.5 25.589844 29.53125 25.511719 29.53125 25.417969 L 29.53125 21.9375 C 29.53125 21.84375 29.5 21.765625 29.433594 21.699219 C 29.367188 21.632812 29.289062 21.601562 29.199219 21.601562 L 25.726562 21.601562 C 25.632812 21.601562 25.554688 21.632812 25.488281 21.699219 C 25.425781 21.765625 25.390625 21.84375 25.390625 21.9375 L 25.390625 25.417969 C 25.390625 25.511719 25.425781 25.589844 25.488281 25.65625 C 25.554688 25.71875 25.632812 25.753906 25.726562 25.753906 Z M 26.058594 22.28125 L 28.863281 22.28125 L 28.863281 25.085938 L 26.058594 25.085938 Z M 26.058594 22.28125 " fill-opacity="1" fill-rule="nonzero"/><path fill="#ff3939" d="M 25.726562 31.410156 L 29.199219 31.410156 C 29.289062 31.410156 29.367188 31.378906 29.433594 31.3125 C 29.5 31.246094 29.53125 31.167969 29.53125 31.074219 L 29.53125 27.605469 C 29.53125 27.511719 29.5 27.433594 29.433594 27.367188 C 29.367188 27.300781 29.289062 27.269531 29.199219 27.269531 L 25.726562 27.269531 C 25.632812 27.269531 25.554688 27.300781 25.488281 27.367188 C 25.425781 27.433594 25.390625 27.511719 25.390625 27.605469 L 25.390625 31.074219 C 25.390625 31.167969 25.425781 31.246094 25.488281 31.3125 C 25.554688 31.378906 25.632812 31.410156 25.726562 31.410156 Z M 26.058594 27.9375 L 28.863281 27.9375 L 28.863281 30.742188 L 26.058594 30.742188 Z M 26.058594 27.9375 " fill-opacity="1" fill-rule="nonzero"/><path fill="#ff3939" d="M 25.726562 37.078125 L 29.199219 37.078125 C 29.289062 37.078125 29.367188 37.046875 29.433594 36.980469 C 29.5 36.914062 29.53125 36.835938 29.53125 36.742188 L 29.53125 33.273438 C 29.53125 33.179688 29.5 33.101562 29.433594 33.035156 C 29.367188 32.96875 29.289062 32.9375 29.199219 32.9375 L 25.726562 32.9375 C 25.632812 32.9375 25.554688 32.96875 25.488281 33.035156 C 25.425781 33.101562 25.390625 33.179688 25.390625 33.273438 L 25.390625 36.742188 C 25.390625 36.835938 25.425781 36.914062 25.488281 36.980469 C 25.554688 37.046875 25.632812 37.078125 25.726562 37.078125 Z M 26.058594 33.605469 L 28.863281 33.605469 L 28.863281 36.410156 L 26.058594 36.410156 Z M 26.058594 33.605469 " fill-opacity="1" fill-rule="nonzero"/><path fill="#ff3939" d="M 10.246094 29.007812 L 7.660156 29.007812 C 7.566406 29.007812 7.488281 29.039062 7.421875 29.105469 C 7.359375 29.171875 7.324219 29.25 7.324219 29.339844 L 7.324219 31.925781 C 7.324219 32.015625 7.359375 32.097656 7.421875 32.160156 C 7.488281 32.226562 7.566406 32.257812 7.660156 32.257812 L 10.246094 32.257812 C 10.339844 32.257812 10.417969 32.226562 10.484375 32.160156 C 10.546875 32.097656 10.582031 32.015625 10.582031 31.925781 L 10.582031 29.339844 C 10.582031 29.25 10.546875 29.171875 10.484375 29.105469 C 10.417969 29.039062 10.339844 29.007812 10.246094 29.007812 Z M 9.910156 31.589844 L 7.992188 31.589844 L 7.992188 29.675781 L 9.910156 29.675781 Z M 9.910156 31.589844 " fill-opacity="1" fill-rule="nonzero"/><path fill="#ff3939" d="M 14.535156 29.007812 L 11.953125 29.007812 C 11.863281 29.007812 11.78125 29.039062 11.71875 29.105469 C 11.652344 29.171875 11.621094 29.25 11.621094 29.339844 L 11.621094 31.925781 C 11.621094 32.015625 11.652344 32.097656 11.71875 32.160156 C 11.78125 32.226562 11.863281 32.257812 11.953125 32.257812 L 14.535156 32.257812 C 14.628906 32.257812 14.707031 32.226562 14.773438 32.160156 C 14.839844 32.097656 14.871094 32.015625 14.871094 31.925781 L 14.871094 29.339844 C 14.871094 29.25 14.839844 29.171875 14.773438 29.105469 C 14.707031 29.039062 14.628906 29.007812 14.535156 29.007812 Z M 14.203125 31.589844 L 12.289062 31.589844 L 12.289062 29.675781 L 14.203125 29.675781 Z M 14.203125 31.589844 " fill-opacity="1" fill-rule="nonzero"/><path fill="#ff3939" d="M 10.246094 33.660156 L 7.660156 33.660156 C 7.566406 33.660156 7.488281 33.691406 7.421875 33.757812 C 7.359375 33.824219 7.324219 33.902344 7.324219 33.992188 L 7.324219 36.578125 C 7.324219 36.667969 7.359375 36.746094 7.421875 36.8125 C 7.488281 36.878906 7.566406 36.910156 7.660156 36.910156 L 10.246094 36.910156 C 10.339844 36.910156 10.417969 36.878906 10.484375 36.8125 C 10.546875 36.746094 10.582031 36.667969 10.582031 36.578125 L 10.582031 33.992188 C 10.582031 33.902344 10.546875 33.824219 10.484375 33.757812 C 10.417969 33.691406 10.339844 33.660156 10.246094 33.660156 Z M 9.910156 36.242188 L 7.992188 36.242188 L 7.992188 34.328125 L 9.910156 34.328125 Z M 9.910156 36.242188 " fill-opacity="1" fill-rule="nonzero"/><path fill="#ff3939" d="M 14.535156 33.660156 L 11.953125 33.660156 C 11.863281 33.660156 11.78125 33.691406 11.71875 33.757812 C 11.652344 33.824219 11.621094 33.902344 11.621094 33.992188 L 11.621094 36.578125 C 11.621094 36.667969 11.652344 36.746094 11.71875 36.8125 C 11.78125 36.878906 11.863281 36.910156 11.953125 36.910156 L 14.535156 36.910156 C 14.628906 36.910156 14.707031 36.878906 14.773438 36.8125 C 14.839844 36.746094 14.871094 36.667969 14.871094 36.578125 L 14.871094 33.992188 C 14.871094 33.902344 14.839844 33.824219 14.773438 33.757812 C 14.707031 33.691406 14.628906 33.660156 14.535156 33.660156 Z M 14.203125 36.242188 L 12.289062 36.242188 L 12.289062 34.328125 L 14.203125 34.328125 Z M 14.203125 36.242188 " fill-opacity="1" fill-rule="nonzero"/><path fill="#ff3939" d="M 10.246094 38.308594 L 7.660156 38.308594 C 7.566406 38.308594 7.488281 38.339844 7.421875 38.40625 C 7.359375 38.472656 7.324219 38.550781 7.324219 38.640625 L 7.324219 41.226562 C 7.324219 41.320312 7.359375 41.398438 7.421875 41.464844 C 7.488281 41.53125 7.566406 41.5625 7.660156 41.5625 L 10.246094 41.5625 C 10.339844 41.5625 10.417969 41.53125 10.484375 41.464844 C 10.546875 41.398438 10.582031 41.320312 10.582031 41.226562 L 10.582031 38.640625 C 10.582031 38.550781 10.546875 38.472656 10.484375 38.40625 C 10.417969 38.339844 10.339844 38.308594 10.246094 38.308594 Z M 9.910156 40.894531 L 7.992188 40.894531 L 7.992188 38.976562 L 9.910156 38.976562 Z M 9.910156 40.894531 " fill-opacity="1" fill-rule="nonzero"/><path fill="#ff3939" d="M 14.535156 38.308594 L 11.953125 38.308594 C 11.863281 38.308594 11.78125 38.339844 11.71875 38.40625 C 11.652344 38.472656 11.621094 38.550781 11.621094 38.640625 L 11.621094 41.226562 C 11.621094 41.320312 11.652344 41.398438 11.71875 41.464844 C 11.78125 41.53125 11.863281 41.5625 11.953125 41.5625 L 14.535156 41.5625 C 14.628906 41.5625 14.707031 41.53125 14.773438 41.464844 C 14.839844 41.398438 14.871094 41.320312 14.871094 41.226562 L 14.871094 38.640625 C 14.871094 38.550781 14.839844 38.472656 14.773438 38.40625 C 14.707031 38.339844 14.628906 38.308594 14.535156 38.308594 Z M 14.203125 40.894531 L 12.289062 40.894531 L 12.289062 38.976562 L 14.203125 38.976562 Z M 14.203125 40.894531 " fill-opacity="1" fill-rule="nonzero"/><path fill="#ff3939" d="M 37.546875 29.007812 L 34.960938 29.007812 C 34.871094 29.007812 34.792969 29.039062 34.726562 29.105469 C 34.660156 29.171875 34.628906 29.25 34.628906 29.339844 L 34.628906 31.925781 C 34.628906 32.015625 34.660156 32.097656 34.726562 32.160156 C 34.792969 32.226562 34.871094 32.257812 34.960938 32.257812 L 37.546875 32.257812 C 37.636719 32.257812 37.71875 32.226562 37.78125 32.160156 C 37.847656 32.097656 37.878906 32.015625 37.878906 31.925781 L 37.878906 29.339844 C 37.878906 29.25 37.847656 29.171875 37.78125 29.105469 C 37.71875 29.039062 37.636719 29.007812 37.546875 29.007812 Z M 37.210938 31.589844 L 35.296875 31.589844 L 35.296875 29.675781 L 37.210938 29.675781 Z M 37.210938 31.589844 " fill-opacity="1" fill-rule="nonzero"/><path fill="#ff3939" d="M 41.839844 29.007812 L 39.253906 29.007812 C 39.160156 29.007812 39.082031 29.039062 39.015625 29.105469 C 38.953125 29.171875 38.917969 29.25 38.917969 29.339844 L 38.917969 31.925781 C 38.917969 32.015625 38.953125 32.097656 39.015625 32.160156 C 39.082031 32.226562 39.160156 32.257812 39.253906 32.257812 L 41.839844 32.257812 C 41.933594 32.257812 42.011719 32.226562 42.078125 32.160156 C 42.140625 32.097656 42.175781 32.015625 42.175781 31.925781 L 42.175781 29.339844 C 42.175781 29.25 42.140625 29.171875 42.078125 29.105469 C 42.011719 29.039062 41.933594 29.007812 41.839844 29.007812 Z M 41.507812 31.589844 L 39.585938 31.589844 L 39.585938 29.675781 L 41.507812 29.675781 Z M 41.507812 31.589844 " fill-opacity="1" fill-rule="nonzero"/><path fill="#ff3939" d="M 37.546875 33.660156 L 34.960938 33.660156 C 34.871094 33.660156 34.792969 33.691406 34.726562 33.757812 C 34.660156 33.824219 34.628906 33.902344 34.628906 33.992188 L 34.628906 36.578125 C 34.628906 36.667969 34.660156 36.746094 34.726562 36.8125 C 34.792969 36.878906 34.871094 36.910156 34.960938 36.910156 L 37.546875 36.910156 C 37.636719 36.910156 37.71875 36.878906 37.78125 36.8125 C 37.847656 36.746094 37.878906 36.667969 37.878906 36.578125 L 37.878906 33.992188 C 37.878906 33.902344 37.847656 33.824219 37.78125 33.757812 C 37.71875 33.691406 37.636719 33.660156 37.546875 33.660156 Z M 37.210938 36.242188 L 35.296875 36.242188 L 35.296875 34.328125 L 37.210938 34.328125 Z M 37.210938 36.242188 " fill-opacity="1" fill-rule="nonzero"/><path fill="#ff3939" d="M 41.839844 33.660156 L 39.253906 33.660156 C 39.160156 33.660156 39.082031 33.691406 39.015625 33.757812 C 38.953125 33.824219 38.917969 33.902344 38.917969 33.992188 L 38.917969 36.578125 C 38.917969 36.667969 38.953125 36.746094 39.015625 36.8125 C 39.082031 36.878906 39.160156 36.910156 39.253906 36.910156 L 41.839844 36.910156 C 41.933594 36.910156 42.011719 36.878906 42.078125 36.8125 C 42.140625 36.746094 42.175781 36.667969 42.175781 36.578125 L 42.175781 33.992188 C 42.175781 33.902344 42.140625 33.824219 42.078125 33.757812 C 42.011719 33.691406 41.933594 33.660156 41.839844 33.660156 Z M 41.507812 36.242188 L 39.585938 36.242188 L 39.585938 34.328125 L 41.507812 34.328125 Z M 41.507812 36.242188 " fill-opacity="1" fill-rule="nonzero"/><path fill="#ff3939" d="M 37.546875 38.308594 L 34.960938 38.308594 C 34.871094 38.308594 34.792969 38.339844 34.726562 38.40625 C 34.660156 38.472656 34.628906 38.550781 34.628906 38.640625 L 34.628906 41.226562 C 34.628906 41.320312 34.660156 41.398438 34.726562 41.464844 C 34.792969 41.53125 34.871094 41.5625 34.960938 41.5625 L 37.546875 41.5625 C 37.636719 41.5625 37.71875 41.53125 37.78125 41.464844 C 37.847656 41.398438 37.878906 41.320312 37.878906 41.226562 L 37.878906 38.640625 C 37.878906 38.550781 37.847656 38.472656 37.78125 38.40625 C 37.71875 38.339844 37.636719 38.308594 37.546875 38.308594 Z M 37.210938 40.894531 L 35.296875 40.894531 L 35.296875 38.976562 L 37.210938 38.976562 Z M 37.210938 40.894531 " fill-opacity="1" fill-rule="nonzero"/><path fill="#ff3939" d="M 41.839844 38.308594 L 39.253906 38.308594 C 39.160156 38.308594 39.082031 38.339844 39.015625 38.40625 C 38.953125 38.472656 38.917969 38.550781 38.917969 38.640625 L 38.917969 41.226562 C 38.917969 41.320312 38.953125 41.398438 39.015625 41.464844 C 39.082031 41.53125 39.160156 41.5625 39.253906 41.5625 L 41.839844 41.5625 C 41.933594 41.5625 42.011719 41.53125 42.078125 41.464844 C 42.140625 41.398438 42.175781 41.320312 42.175781 41.226562 L 42.175781 38.640625 C 42.175781 38.550781 42.140625 38.472656 42.078125 38.40625 C 42.011719 38.339844 41.933594 38.308594 41.839844 38.308594 Z M 41.507812 40.894531 L 39.585938 40.894531 L 39.585938 38.976562 L 41.507812 38.976562 Z M 41.507812 40.894531 " fill-opacity="1" fill-rule="nonzero"/></svg>