<svg width="14" height="14" viewBox="0 0 14 14" fill="none" xmlns="http://www.w3.org/2000/svg">
<path d="M1.44993 13.5C1.09485 13.4051 0.803051 13.2434 0.563988 13.0008C0.089379 12.5227 -0.10398 11.816 0.0542228 11.148C0.17727 10.6348 0.0471914 10.7789 3.68938 7.12969L7.0468 3.76523L4.70891 3.75469C2.40969 3.74414 2.37102 3.74063 2.1425 3.66328C1.36907 3.40313 0.845238 2.68945 0.845238 1.89141C0.845238 1.07578 1.29524 0.421875 2.06516 0.1125L2.30422 0.0175781L7.81672 0.00703125L13.3327 0L13.4523 0.119531L13.5718 0.239063V5.68477C13.5718 11.6859 13.5859 11.3168 13.3538 11.7527C13.1288 12.1746 12.7597 12.484 12.2921 12.6492C11.9616 12.7652 11.487 12.7688 11.1425 12.6598C10.5519 12.4734 10.0562 11.9531 9.89797 11.352C9.85579 11.1973 9.84524 10.7402 9.84524 8.8418V6.52148L6.49836 9.86836L3.14797 13.2117L2.84914 13.3523C2.37102 13.5809 1.93157 13.6266 1.44993 13.5ZM2.49407 12.7055C2.66282 12.6246 3.21125 12.0938 6.36477 8.94375C8.74133 6.5707 10.0702 5.26992 10.13 5.25586C10.2495 5.22773 10.4605 5.31563 10.5202 5.42109C10.5554 5.48438 10.5695 6.06797 10.5835 8.33203L10.6011 11.1621L10.6995 11.3625C10.8823 11.7387 11.2128 11.9566 11.6382 11.9813C11.8527 11.9918 11.9406 11.9813 12.1093 11.918C12.3589 11.823 12.605 11.5945 12.7281 11.3379L12.8159 11.1621L12.8265 5.94844L12.8335 0.738281L7.64094 0.745313L2.44485 0.755859L2.27961 0.833203C2.05813 0.935156 1.80852 1.1707 1.69602 1.38867C1.61516 1.53984 1.6011 1.61016 1.6011 1.86328C1.6011 2.11992 1.61516 2.19023 1.69954 2.3625C1.805 2.58047 1.99133 2.7668 2.22336 2.88984L2.37454 2.9707L5.22219 2.98828C7.44407 3.00234 8.08743 3.01641 8.14719 3.05156C8.30188 3.13945 8.37219 3.37148 8.29485 3.52617C8.27375 3.56836 6.60735 5.25586 4.58938 7.27734C0.465551 11.4152 0.757348 11.0813 0.760863 11.6367C0.760863 11.8617 0.781957 11.9777 0.838207 12.1008C0.922582 12.2871 1.14758 12.5508 1.31985 12.6563C1.63625 12.8531 2.1425 12.8742 2.49407 12.7055Z" fill="white"/>
</svg>
