<svg width="37" height="51" viewBox="0 0 37 51" fill="none" xmlns="http://www.w3.org/2000/svg">
<path d="M1.90351 0.835938C1.25898 1.13672 0.968937 1.4375 0.678898 2.08203C0.270694 2.98438 0.464054 4.24121 1.13007 4.97168C1.54901 5.42285 2.36542 5.73438 3.16034 5.73438H3.86933L3.94452 6.66895C4.34198 12.1367 5.79218 16.6807 8.30585 20.4189C8.93964 21.3643 9.57343 22.127 11.217 23.9639C11.9152 24.7373 12.4846 25.4248 12.4846 25.5C12.4846 25.5645 11.8293 26.3486 11.0236 27.251C10.218 28.1533 9.26191 29.292 8.88593 29.7754C6.04999 33.5566 4.37421 38.4551 3.94452 44.3203C3.88007 45.1797 3.84784 45.2656 3.65448 45.2656C2.79511 45.2656 1.68866 46.1035 1.44159 46.9414C1.28046 47.5107 1.28046 48.1768 1.44159 48.7461C1.61347 49.3262 2.40839 50.1211 2.98847 50.293C3.32148 50.3896 5.73847 50.4219 12.8498 50.4219H22.2707L22.5285 50.1533C22.883 49.8096 22.883 49.3154 22.5285 48.9717L22.2707 48.7031H12.882H3.49335L3.26776 48.4561C2.9455 48.1123 2.95624 47.5215 3.27851 47.2207L3.52558 46.9844H18.5109H33.507L33.7326 47.2314C34.0549 47.5752 34.0441 48.166 33.7219 48.4668C33.4748 48.7031 33.4318 48.7031 29.2531 48.7031H25.0422L24.7844 48.9717C24.4299 49.3154 24.4299 49.8096 24.7844 50.1533L25.0422 50.4219H29.3068C32.3469 50.4219 33.6896 50.3896 34.0119 50.293C34.592 50.1211 35.3869 49.3262 35.5588 48.7461C35.7199 48.1768 35.7199 47.5107 35.5588 46.9414C35.3117 46.1035 34.2053 45.2656 33.3459 45.2656C33.1525 45.2656 33.1203 45.1797 33.0666 44.4277C32.6047 38.7021 31.2297 34.3516 28.6945 30.5811C28.0607 29.6357 27.4269 28.873 25.7834 27.0361C25.0851 26.2627 24.5158 25.5645 24.5158 25.5C24.5158 25.4355 25.0851 24.7373 25.7834 23.9639C27.4269 22.127 28.0607 21.3643 28.6945 20.4189C31.2297 16.6484 32.6047 12.2979 33.0666 6.56152L33.131 5.73438H33.84C34.635 5.73438 35.4514 5.42285 35.8703 4.97168C36.5363 4.24121 36.7297 2.98438 36.3215 2.08203C36.0314 1.4375 35.7414 1.13672 35.0969 0.835938L34.5598 0.578125H23.7853H13.0109L12.7531 0.84668C12.5812 1.00781 12.4846 1.2334 12.4846 1.4375C12.4846 1.6416 12.5812 1.86719 12.7531 2.02832L13.0109 2.29688H23.6564H34.3019L34.5598 2.56543C34.9142 2.90918 34.9142 3.40332 34.5598 3.74707L34.3019 4.01562H18.5002H2.69843L2.44062 3.74707C2.26874 3.58594 2.17206 3.36035 2.17206 3.15625C2.17206 2.95215 2.26874 2.72656 2.44062 2.56543L2.69843 2.29688H5.17987H7.66132L7.91913 2.02832C8.09101 1.86719 8.18769 1.6416 8.18769 1.4375C8.18769 1.2334 8.09101 1.00781 7.91913 0.84668L7.66132 0.578125H5.05097C2.5373 0.578125 2.41913 0.588867 1.90351 0.835938ZM31.3371 6.72266C31.1115 9.93457 30.3488 13.168 29.1672 15.9287C28.1252 18.3779 27.1154 19.8711 24.4621 22.8682C22.6789 24.8877 22.4748 25.167 22.4748 25.5C22.4748 25.833 22.6252 26.0479 23.6135 27.165C26.5139 30.4199 27.1047 31.1826 28.1574 32.998C29.8117 35.8447 31.0471 40.2275 31.3371 44.2666L31.4123 45.2656H18.5002H5.58808L5.66327 44.2666C6.02851 39.207 7.57538 34.5771 10.0998 31.0322C10.3898 30.6133 11.507 29.292 12.5812 28.0781C14.3107 26.1123 14.5256 25.833 14.5256 25.5C14.5256 25.167 14.3107 24.8877 12.5812 22.9219C11.507 21.708 10.3898 20.376 10.0998 19.9678C7.57538 16.4229 6.02851 11.793 5.66327 6.72266L5.58808 5.73438H18.5002H31.4123L31.3371 6.72266Z" fill="#FB7F28"/>
<path d="M9.31543 7.72174C9.04688 7.97955 9.04688 8.01178 9.04688 9.79498C9.04688 11.9004 9.21875 13.1251 9.70215 14.3174C11.5928 19.0547 16.7383 21.4395 21.583 19.8067C23.957 19.0118 26.1162 17.0352 27.1475 14.6934C27.7383 13.3506 27.8672 12.6202 27.9209 10.2247L27.9746 8.00103L27.7061 7.73248L27.4268 7.45318H18.5H9.57324L9.31543 7.72174ZM26.2129 10.751C26.1592 12.0508 26.1055 12.4913 25.8799 13.168C25.4717 14.4356 24.9023 15.3487 23.9355 16.3262C22.9688 17.293 22.0557 17.8624 20.7773 18.2813C20.0576 18.5176 19.7676 18.5606 18.5 18.5606C17.2324 18.5606 16.9424 18.5176 16.2227 18.2813C14.9443 17.8624 14.0312 17.293 13.0645 16.3262C12.0977 15.3487 11.5283 14.4356 11.1201 13.168C10.8945 12.4913 10.8408 12.0508 10.7871 10.751L10.7334 9.17193H18.5H26.2666L26.2129 10.751Z" fill="#FB7F28"/>
<path d="M17.9092 22.3311C17.6514 22.5781 17.6406 22.6641 17.6406 23.7812C17.6406 24.8984 17.6514 24.9844 17.9092 25.2314C18.0703 25.4033 18.2959 25.5 18.5 25.5C18.7041 25.5 18.9297 25.4033 19.0908 25.2314C19.3486 24.9844 19.3594 24.8984 19.3594 23.7812C19.3594 22.6641 19.3486 22.5781 19.0908 22.3311C18.9297 22.1592 18.7041 22.0625 18.5 22.0625C18.2959 22.0625 18.0703 22.1592 17.9092 22.3311Z" fill="#FB7F28"/>
<path d="M17.9092 28.3467C17.6514 28.5938 17.6406 28.6797 17.6406 29.7969C17.6406 30.9141 17.6514 31 17.9092 31.2471C18.0703 31.4189 18.2959 31.5156 18.5 31.5156C18.7041 31.5156 18.9297 31.4189 19.0908 31.2471C19.3486 31 19.3594 30.9141 19.3594 29.7969C19.3594 28.6797 19.3486 28.5938 19.0908 28.3467C18.9297 28.1748 18.7041 28.0781 18.5 28.0781C18.2959 28.0781 18.0703 28.1748 17.9092 28.3467Z" fill="#FB7F28"/>
<path d="M14.6113 34.2656C13.2363 34.5879 11.8184 35.6191 11.1201 36.79C10.7549 37.4023 9.04688 42.3223 9.04688 42.7627C9.04688 42.9023 9.16504 43.1387 9.31543 43.2783L9.57324 43.5469H18.5H27.4268L27.6846 43.2783C27.835 43.1387 27.9531 42.9023 27.9531 42.7627C27.9531 42.376 26.2666 37.4346 25.9443 36.8867C25.2031 35.6299 23.7959 34.5986 22.3564 34.2549C21.4111 34.04 15.5244 34.04 14.6113 34.2656ZM22.6357 36.167C23.3125 36.4785 24.0537 37.1338 24.4189 37.7139C24.5371 37.9072 24.9238 38.9063 25.2676 39.9482L25.9014 41.8281H18.5H11.0986L11.7217 39.9697C12.0654 38.9492 12.4092 37.9932 12.4844 37.8535C12.7207 37.4023 13.5908 36.5537 14.042 36.3174C14.9766 35.8447 15.1699 35.8232 18.6611 35.8447L21.9912 35.8662L22.6357 36.167Z" fill="#FB7F28"/>
<path d="M9.31577 0.84668C8.77866 1.37305 9.15464 2.29688 9.90659 2.29688C10.347 2.29688 10.766 1.87793 10.766 1.4375C10.766 0.99707 10.347 0.578125 9.90659 0.578125C9.70249 0.578125 9.47691 0.674805 9.31577 0.84668Z" fill="#FB7F28"/>
</svg>
