<svg width="7" height="13" viewBox="0 0 7 13" fill="none" xmlns="http://www.w3.org/2000/svg">
<path d="M4.60526 0.0239134C3.84737 0.138278 3.31579 0.387339 2.87895 0.83209C2.51053 1.20822 2.28158 1.64789 2.15263 2.2248C2.10263 2.44336 2.09737 2.57552 2.08684 3.60226L2.07632 4.74082H1.03684H0V5.89717V7.05353L1.03421 7.05861L2.06579 7.06623L2.07368 10.0321L2.07895 13.0005H3.31579H4.55263V10.027V7.05353H5.57895C6.14474 7.05353 6.60526 7.05099 6.60526 7.0459C6.67632 6.58336 6.91053 4.77386 6.90263 4.75861C6.89737 4.74844 6.36579 4.74082 5.72105 4.74082H4.55L4.55789 3.79286C4.56579 2.86778 4.56842 2.84491 4.62895 2.6975C4.75263 2.40016 5.01053 2.22226 5.4 2.17397C5.50526 2.16126 5.9079 2.14855 6.29737 2.14855H7L6.99474 1.11165L6.98684 0.0772829L6.64474 0.0467863C6.08421 -0.00150108 4.86842 -0.0167503 4.60526 0.0239134Z" fill="white"/>
</svg>
