<svg width="66" height="83" viewBox="0 0 66 83" fill="none" xmlns="http://www.w3.org/2000/svg">
<path d="M9.64629 1.37447V2.74895H8.2718H6.89732V4.12344V5.49792H8.2718H9.64629V9.62138V13.7448H8.2718H6.89732V15.1193V16.4938H8.2718H9.64629V22.679V28.8641H8.2718H6.89732V54.2921V79.72H3.46111H0.0249023V81.0945V82.469H33.0125H66.0001V81.0945V79.72H62.5639H59.1277V54.2921V28.8641H57.7532H56.3787V27.4897V26.1152H57.7532H59.1277V24.7407V23.3662H57.7532H56.3787V19.93V16.4938H57.7532H59.1277V15.1193V13.7448H57.7532H56.3787V10.9959V8.24689H55.0042H53.6297V10.9959V13.7448H48.1318H42.6339V10.9959V8.24689H41.2594H39.8849V10.9959V13.7448H33.6997H27.5146V9.62138V5.49792H28.8891H30.2635V4.12344V2.74895H28.8891H27.5146V1.37447V-7.62939e-06H26.1401H24.7656V1.37447V2.74895H18.5804H12.3953V1.37447V-7.62939e-06H11.0208H9.64629V1.37447ZM24.7656 9.62138V13.7448H18.5804H12.3953V9.62138V5.49792H18.5804H24.7656V9.62138ZM24.7656 18.5555V20.6172H21.3294H17.8932V24.7407V28.8641H15.1442H12.3953V22.679V16.4938H18.5804H24.7656V18.5555ZM39.8849 19.93V23.3662H37.136H34.387V21.9917V20.6172H30.9508H27.5146V18.5555V16.4938H33.6997H39.8849V19.93ZM53.6297 19.93V23.3662H48.1318H42.6339V19.93V16.4938H48.1318H53.6297V19.93ZM31.638 32.9876V42.609H39.8849H48.1318V37.111V31.6131H52.2553H56.3787V55.6666V79.72H49.5063H42.6339V73.5349V67.3497H33.0125H23.3911V73.5349V79.72H16.5187H9.64629V55.6666V31.6131H15.1442H20.6422V27.4897V23.3662H26.1401H31.638V32.9876ZM39.8849 32.9876V39.86H37.136H34.387V32.9876V26.1152H37.136H39.8849V32.9876ZM53.6297 27.4897V28.8641H49.5063H45.3829V34.3621V39.86H44.0084H42.6339V32.9876V26.1152H48.1318H53.6297V27.4897ZM31.638 74.9093V79.72H28.8891H26.1401V74.9093V70.0986H28.8891H31.638V74.9093ZM39.8849 74.9093V79.72H37.136H34.387V74.9093V70.0986H37.136H39.8849V74.9093Z" fill="#EE0D09"/>
<path d="M12.395 38.4857V42.6091H16.5185H20.6419V38.4857V34.3622H16.5185H12.395V38.4857ZM17.893 38.4857V39.8602H16.5185H15.144V38.4857V37.1112H16.5185H17.893V38.4857Z" fill="#EE0D09"/>
<path d="M12.395 49.4815V53.605H16.5185H20.6419V49.4815V45.3581H16.5185H12.395V49.4815ZM17.893 49.4815V50.856H16.5185H15.144V49.4815V48.107H16.5185H17.893V49.4815Z" fill="#EE0D09"/>
<path d="M23.3911 49.4815V53.605H27.5146H31.638V49.4815V45.3581H27.5146H23.3911V49.4815ZM28.889 49.4815V50.856H27.5146H26.1401V49.4815V48.107H27.5146H28.889V49.4815Z" fill="#EE0D09"/>
<path d="M34.3867 49.4815V53.605H38.5102H42.6336V49.4815V45.3581H38.5102H34.3867V49.4815ZM39.8847 49.4815V50.856H38.5102H37.1357V49.4815V48.107H38.5102H39.8847V49.4815Z" fill="#EE0D09"/>
<path d="M45.3828 49.4815V53.605H49.5063H53.6297V49.4815V45.3581H49.5063H45.3828V49.4815ZM50.8807 49.4815V50.856H49.5063H48.1318V49.4815V48.107H49.5063H50.8807V49.4815Z" fill="#EE0D09"/>
<path d="M12.395 60.4774V64.6008H16.5185H20.6419V60.4774V56.3539H16.5185H12.395V60.4774ZM17.893 60.4774V61.8519H16.5185H15.144V60.4774V59.1029H16.5185H17.893V60.4774Z" fill="#EE0D09"/>
<path d="M23.3911 60.4774V64.6008H27.5146H31.638V60.4774V56.3539H27.5146H23.3911V60.4774ZM28.889 60.4774V61.8519H27.5146H26.1401V60.4774V59.1029H27.5146H28.889V60.4774Z" fill="#EE0D09"/>
<path d="M34.3867 60.4774V64.6008H38.5102H42.6336V60.4774V56.3539H38.5102H34.3867V60.4774ZM39.8847 60.4774V61.8519H38.5102H37.1357V60.4774V59.1029H38.5102H39.8847V60.4774Z" fill="#EE0D09"/>
<path d="M45.3828 60.4774V64.6008H49.5063H53.6297V60.4774V56.3539H49.5063H45.3828V60.4774ZM50.8807 60.4774V61.8519H49.5063H48.1318V60.4774V59.1029H49.5063H50.8807V60.4774Z" fill="#EE0D09"/>
</svg>
