<svg xmlns="http://www.w3.org/2000/svg" xmlns:xlink="http://www.w3.org/1999/xlink" width="67" zoomAndPan="magnify" viewBox="0 0 50.25 50.249998" height="67" preserveAspectRatio="xMidYMid meet" version="1.0"><defs><clipPath id="4d9f2cce03"><path d="M 5.753906 9.484375 L 43.441406 9.484375 L 43.441406 39.78125 L 5.753906 39.78125 Z M 5.753906 9.484375 " clip-rule="nonzero"/></clipPath></defs><g clip-path="url(#4d9f2cce03)"><path fill="#FB7F28" d="M 41.117188 27.058594 L 41.117188 25.59375 L 42.53125 25.59375 C 42.6875 25.59375 42.820312 25.722656 42.820312 25.878906 L 42.820312 26.773438 C 42.820312 26.929688 42.6875 27.058594 42.53125 27.058594 Z M 39.621094 30.160156 L 26.21875 30.160156 C 25.902344 30.160156 25.644531 29.902344 25.644531 29.589844 C 25.644531 29.273438 25.902344 29.015625 26.21875 29.015625 L 39.621094 29.015625 C 39.9375 29.015625 40.195312 29.273438 40.195312 29.589844 C 40.195312 29.902344 39.9375 30.160156 39.621094 30.160156 Z M 34.445312 35.070312 L 32.992188 35.070312 L 32.992188 31.082031 L 34.445312 31.082031 Z M 28.796875 27.34375 L 28.796875 18.722656 C 28.796875 15.871094 31.351562 13.546875 34.496094 13.546875 C 37.636719 13.546875 40.195312 15.871094 40.195312 18.722656 L 40.195312 27.34375 C 40.195312 27.75 39.902344 28.09375 39.558594 28.09375 L 29.433594 28.09375 C 29.089844 28.09375 28.796875 27.75 28.796875 27.34375 Z M 27.875 18.722656 L 27.875 21.664062 L 14.140625 21.664062 C 13.664062 21.664062 13.277344 21.183594 13.277344 20.597656 L 13.277344 11.472656 C 13.277344 10.886719 13.664062 10.40625 14.140625 10.40625 L 31.207031 10.40625 C 31.679688 10.40625 32.070312 10.886719 32.070312 11.472656 L 32.070312 13.050781 C 29.613281 13.945312 27.875 16.152344 27.875 18.722656 Z M 17.464844 25.59375 L 27.875 25.59375 L 27.875 27.058594 L 17.464844 27.058594 Z M 23.941406 22.585938 L 27.875 22.585938 L 27.875 24.671875 L 23.941406 24.671875 Z M 22.324219 22.585938 L 23.019531 22.585938 L 23.019531 24.671875 L 22.324219 24.671875 Z M 39.121094 37.339844 C 39.121094 37.566406 38.9375 37.75 38.714844 37.75 C 38.488281 37.75 38.304688 37.566406 38.304688 37.339844 C 38.304688 37.113281 38.488281 36.929688 38.714844 36.929688 C 38.9375 36.929688 39.121094 37.113281 39.121094 37.339844 Z M 33.71875 39.101562 C 33.492188 39.101562 33.308594 38.917969 33.308594 38.695312 C 33.308594 38.46875 33.492188 38.285156 33.71875 38.285156 C 33.945312 38.285156 34.128906 38.46875 34.128906 38.695312 C 34.128906 38.917969 33.945312 39.101562 33.71875 39.101562 Z M 28.539062 37.75 C 28.3125 37.75 28.128906 37.566406 28.128906 37.339844 C 28.128906 37.113281 28.3125 36.929688 28.539062 36.929688 C 28.761719 36.929688 28.949219 37.113281 28.949219 37.339844 C 28.949219 37.566406 28.761719 37.75 28.539062 37.75 Z M 16.542969 27.058594 L 6.976562 27.058594 C 6.820312 27.058594 6.691406 26.929688 6.691406 26.773438 L 6.691406 25.878906 C 6.691406 25.722656 6.820312 25.59375 6.976562 25.59375 L 16.542969 25.59375 Z M 42.53125 24.671875 L 41.117188 24.671875 L 41.117188 18.722656 C 41.117188 15.363281 38.148438 12.625 34.496094 12.625 C 33.976562 12.625 33.476562 12.683594 32.992188 12.785156 L 32.992188 11.472656 C 32.992188 10.378906 32.191406 9.484375 31.207031 9.484375 L 14.140625 9.484375 C 13.15625 9.484375 12.355469 10.378906 12.355469 11.472656 L 12.355469 20.597656 C 12.355469 21.695312 13.15625 22.585938 14.140625 22.585938 L 21.402344 22.585938 L 21.402344 24.671875 L 6.976562 24.671875 C 6.308594 24.671875 5.765625 25.210938 5.765625 25.878906 L 5.765625 26.773438 C 5.765625 27.117188 5.910156 27.425781 6.140625 27.644531 L 6.140625 39.136719 C 6.140625 39.390625 6.347656 39.597656 6.601562 39.597656 C 6.855469 39.597656 7.0625 39.390625 7.0625 39.136719 L 7.0625 27.980469 L 16.542969 27.980469 L 16.542969 38.761719 C 16.542969 39.015625 16.75 39.222656 17.003906 39.222656 C 17.257812 39.222656 17.464844 39.015625 17.464844 38.761719 L 17.464844 27.980469 L 27.992188 27.980469 C 28.007812 28.019531 28.023438 28.054688 28.042969 28.09375 L 26.21875 28.09375 C 25.394531 28.09375 24.722656 28.765625 24.722656 29.589844 C 24.722656 30.414062 25.394531 31.082031 26.21875 31.082031 L 32.070312 31.082031 L 32.070312 34.660156 L 28.683594 36.019531 C 28.636719 36.011719 28.585938 36.007812 28.539062 36.007812 C 27.804688 36.007812 27.207031 36.605469 27.207031 37.339844 C 27.207031 38.074219 27.804688 38.671875 28.539062 38.671875 C 29.273438 38.671875 29.871094 38.074219 29.871094 37.339844 C 29.871094 37.074219 29.789062 36.828125 29.65625 36.621094 L 32.085938 35.648438 C 32.136719 35.84375 32.316406 35.992188 32.53125 35.992188 L 33.257812 35.992188 L 33.257812 37.445312 C 32.75 37.632812 32.386719 38.121094 32.386719 38.695312 C 32.386719 39.429688 32.984375 40.027344 33.71875 40.027344 C 34.453125 40.027344 35.050781 39.429688 35.050781 38.695312 C 35.050781 38.121094 34.6875 37.632812 34.179688 37.445312 L 34.179688 35.992188 L 34.90625 35.992188 C 35.121094 35.992188 35.296875 35.84375 35.351562 35.648438 L 37.632812 36.5625 C 37.476562 36.78125 37.382812 37.050781 37.382812 37.339844 C 37.382812 38.074219 37.980469 38.671875 38.714844 38.671875 C 39.445312 38.671875 40.042969 38.074219 40.042969 37.339844 C 40.042969 36.613281 39.457031 36.019531 38.730469 36.011719 L 35.367188 34.660156 L 35.367188 31.082031 L 39.621094 31.082031 C 40.445312 31.082031 41.117188 30.414062 41.117188 29.589844 C 41.117188 29.167969 40.941406 28.789062 40.664062 28.519531 C 40.804688 28.367188 40.917969 28.183594 41 27.980469 L 42.445312 27.980469 L 42.445312 39.136719 C 42.445312 39.390625 42.652344 39.597656 42.90625 39.597656 C 43.160156 39.597656 43.367188 39.390625 43.367188 39.136719 L 43.367188 27.644531 C 43.597656 27.425781 43.742188 27.117188 43.742188 26.773438 L 43.742188 25.878906 C 43.742188 25.210938 43.199219 24.671875 42.53125 24.671875 " fill-opacity="1" fill-rule="nonzero"/></g></svg>