<svg width="1586" height="381" viewBox="0 0 1586 381" fill="none" xmlns="http://www.w3.org/2000/svg">
<path d="M0.570134 376L7.47013 3.39997H58.5301L124.31 305.62L190.55 3.39997H241.15L248.05 376H206.19L202.05 105.52L139.03 376H109.59L47.0301 105.52L42.8901 376H0.570134ZM295.962 376V3.39997H440.402V42.04H347.942V165.32H422.922V202.12H347.942V338.74H441.322V376H295.962ZM473.166 376L480.066 3.39997H531.126L596.906 305.62L663.146 3.39997H713.746L720.646 376H678.786L674.646 105.52L611.626 376H582.186L519.626 105.52L515.486 376H473.166ZM768.558 376V3.39997H854.118C870.985 3.39997 885.551 5.23998 897.818 8.91998C910.391 12.6 920.818 18.2733 929.098 25.94C937.378 33.6066 943.511 43.42 947.498 55.38C951.485 67.0333 953.478 80.8333 953.478 96.78C953.478 112.113 951.485 125.453 947.498 136.8C943.818 147.84 937.991 156.58 930.018 163.02C922.351 169.46 912.385 173.6 900.118 175.44C915.145 178.813 927.258 184.64 936.458 192.92C945.658 200.893 952.405 211.32 956.698 224.2C961.298 236.773 963.598 251.953 963.598 269.74C963.598 285.687 961.758 300.253 958.078 313.44C954.398 326.627 948.571 337.82 940.598 347.02C932.931 356.22 922.965 363.427 910.698 368.64C898.738 373.547 884.478 376 867.918 376H768.558ZM820.538 338.74H855.498C878.805 338.74 894.291 333.373 901.958 322.64C909.931 311.6 913.918 293.967 913.918 269.74C913.918 254.1 911.771 241.067 907.478 230.64C903.491 219.907 896.898 211.933 887.698 206.72C878.805 201.2 866.691 198.44 851.358 198.44H820.538V338.74ZM820.538 158.88H851.358C866.078 158.88 877.578 156.887 885.858 152.9C894.138 148.607 899.965 141.86 903.338 132.66C906.711 123.46 908.398 111.5 908.398 96.78C908.398 79.6066 905.791 67.1866 900.578 59.52C895.365 51.8533 887.238 47.1 876.198 45.26C865.158 43.1133 850.745 42.04 832.958 42.04H820.538V158.88ZM1000.59 376V3.39997H1145.03V42.04H1052.57V165.32H1127.55V202.12H1052.57V338.74H1145.95V376H1000.59ZM1178.71 376V3.39997H1253.69C1278.53 3.39997 1299.08 6.77331 1315.33 13.52C1331.59 19.96 1343.55 30.54 1351.21 45.26C1359.19 59.6733 1363.17 78.6866 1363.17 102.3C1363.17 116.713 1361.64 129.9 1358.57 141.86C1355.51 153.513 1350.6 163.48 1343.85 171.76C1337.11 179.733 1328.21 185.56 1317.17 189.24L1370.07 376H1319.93L1271.17 201.2H1230.69V376H1178.71ZM1230.69 163.94H1250.47C1265.19 163.94 1277.15 162.1 1286.35 158.42C1295.55 154.74 1302.3 148.453 1306.59 139.56C1310.89 130.667 1313.03 118.247 1313.03 102.3C1313.03 80.5267 1309.05 64.8867 1301.07 55.38C1293.1 45.5667 1277.31 40.66 1253.69 40.66H1230.69V163.94ZM1495.91 380.14C1474.44 380.14 1456.5 375.54 1442.09 366.34C1427.98 357.14 1417.25 344.413 1409.89 328.16C1402.53 311.907 1398.23 293.047 1397.01 271.58L1443.01 259.16C1443.93 272.347 1445.92 285.073 1448.99 297.34C1452.36 309.607 1457.73 319.727 1465.09 327.7C1472.45 335.367 1482.72 339.2 1495.91 339.2C1509.4 339.2 1519.52 335.52 1526.27 328.16C1533.32 320.493 1536.85 309.607 1536.85 295.5C1536.85 278.633 1533.01 265.14 1525.35 255.02C1517.68 244.593 1508.02 234.167 1496.37 223.74L1433.81 168.54C1421.54 157.807 1412.49 146.153 1406.67 133.58C1400.84 120.7 1397.93 104.907 1397.93 86.2C1397.93 58.9066 1405.75 37.7467 1421.39 22.72C1437.03 7.69332 1458.34 0.179986 1485.33 0.179986C1500.05 0.179986 1512.93 2.17332 1523.97 6.15999C1535.31 9.83998 1544.67 15.6666 1552.03 23.64C1559.69 31.6133 1565.67 41.7333 1569.97 54C1574.57 65.96 1577.63 80.0667 1579.17 96.32L1535.01 108.28C1534.09 96.0133 1532.25 84.82 1529.49 74.7C1526.73 64.2733 1521.82 55.9933 1514.77 49.86C1508.02 43.42 1498.21 40.2 1485.33 40.2C1472.45 40.2 1462.33 43.7267 1454.97 50.78C1447.91 57.5266 1444.39 67.6466 1444.39 81.14C1444.39 92.4867 1446.23 101.84 1449.91 109.2C1453.89 116.56 1460.18 124.073 1468.77 131.74L1531.79 186.94C1545.89 199.207 1558.31 213.927 1569.05 231.1C1579.78 247.967 1585.15 268.053 1585.15 291.36C1585.15 309.76 1581.31 325.707 1573.65 339.2C1565.98 352.387 1555.4 362.507 1541.91 369.56C1528.72 376.613 1513.39 380.14 1495.91 380.14Z" fill="url(#paint0_linear_1207_349)"/>
<defs>
<linearGradient id="paint0_linear_1207_349" x1="784.5" y1="7" x2="784.5" y2="330" gradientUnits="userSpaceOnUse">
<stop offset="0.157597" stop-color="#1E1E1E"/>
<stop offset="0.937708" stop-color="#1E1E1E" stop-opacity="0"/>
</linearGradient>
</defs>
</svg>
