<svg width="27" height="19" viewBox="0 0 27 19" fill="none" xmlns="http://www.w3.org/2000/svg">
<path d="M1.00508 0.074629C0.512006 0.241321 0.160556 0.619156 0.0451547 1.11367C0.0084361 1.28592 -0.00730045 3.8252 0.00319059 9.63718L0.0189271 17.9162L0.176293 18.2163C0.265467 18.3829 0.428078 18.5885 0.538234 18.6774C0.989348 19.0219 0.113346 18.9997 13.4212 18.9997C26.7291 18.9997 25.8531 19.0219 26.3042 18.6774C26.4144 18.5885 26.5822 18.3829 26.6662 18.2163L26.8235 17.9162V9.49827V1.08034L26.6662 0.780291C26.5822 0.613599 26.4144 0.408013 26.3042 0.31911C25.8531 -0.0253861 26.7344 -0.00316056 13.4002 0.00239584C3.53867 0.00239584 1.18343 0.019065 1.00508 0.074629ZM24.8565 1.18591C24.8145 1.2248 22.3648 3.1751 19.4169 5.51434C15.8237 8.37033 13.993 9.78721 13.8566 9.8261C13.5996 9.90389 13.2429 9.90389 12.9858 9.8261C12.8495 9.78721 11.0188 8.37033 7.4256 5.51434C4.47762 3.1751 2.02796 1.2248 1.986 1.18591C1.92305 1.11923 3.63309 1.10812 13.4212 1.10812C23.2094 1.10812 24.9194 1.11923 24.8565 1.18591ZM6.70696 6.30335C9.74936 8.72038 12.3407 10.7429 12.4665 10.7929C12.5924 10.8485 12.8547 10.9207 13.054 10.9541C13.4947 11.0318 14.035 10.9541 14.4441 10.754C14.5857 10.6818 17.198 8.64259 20.2404 6.22556L25.7744 1.82489L25.7902 5.63102C25.7954 7.72578 25.7954 11.1541 25.7902 13.2433L25.7744 17.0494L22.8632 13.2433C21.2633 11.1485 19.9152 9.40937 19.868 9.38159C19.7263 9.3038 19.4641 9.32047 19.3224 9.42049C19.1756 9.52606 19.0759 9.79276 19.1179 9.98168C19.1388 10.0595 20.4817 11.8653 22.1078 13.9934L25.0663 17.8606L19.2438 17.8773C16.0387 17.8829 10.8037 17.8829 7.5987 17.8773L1.77618 17.8606L4.73465 13.9934C6.36076 11.8653 7.70361 10.0595 7.72459 9.98168C7.76656 9.79276 7.66689 9.52606 7.52002 9.42049C7.38888 9.33158 7.14759 9.3038 6.99547 9.36492C6.9535 9.38715 5.61065 11.1041 4.02126 13.1877C2.43187 15.2658 1.11 16.9939 1.08901 17.0216C1.06279 17.055 1.0418 13.7767 1.0418 9.44827C1.0418 3.36401 1.05754 1.83045 1.11 1.86379C1.14147 1.89157 3.66456 3.88632 6.70696 6.30335Z" fill="white"/>
</svg>
