<svg width="44" height="46" viewBox="0 0 44 46" fill="none" xmlns="http://www.w3.org/2000/svg">
<path d="M33.1586 0.0898438C33.0418 0.143749 32.898 0.30547 32.8352 0.46719C32.7453 0.691799 32.6375 3.86328 32.377 13.207C32.1434 21.7063 32.0086 25.6863 31.9367 25.7582C31.8469 25.848 29.7445 27.043 29.6727 27.043C29.6547 27.043 29.6367 25.5426 29.6367 23.7188V20.3855L29.4121 20.1699C29.2863 20.0352 29.0887 19.9453 28.9359 19.9453C28.7652 19.9453 26.5551 21.1223 22.3055 23.4852L15.9355 27.025L15.8906 23.7008L15.8457 20.3766L15.5941 20.1609C15.4594 20.0441 15.2348 19.9453 15.109 19.9453C14.8215 19.9453 1.0125 27.591 0.733984 27.9055L0.527344 28.1301V36.8V45.4789L0.787891 45.7395L1.04844 46H22H42.9516L43.2121 45.7395L43.4727 45.4789V32.9727V20.4664L43.2121 20.2059C43.0504 20.0531 42.8527 19.9453 42.709 19.9453C42.5742 19.9453 41.9633 20.2238 41.3523 20.5652C40.7414 20.9066 40.2383 21.1852 40.2293 21.1762C40.2293 21.1672 40.0945 16.5223 39.9238 10.8621C39.6992 3.00977 39.6004 0.521095 39.5105 0.377346C39.4477 0.278515 39.2949 0.152737 39.1871 0.0988274C38.9176 -0.0269508 33.4551 -0.0269508 33.1586 0.0898438ZM38.118 1.67109C38.1449 1.75195 38.1719 2.09336 38.1719 2.43476V3.05469H36.1953H34.2188V2.29102V1.52734H36.1414C37.8125 1.52734 38.073 1.54531 38.118 1.67109ZM38.2078 4.86953C38.2887 5.42656 38.7109 22.0566 38.6391 22.0836C38.6031 22.0926 37.4621 22.7215 36.1055 23.4852C33.8953 24.716 33.6348 24.8418 33.6078 24.6711C33.5988 24.5633 33.7066 20.2598 33.8594 15.0938C34.0031 9.92773 34.1289 5.45352 34.1289 5.13906V4.58203H36.1504H38.1629L38.2078 4.86953ZM14.6238 28.9387C14.7406 29.0285 14.9473 29.1094 15.091 29.1094C15.2617 29.1094 17.4988 27.9145 21.7035 25.5785L28.0645 22.0387L28.1094 25.3449L28.1543 28.6422L28.3699 28.8758C28.5137 29.0285 28.6844 29.1094 28.8641 29.1094C29.0617 29.1094 30.8227 28.175 34.8926 25.9109C38.0551 24.159 40.9391 22.5598 41.2984 22.3621L41.9453 22.0027V33.2332V44.4727H35.4316H28.927L28.9 42.002C28.873 39.5762 28.873 39.5312 28.6664 39.3336L28.4598 39.127H22H15.5402L15.3336 39.3336C15.127 39.5312 15.127 39.5762 15.1 42.002L15.073 44.4727H8.55937H2.05469L2.07266 36.6383L2.09961 28.8039L8.20898 25.4078L14.3184 22.0117L14.3633 25.3898L14.4082 28.768L14.6238 28.9387ZM21.1914 42.541V44.4727H18.9004H16.6094V42.541V40.6094H18.9004H21.1914V42.541ZM27.3906 42.541V44.4727H25.0996H22.8086V42.541V40.6094H25.0996H27.3906V42.541Z" fill="#FB7F28"/>
<path d="M4.92969 30.6996C4.85781 30.7266 4.70508 30.8344 4.59727 30.9332C4.39961 31.1129 4.39062 31.1668 4.39062 32.9367C4.39062 34.7336 4.39062 34.7605 4.60625 35.0121L4.82187 35.2637L7.9125 35.2906C9.60156 35.3086 11.1289 35.2906 11.2996 35.2637C11.4613 35.2277 11.6949 35.1109 11.8117 34.9941C12.0273 34.7785 12.0273 34.7516 12.0273 32.9816C12.0273 31.2117 12.0273 31.1848 11.8117 30.9332L11.5961 30.6816L8.32578 30.6637C6.53789 30.6547 5.00156 30.6727 4.92969 30.6996ZM10.5 32.9277V33.6914H8.20898H5.91797V32.9277V32.1641H8.20898H10.5V32.9277Z" fill="#FB7F28"/>
<path d="M18.6219 30.7624C18.2086 30.9421 18.1367 31.2655 18.1367 32.9726C18.1367 34.6077 18.1996 34.9491 18.559 35.1378C18.9004 35.3265 25.0996 35.3265 25.441 35.1378C25.8004 34.9491 25.8633 34.6077 25.8633 32.9726C25.8633 31.2386 25.8004 30.9421 25.3602 30.7624C24.9289 30.5827 19.0352 30.5827 18.6219 30.7624ZM24.318 32.9456L24.3449 33.6913H22H19.6641V32.9905C19.6641 32.6042 19.691 32.2538 19.727 32.2179C19.7629 32.1909 20.7961 32.1729 22.0359 32.1819L24.291 32.2089L24.318 32.9456Z" fill="#FB7F28"/>
<path d="M32.5387 30.6996C32.4219 30.7176 32.2512 30.8434 32.1523 30.9691C31.9816 31.1848 31.9727 31.3285 31.9727 32.9906C31.9727 34.7516 31.9727 34.7785 32.1883 34.9941C32.3051 35.1109 32.5387 35.2277 32.7004 35.2637C32.8711 35.2906 34.3984 35.3086 36.0875 35.2906L39.1781 35.2637L39.3937 35.0121C39.6094 34.7605 39.6094 34.7336 39.6094 32.9367V31.1129L39.3758 30.8973L39.1422 30.6816L35.9437 30.6726C34.1828 30.6637 32.6465 30.6726 32.5387 30.6996ZM38.082 32.9277V33.6914H35.791H33.5V32.9277V32.1641H35.791H38.082V32.9277Z" fill="#FB7F28"/>
</svg>
