<svg width="66" height="66" viewBox="0 0 66 66" fill="none" xmlns="http://www.w3.org/2000/svg">
<path d="M11.1188 0.431267C10.8797 0.54377 10.6406 0.726578 10.5844 0.867203C10.5422 0.993767 10.5 6.18283 10.5 12.3844V23.6766L9.97969 24.2391C9.44532 24.8016 0.937504 39.3844 0.487504 40.4953C-0.00468394 41.7047 0.346879 43.2516 1.30313 44.1235C1.79532 44.5735 6.84375 47.5125 7.53282 47.7375C8.67188 48.1313 10.3734 47.6953 11.0484 46.8375L11.3156 46.5L13.1578 48.8063L15 51.1125L14.6344 51.9C13.7063 53.9531 14.6906 56.175 16.8563 56.9203L17.5875 57.1594L17.7563 58.0313C17.9672 59.0016 18.3328 59.6766 18.9656 60.211C19.7531 60.8719 20.4984 61.1672 21.4266 61.1813C22.2984 61.1953 22.2984 61.1953 22.5375 61.7297C22.8328 62.3766 23.7891 63.2766 24.5203 63.6C25.1672 63.8813 26.7422 63.9235 27.2344 63.6563C27.5156 63.5016 27.5859 63.5016 27.6281 63.6563C27.7828 64.1063 28.8516 65.0625 29.5266 65.3438C30.4125 65.7375 31.5375 65.7516 32.4094 65.4141C32.9578 65.1891 34.4063 63.7969 34.4063 63.4875C34.4063 63.2625 34.7297 63.4031 36.4172 64.3594C38.625 65.611 39.5109 65.7938 40.8891 65.2313C41.8453 64.8516 42.8297 63.5297 43.0547 62.3485C43.1531 61.8703 43.1953 61.8281 43.8844 61.6875C44.2781 61.6031 44.8547 61.3641 45.1641 61.1531C45.8531 60.6891 46.5984 59.6063 46.7953 58.8047C46.9359 58.2281 46.9641 58.2 47.625 58.1297C48.0047 58.0875 48.5531 57.9188 48.8625 57.7641C49.65 57.3563 50.5359 56.3016 50.7891 55.4578C51.0563 54.5578 51.0563 54.1922 50.775 53.2641L50.5641 52.5328L51.1406 51.9563C52.2234 50.9156 52.6031 49.5094 52.2094 48.1172C52.0688 47.6813 51.9844 47.3016 52.0125 47.2735C52.1531 47.1328 54.1922 46.0781 54.3047 46.0922C54.3891 46.0922 54.6141 46.3313 54.8109 46.6266C55.5281 47.6672 57.2016 48.1735 58.4672 47.7375C59.1703 47.4985 64.2188 44.5735 64.6969 44.1375C65.6531 43.2516 66.0047 41.6906 65.5125 40.4953C65.0625 39.3844 56.5547 24.8016 56.0344 24.2391L55.5 23.6766V12.3703C55.5 5.2547 55.4438 0.965645 55.3594 0.79689C55.2891 0.656265 55.0219 0.473457 54.7828 0.389076C54.4594 0.276581 48.2156 0.23439 32.9438 0.23439C15.3094 0.248451 11.4844 0.276581 11.1188 0.431267ZM53.25 12.8766V23.2547L52.8281 23.3531C52.3922 23.4375 47.3719 26.2781 46.5563 26.8969C45.9094 27.375 45.375 28.5281 45.375 29.4281V30.1594L44.7141 30.3C42.3375 30.8203 39.3141 30.8485 36.9375 30.4125C33.8297 29.8219 32.7328 29.7094 31.6359 29.8641C30.3422 30.0469 28.6125 30.8625 27.5578 31.7906L26.8406 32.4375L23.7609 31.3406L20.6953 30.2578L20.6109 29.3297C20.5125 28.1766 20.0203 27.2625 19.1766 26.7C17.9531 25.8703 13.5797 23.4235 13.1719 23.3531L12.75 23.2547V12.8766V2.48439H33H53.25V12.8766ZM54.4594 25.8844C54.9656 26.3906 63.5156 41.3813 63.5156 41.7328C63.5156 41.9156 63.4172 42.1828 63.3187 42.3094C63.0234 42.7031 57.8063 45.6563 57.4125 45.6563C57.2156 45.6563 56.9063 45.5156 56.7234 45.3328C56.2031 44.8547 47.625 29.8641 47.625 29.4422C47.625 28.8656 48.1031 28.486 50.4375 27.15C53.8969 25.1813 53.8125 25.2094 54.4594 25.8844ZM15.2531 26.9672C17.8969 28.486 18.375 28.8656 18.375 29.4422C18.375 29.8641 9.79688 44.8547 9.27657 45.3328C9.09375 45.5156 8.78438 45.6563 8.5875 45.6563C8.19375 45.6563 2.97657 42.7031 2.68125 42.3094C2.58282 42.1828 2.48438 41.9156 2.48438 41.7328C2.48438 41.3953 10.9922 26.475 11.5266 25.8563C12.0609 25.2797 12.5391 25.4203 15.2531 26.9672ZM35.5313 32.4656C37.6125 32.8594 38.1188 32.9016 40.5234 32.9016C42.7313 32.9156 43.4484 32.8594 44.6719 32.6063C45.4875 32.4375 46.2188 32.2969 46.3031 32.2969C46.4156 32.2969 52.1391 42 53.2078 43.9969C53.25 44.0953 50.2688 45.6563 50.0156 45.6563C49.9313 45.6563 46.8516 43.8985 43.1531 41.761C39.4688 39.6235 36.1359 37.7531 35.7422 37.6125C34.3078 37.1063 32.5219 37.4297 30.1875 38.5828L29.1328 39.1172L28.2047 40.9875C27.6984 42.0141 27.0656 43.0688 26.8125 43.336C26.1516 44.025 24.5906 44.5031 24.3516 44.1094C24.2953 44.025 24.3234 42.5485 24.4078 40.8328L24.5625 37.711L26.5031 35.8406C29.7234 32.7188 30.75 32.0719 32.5781 32.0297C32.9297 32.0156 34.2516 32.2125 35.5313 32.4656ZM22.3688 33.2391L25.0266 34.1813L23.7469 35.4188C23.0297 36.0938 22.425 36.7969 22.3969 36.9656C22.3547 37.1485 22.2563 38.7797 22.1719 40.6078C21.9609 44.925 22.1156 45.5438 23.5219 46.2188C24.4641 46.6828 25.6453 46.5563 27.0375 45.8672C28.3453 45.2344 29.0344 44.4047 30.075 42.2531L30.8063 40.7485L31.9734 40.2422C33.2953 39.6656 34.3078 39.4969 34.9688 39.7219C35.7703 40.0031 49.3688 47.9344 49.7766 48.3422C50.1984 48.8063 50.2547 49.2703 49.9453 49.875C49.6781 50.4094 49.2141 50.7188 48.7078 50.7188C48.4406 50.7188 47.3859 50.1985 45.7547 49.2422C43.0406 47.6672 42.6188 47.5266 42.0422 48.075C41.6766 48.4125 41.6203 49.0875 41.9016 49.4813C42 49.6078 43.4063 50.4797 45.0234 51.4078C47.9906 53.1235 48.75 53.7141 48.75 54.2485C48.75 54.7969 48.3 55.5141 47.8078 55.7531C47.175 56.0485 47.1328 56.0344 43.35 53.8266C41.4797 52.7297 40.0453 51.9844 39.8203 51.9844C39.0609 51.9844 38.5266 52.9688 38.9063 53.6719C38.9766 53.8125 40.2281 54.6141 41.6625 55.4438C43.7438 56.6672 44.3344 57.061 44.5031 57.4125C44.7563 57.975 44.6578 58.4531 44.1234 59.0438C43.4625 59.7891 43.125 59.6906 40.0313 57.8766C37.0641 56.1469 36.6984 56.0344 36.1359 56.6813C35.7563 57.1172 35.7281 57.5531 36.0234 57.9891C36.1359 58.1438 37.1766 58.8328 38.3438 59.5078C39.5109 60.1828 40.5656 60.886 40.6922 61.0688C40.9875 61.5328 40.8469 62.3203 40.3688 62.8406C39.75 63.4735 39.2297 63.3891 37.4297 62.3344L35.8828 61.4485L35.9391 60.5766C35.9672 60.0844 35.9109 59.4094 35.8125 59.0719C35.5734 58.2422 34.6313 57.2016 33.7172 56.7656C33.1828 56.5266 33.0141 56.3719 33.0703 56.2172C33.1266 56.0906 33.1969 55.6969 33.2391 55.3453C33.45 53.6156 31.9875 51.7735 30.0891 51.3656C29.6953 51.2813 29.625 51.1828 29.5406 50.7469C29.1469 48.511 26.7563 47.0203 24.675 47.7235L23.8734 47.9906L23.3813 47.4C22.6781 46.5563 21.6375 46.0781 20.5266 46.0781C19.0359 46.0781 18.2344 46.5844 17.1094 48.2438C16.7578 48.75 16.4344 49.1719 16.3922 49.1719C16.2375 49.1719 12.5953 44.5031 12.6375 44.3344C12.7078 44.0391 19.5281 32.2969 19.6266 32.2969C19.6688 32.2969 20.9063 32.7188 22.3688 33.2391ZM21.5531 48.8063C22.3406 49.5938 22.2703 49.8891 20.4844 52.4203C18.8672 54.7266 18.4875 55.0641 17.7281 54.8813C17.1094 54.7266 16.5469 54.0516 16.5469 53.461C16.5469 53.0391 16.8 52.5891 17.9813 50.9016C18.7547 49.7766 19.5281 48.736 19.6828 48.5953C19.8656 48.4266 20.175 48.3281 20.5266 48.3281C20.9625 48.3281 21.1734 48.4266 21.5531 48.8063ZM26.6297 50.1C27.15 50.4235 27.4172 51.0844 27.2484 51.5766C27.0516 52.1391 22.65 58.3828 22.2 58.7344C21.75 59.1 21.3422 59.086 20.7516 58.6922C20.1469 58.2844 19.8516 57.7641 19.9641 57.3C20.0484 56.9625 24.1266 51.0141 24.7594 50.311C25.3078 49.7063 25.9266 49.636 26.6297 50.1ZM30.5813 54.1641C31.3547 54.9938 31.3969 54.8953 28.3594 59.1985C27.4734 60.4641 26.7281 61.3781 26.4891 61.4906C25.9547 61.7719 25.3781 61.6313 24.8438 61.0969C24.3094 60.5625 24.2813 59.9578 24.7875 59.2125C26.3344 56.9203 28.4438 54.0516 28.7531 53.7985C29.2875 53.3766 29.9766 53.5172 30.5813 54.1641ZM32.6484 58.7344C33.225 58.9594 33.7031 59.5641 33.7031 60.0844C33.7031 60.7031 32.1141 63.0656 31.5234 63.3188C30.9469 63.5578 30.3984 63.4172 29.9063 62.925C29.2453 62.2781 29.3297 61.8 30.3563 60.2813C31.425 58.7063 31.8328 58.425 32.6484 58.7344Z" fill="#FB7F28"/>
<path d="M23.2266 7.29372C23.0719 7.3781 22.3266 8.0531 21.5812 8.78435L20.2031 10.1343L19.5984 9.54372C18.8531 8.81247 18.15 8.7281 17.6859 9.31872C17.1516 9.99372 17.2781 10.3031 18.6422 11.6672C20.3297 13.3547 20.2172 13.3687 22.8469 10.739C25.0687 8.48903 25.1812 8.2781 24.4359 7.53278C24 7.09685 23.6906 7.0406 23.2266 7.29372Z" fill="#FB7F28"/>
<path d="M29.4 9.15C28.6969 9.45938 28.5422 10.3734 29.1047 10.8938L29.4281 11.2031H38.6812H47.9203L48.2578 10.8516C48.7078 10.4156 48.7078 9.92344 48.2719 9.41719L47.9344 9.02344L38.8781 8.99531C31.5094 8.96719 29.7516 8.99531 29.4 9.15Z" fill="#FB7F28"/>
<path d="M23.3531 19.3734C23.2125 19.4297 22.4813 20.0766 21.75 20.8219C21.0188 21.5672 20.3578 22.1719 20.2734 22.1719C20.1891 22.1719 19.8656 21.9187 19.5703 21.6094C19.1625 21.1875 18.9094 21.0469 18.5719 21.0469C17.9953 21.0469 17.5594 21.4125 17.4469 22.0031C17.3625 22.4391 17.4188 22.5375 18.6141 23.7328C19.6125 24.7312 19.95 24.9844 20.2734 24.9844C20.6109 24.9844 21.0469 24.6328 22.7625 22.9031C24.9984 20.6672 25.125 20.4562 24.5625 19.7531C24.2672 19.3594 23.775 19.2047 23.3531 19.3734Z" fill="#FB7F28"/>
<path d="M29.0906 21.3703C28.7813 21.6938 28.6969 22.2141 28.8656 22.6641C29.1047 23.2828 29.2313 23.2969 38.7656 23.2969H47.7938L48.2156 22.875C48.5672 22.5094 48.6234 22.3688 48.5531 21.9891C48.5109 21.7359 48.3281 21.4266 48.1734 21.2859C47.8922 21.0609 47.2313 21.0469 38.6391 21.0469H29.3859L29.0906 21.3703Z" fill="#FB7F28"/>
</svg>
