<svg width="42" height="52" viewBox="0 0 42 52" fill="none" xmlns="http://www.w3.org/2000/svg">
<path d="M10.3796 6.00835C4.75776 9.33268 0.162658 12.0979 0.162658 12.1487C0.162658 12.2097 1.66725 13.2568 3.49715 14.4767L6.84182 16.7031L3.80214 18.5025C2.13489 19.4988 0.599803 20.4138 0.386314 20.5358L0 20.7594L2.36871 22.3352C3.66998 23.1993 5.20507 24.2261 5.77437 24.6226L6.81132 25.3342L3.58865 27.2454C1.81974 28.3027 0.284652 29.2177 0.193157 29.2787C0.0406646 29.3803 0.477809 29.7158 3.365 31.7084C5.21523 32.9791 6.71982 34.0567 6.71982 34.1076C6.71982 34.1482 5.23557 35.0632 3.41583 36.1408C1.59609 37.2286 0.121994 38.1435 0.13216 38.1944C0.152492 38.235 4.77809 41.3662 10.4101 45.1379L20.6576 52L30.9153 45.1277C36.5676 41.3459 41.1831 38.2147 41.1831 38.174C41.1831 38.1334 39.6988 37.2184 37.8791 36.1306C36.0593 35.053 34.5751 34.1381 34.5751 34.0974C34.5751 34.0669 36.0898 32.9893 37.9299 31.7185C40.2274 30.1326 41.2542 29.3702 41.1627 29.3092C41.0916 29.2685 39.5565 28.3535 37.7571 27.2759L34.4836 25.324L37.8994 23.0468L41.3051 20.7696L37.8892 18.7364L34.4632 16.693L37.7977 14.4767C39.6276 13.2466 41.1322 12.2097 41.1322 12.1487C41.1322 12.0674 21.0134 0.101814 20.6983 0.000152588C20.6474 -0.0201797 16.0015 2.68402 10.3796 6.00835ZM29.431 7.0148C34.2193 9.80032 38.1332 12.1182 38.1332 12.1487C38.1332 12.1894 36.9133 13.0332 35.4189 14.0294C33.9143 15.0257 32.3995 16.083 32.0335 16.3677C31.6676 16.6523 28.9634 18.5025 26.0253 20.4646L20.6678 24.0329L15.2492 20.4138C12.2604 18.4314 9.54601 16.5913 9.21053 16.3168C8.87505 16.0525 7.38062 15.0257 5.8862 14.0294C4.38161 13.0332 3.16167 12.1894 3.16167 12.1589C3.16167 12.0877 20.5661 1.90122 20.6576 1.92155C20.6983 1.92155 24.6427 4.2191 29.431 7.0148ZM16.8555 23.4433L20.6474 25.9747L24.7342 23.24C26.9911 21.7354 29.7665 19.8648 30.9153 19.0922L33.0095 17.6791L35.4697 19.2142C36.8218 20.058 37.9807 20.8001 38.0417 20.8611C38.1231 20.9424 35.7543 22.5792 29.4513 26.7778C24.6631 29.97 20.7084 32.5827 20.6474 32.5827C20.5864 32.5827 16.6318 29.97 11.8436 26.7778C5.54055 22.5792 3.17184 20.9424 3.25317 20.8611C3.31416 20.8001 4.4731 20.058 5.8252 19.2142L8.29558 17.6689L10.6846 19.2955C11.9961 20.18 14.7816 22.0505 16.8555 23.4433ZM11.2133 28.3434C12.7992 29.3702 15.544 31.1797 17.313 32.359C19.092 33.5484 20.5864 34.5142 20.6474 34.5142C20.7084 34.5142 22.0707 33.6399 23.677 32.5623C29.6648 28.5569 32.979 26.4626 33.1518 26.5541C33.6194 26.7778 38.1332 29.4921 38.1332 29.543C38.1332 29.5735 36.9743 30.3664 35.5714 31.3119C34.1583 32.2472 30.224 34.9107 26.8285 37.2286L20.6474 41.4374L14.7816 37.4319C11.5487 35.2259 7.61444 32.5623 6.03869 31.5152C4.45277 30.4579 3.16167 29.5735 3.16167 29.543C3.17184 29.482 8.14308 26.5033 8.26508 26.4931C8.30574 26.483 9.62734 27.3166 11.2133 28.3434ZM14.5071 39.2517L20.6474 43.3689L26.798 39.2517C30.1731 36.9744 32.979 35.1242 33.0196 35.1242C33.162 35.1242 38.1332 38.1232 38.1129 38.1944C38.0926 38.235 34.1583 40.9189 29.37 44.1619L20.6576 50.0583L11.9351 44.1619C7.13664 40.9189 3.20234 38.235 3.19217 38.1944C3.16167 38.1232 8.12275 35.1344 8.27524 35.1242C8.32607 35.1242 11.1218 36.9744 14.5071 39.2517Z" fill="#EE0D09"/>
</svg>
