<svg xmlns="http://www.w3.org/2000/svg" xmlns:xlink="http://www.w3.org/1999/xlink" width="67" zoomAndPan="magnify" viewBox="0 0 50.25 50.249998" height="67" preserveAspectRatio="xMidYMid meet" version="1.0"><defs><clipPath id="11f8e7b605"><path d="M 5.285156 5.285156 L 36 5.285156 L 36 19 L 5.285156 19 Z M 5.285156 5.285156 " clip-rule="nonzero"/></clipPath><clipPath id="46e292dd60"><path d="M 5.285156 5.285156 L 44.449219 5.285156 L 44.449219 44.449219 L 5.285156 44.449219 Z M 5.285156 5.285156 " clip-rule="nonzero"/></clipPath></defs><g clip-path="url(#11f8e7b605)"><path fill="#FB7F28" d="M 7.109375 18.058594 L 33.875 18.058594 C 34.117188 18.058594 34.351562 18.011719 34.574219 17.917969 C 34.796875 17.828125 34.996094 17.695312 35.167969 17.523438 C 35.335938 17.351562 35.46875 17.15625 35.5625 16.933594 C 35.65625 16.707031 35.699219 16.476562 35.703125 16.234375 L 35.703125 10.757812 C 35.703125 10.589844 35.640625 10.449219 35.523438 10.328125 C 35.402344 10.210938 35.261719 10.152344 35.09375 10.152344 C 34.925781 10.152344 34.78125 10.210938 34.664062 10.328125 C 34.542969 10.449219 34.484375 10.589844 34.484375 10.757812 L 34.484375 13.496094 L 30.835938 13.496094 L 30.835938 10.757812 C 30.835938 10.589844 30.773438 10.449219 30.65625 10.328125 C 30.539062 10.210938 30.394531 10.152344 30.226562 10.152344 C 30.058594 10.152344 29.914062 10.210938 29.796875 10.328125 C 29.675781 10.449219 29.617188 10.589844 29.617188 10.757812 L 29.617188 13.496094 L 25.96875 13.496094 L 25.96875 10.757812 C 25.96875 10.589844 25.90625 10.449219 25.789062 10.328125 C 25.671875 10.210938 25.527344 10.152344 25.359375 10.152344 C 25.191406 10.152344 25.046875 10.210938 24.929688 10.328125 C 24.808594 10.449219 24.75 10.589844 24.75 10.757812 L 24.75 13.496094 L 21.101562 13.496094 L 21.101562 10.757812 C 21.101562 10.589844 21.042969 10.449219 20.921875 10.328125 C 20.804688 10.210938 20.660156 10.152344 20.492188 10.152344 C 20.324219 10.152344 20.179688 10.210938 20.0625 10.328125 C 19.945312 10.449219 19.882812 10.589844 19.882812 10.757812 L 19.882812 13.496094 L 16.234375 13.496094 L 16.234375 10.757812 C 16.234375 10.589844 16.175781 10.449219 16.054688 10.328125 C 15.9375 10.210938 15.792969 10.152344 15.625 10.152344 C 15.457031 10.152344 15.3125 10.210938 15.195312 10.328125 C 15.078125 10.449219 15.015625 10.589844 15.015625 10.757812 L 15.015625 13.496094 L 11.367188 13.496094 L 11.367188 10.757812 C 11.367188 10.589844 11.308594 10.449219 11.1875 10.328125 C 11.070312 10.210938 10.925781 10.152344 10.757812 10.152344 C 10.589844 10.152344 10.449219 10.210938 10.328125 10.328125 C 10.210938 10.449219 10.152344 10.589844 10.152344 10.757812 L 10.152344 13.496094 L 6.5 13.496094 L 6.5 5.890625 C 6.5 5.722656 6.441406 5.582031 6.320312 5.460938 C 6.203125 5.34375 6.058594 5.285156 5.890625 5.285156 C 5.722656 5.285156 5.582031 5.34375 5.460938 5.460938 C 5.34375 5.582031 5.285156 5.722656 5.285156 5.890625 L 5.285156 16.234375 C 5.285156 16.476562 5.332031 16.707031 5.421875 16.933594 C 5.515625 17.15625 5.648438 17.351562 5.820312 17.523438 C 5.988281 17.695312 6.1875 17.828125 6.410156 17.917969 C 6.632812 18.011719 6.867188 18.058594 7.109375 18.058594 Z M 34.484375 14.714844 L 34.484375 16.234375 C 34.484375 16.402344 34.425781 16.546875 34.304688 16.664062 C 34.1875 16.78125 34.042969 16.84375 33.875 16.84375 L 30.835938 16.84375 L 30.835938 14.714844 Z M 29.617188 14.714844 L 29.617188 16.84375 L 25.96875 16.84375 L 25.96875 14.714844 Z M 24.75 14.714844 L 24.75 16.84375 L 21.101562 16.84375 L 21.101562 14.714844 Z M 19.882812 14.714844 L 19.882812 16.84375 L 16.234375 16.84375 L 16.234375 14.714844 Z M 15.015625 14.714844 L 15.015625 16.84375 L 11.367188 16.84375 L 11.367188 14.714844 Z M 10.152344 14.714844 L 10.152344 16.84375 L 7.109375 16.84375 C 6.941406 16.84375 6.796875 16.78125 6.679688 16.664062 C 6.558594 16.546875 6.5 16.402344 6.5 16.234375 L 6.5 14.714844 Z M 10.152344 14.714844 " fill-opacity="1" fill-rule="nonzero"/></g><g clip-path="url(#46e292dd60)"><path fill="#FB7F28" d="M 43.609375 5.285156 C 43.441406 5.285156 43.296875 5.34375 43.179688 5.460938 C 43.0625 5.582031 43 5.722656 43 5.890625 L 43 23.140625 L 34.882812 23.140625 C 34.714844 23.140625 34.574219 23.199219 34.453125 23.320312 C 34.335938 23.4375 34.277344 23.582031 34.277344 23.75 L 34.277344 28.128906 L 24.953125 28.128906 C 24.785156 28.128906 24.640625 28.1875 24.523438 28.308594 C 24.40625 28.425781 24.34375 28.570312 24.34375 28.738281 L 24.34375 33.144531 L 15.140625 33.144531 C 14.972656 33.144531 14.828125 33.203125 14.707031 33.324219 C 14.589844 33.441406 14.53125 33.585938 14.53125 33.753906 L 14.53125 38.03125 L 6.5 38.03125 C 6.339844 38.03125 6.183594 38.0625 6.035156 38.125 C 5.886719 38.1875 5.753906 38.273438 5.640625 38.390625 C 5.527344 38.503906 5.4375 38.632812 5.375 38.785156 C 5.316406 38.933594 5.285156 39.085938 5.285156 39.25 L 5.285156 43 C 5.285156 43.164062 5.316406 43.316406 5.375 43.46875 C 5.4375 43.617188 5.527344 43.746094 5.640625 43.863281 C 5.753906 43.976562 5.886719 44.0625 6.035156 44.125 C 6.183594 44.1875 6.339844 44.21875 6.5 44.21875 L 43 44.21875 C 43.167969 44.21875 43.3125 44.160156 43.429688 44.039062 C 43.550781 43.921875 43.609375 43.777344 43.609375 43.609375 C 43.609375 43.441406 43.550781 43.296875 43.429688 43.179688 C 43.3125 43.0625 43.167969 43 43 43 L 6.5 43 L 6.5 39.25 L 15.140625 39.25 C 15.308594 39.25 15.449219 39.1875 15.570312 39.070312 C 15.6875 38.953125 15.746094 38.808594 15.746094 38.640625 L 15.746094 34.363281 L 24.953125 34.363281 C 25.121094 34.363281 25.265625 34.300781 25.382812 34.183594 C 25.503906 34.066406 25.5625 33.921875 25.5625 33.753906 L 25.5625 29.347656 L 34.882812 29.347656 C 35.050781 29.347656 35.195312 29.285156 35.3125 29.167969 C 35.433594 29.050781 35.492188 28.90625 35.492188 28.738281 L 35.492188 24.355469 L 43.609375 24.355469 C 43.777344 24.355469 43.921875 24.296875 44.039062 24.179688 C 44.160156 24.058594 44.21875 23.917969 44.21875 23.75 L 44.21875 5.890625 C 44.21875 5.722656 44.160156 5.582031 44.039062 5.460938 C 43.921875 5.34375 43.777344 5.285156 43.609375 5.285156 Z M 43.609375 5.285156 " fill-opacity="1" fill-rule="nonzero"/></g><path fill="#FB7F28" d="M 38.132812 13.191406 L 40.566406 13.191406 C 40.734375 13.191406 40.878906 13.132812 41 13.015625 C 41.117188 12.894531 41.175781 12.75 41.175781 12.582031 C 41.175781 12.414062 41.117188 12.273438 41 12.152344 C 40.878906 12.035156 40.734375 11.976562 40.566406 11.976562 L 38.132812 11.976562 C 37.964844 11.976562 37.824219 12.035156 37.703125 12.152344 C 37.585938 12.273438 37.527344 12.414062 37.527344 12.582031 C 37.527344 12.75 37.585938 12.894531 37.703125 13.015625 C 37.824219 13.132812 37.964844 13.191406 38.132812 13.191406 Z M 38.132812 13.191406 " fill-opacity="1" fill-rule="nonzero"/><path fill="#FB7F28" d="M 38.132812 15.625 L 40.566406 15.625 C 40.734375 15.625 40.878906 15.566406 41 15.449219 C 41.117188 15.328125 41.175781 15.183594 41.175781 15.015625 C 41.175781 14.847656 41.117188 14.707031 41 14.585938 C 40.878906 14.46875 40.734375 14.410156 40.566406 14.410156 L 38.132812 14.410156 C 37.964844 14.410156 37.824219 14.46875 37.703125 14.585938 C 37.585938 14.707031 37.527344 14.847656 37.527344 15.015625 C 37.527344 15.183594 37.585938 15.328125 37.703125 15.449219 C 37.824219 15.566406 37.964844 15.625 38.132812 15.625 Z M 38.132812 15.625 " fill-opacity="1" fill-rule="nonzero"/></svg>