<svg width="52" height="52" viewBox="0 0 52 52" fill="none" xmlns="http://www.w3.org/2000/svg">
<path d="M4.77878 13.7474L26.0034 1.49337L47.228 13.7474V38.2555L26.0034 50.5095L4.77878 38.2555V13.7474Z" stroke="#EE0D09"/>
<path d="M19.1903 14.2067C23.4047 11.7735 28.597 11.7735 32.8113 14.2067C37.0257 16.6398 39.6218 21.1365 39.6218 26.0028C39.6218 30.8691 37.0257 35.3658 32.8113 37.7989C28.597 40.2321 23.4047 40.2321 19.1903 37.7989C14.976 35.3658 12.3798 30.8691 12.3798 26.0028C12.3798 21.1365 14.976 16.6398 19.1903 14.2067Z" stroke="#EE0D09"/>
<path d="M22.1627 22.7832C21.5977 23.4739 21.1388 24.4529 20.9411 25.3803C20.673 26.6303 20.8216 27.5906 21.4113 28.441C21.7487 28.9188 22.1503 29.2775 22.9428 29.8151L23.504 30.1903L23.5179 31.5176C23.548 35.0074 23.5208 39.1289 23.5023 39.8079L23.5101 39.3596L24.4449 39.3596C23.2046 40.1574 24.6524 38.5525 24.4449 39.6055C24.2708 40.4954 23.9587 38.5788 24.4436 39.6027C24.8192 40.3892 24.7921 39.1323 25.4079 39.6025C25.9216 39.9914 25.4079 38.5469 26.6395 39.3594C24.1309 39.1808 24.7458 40.806 24.7566 39.8079L25.3837 39.1808L25.8479 38.9753L27.7625 38.97L25.2992 38.9679C25.3029 40.2986 27.2568 38.5442 28.2145 39.6016C28.4083 39.6859 28.0601 39.9873 28.4894 39.3309C29.2026 38.2324 29.2159 40.1083 29.1448 38.9679C29.1196 38.435 28.5289 40.0565 28.2221 39.6025C27.9255 39.1586 28.772 39.8259 28.0646 39.3594C28.0493 38.7551 28.0043 38.2811 27.9996 35.3786L27.9849 30.0963L28.2221 29.9599C29.0898 29.455 29.801 28.842 30.1694 28.274C30.7542 27.3728 30.8152 26.1335 30.3428 24.7158C29.9902 23.661 29.2438 22.6005 28.383 21.9273C27.9203 21.5688 27.7979 21.5012 27.7201 21.5795C27.6896 21.6102 27.658 22.4454 27.6438 23.4401C27.6364 24.4348 27.6183 25.2632 27.615 25.2802C27.6048 25.2972 26.7426 25.3131 25.697 25.3161L23.7959 25.3214L23.7907 23.4339C23.7869 22.0692 23.765 21.5396 23.7106 21.5126C23.663 21.4924 23.5444 21.5437 23.3851 21.6493C23.1174 21.8368 22.3861 22.5178 22.1627 22.7832Z" fill="#EE0D09"/>
</svg>
