<svg width="37" height="37" viewBox="0 0 37 37" fill="none" xmlns="http://www.w3.org/2000/svg">
<path d="M7.89684 2.12482C6.70468 4.11619 7.19753 6.72694 9.01573 8.02566C10.2079 8.88481 10.2678 8.89147 16.3352 8.89813L21.8231 8.91145L11.5133 19.2346C1.97601 28.7719 1.16348 29.5977 0.863774 30.1105C-0.0086977 31.6091 0.0912032 33.5072 1.12352 34.9258C2.45554 36.7373 4.95307 37.2635 6.8845 36.1313C7.39733 35.8316 8.22318 35.019 17.7604 25.4818L28.0836 15.1719L28.0902 20.6532C28.1036 26.7272 28.1102 26.7872 28.9694 27.9793C30.6544 30.3303 34.3907 30.3237 36.0824 27.966C36.2888 27.6663 36.5686 27.1335 36.6951 26.7805C36.9149 26.1877 36.9349 25.3419 36.9282 14.9322C36.9349 4.60237 36.9149 3.67662 36.7084 3.07055C36.2489 1.75851 35.2365 0.746177 33.9178 0.293291C33.3184 0.0801669 32.3793 0.0601873 22.2493 0.0535274C16.1953 0.0468675 11.0071 0.0934853 10.7207 0.153428C9.60182 0.393192 8.44962 1.19906 7.89684 2.12482ZM10.5942 1.75851C10.9605 1.61865 13.2316 1.58535 22.0562 1.57869C34.2575 1.57869 33.6248 1.53207 34.5172 2.4112C35.4563 3.35028 35.3964 2.5444 35.4097 14.8656C35.423 27.1868 35.4696 26.4874 34.5439 27.4132C34.1576 27.7995 33.9378 27.9527 33.5915 28.0726C32.4193 28.4722 31.3537 28.259 30.5345 27.4532C29.5954 26.5407 29.6354 26.9137 29.6287 18.795L29.6221 11.5022L17.9203 23.1774L6.21183 34.8459L5.71898 35.0324C5.0996 35.2655 4.26708 35.2588 3.63438 35.0257C2.95505 34.7726 2.22243 34.04 1.96935 33.3607C1.73625 32.728 1.72959 31.8954 1.96269 31.2761L2.14917 30.7832L13.791 19.0748L25.4262 7.37297H18.2333C10.2545 7.37297 10.4943 7.39961 9.61514 6.5338C9.34874 6.28072 9.08233 5.93439 9.00241 5.74791C8.32308 4.12285 9.02239 2.37124 10.5942 1.75851Z" fill="#EE0D09"/>
</svg>
