<svg width="37" height="37" viewBox="0 0 37 37" fill="none" xmlns="http://www.w3.org/2000/svg">
<path d="M7.89684 2.12488C6.70468 4.11625 7.19753 6.727 9.01573 8.02572C10.2079 8.88487 10.2678 8.89153 16.3352 8.8982L21.8231 8.91151L11.5133 19.2347C1.97601 28.7719 1.16348 29.5978 0.863774 30.1106C-0.0086977 31.6091 0.0912032 33.5072 1.12352 34.9258C2.45554 36.7374 4.95307 37.2635 6.8845 36.1313C7.39733 35.8316 8.22318 35.0191 17.7604 25.4818L28.0836 15.172L28.0902 20.6533C28.1036 26.7273 28.1102 26.7872 28.9694 27.9794C30.6544 30.3304 34.3907 30.3237 36.0824 27.9661C36.2888 27.6663 36.5686 27.1335 36.6951 26.7806C36.9149 26.1878 36.9349 25.342 36.9282 14.9322C36.9349 4.60244 36.9149 3.67668 36.7084 3.07061C36.2489 1.75857 35.2365 0.746239 33.9178 0.293352C33.3184 0.0802279 32.3793 0.0602483 22.2493 0.0535884C16.1953 0.0469286 11.0071 0.0935464 10.7207 0.153489C9.60182 0.393253 8.44962 1.19912 7.89684 2.12488ZM10.5942 1.75857C10.9605 1.61871 13.2316 1.58541 22.0562 1.57875C34.2575 1.57875 33.6248 1.53213 34.5172 2.41126C35.4563 3.35034 35.3964 2.54447 35.4097 14.8656C35.423 27.1868 35.4696 26.4875 34.5439 27.4133C34.1576 27.7995 33.9378 27.9527 33.5915 28.0726C32.4193 28.4722 31.3537 28.2591 30.5345 27.4532C29.5954 26.5408 29.6354 26.9138 29.6287 18.7951L29.6221 11.5023L17.9203 23.1774L6.21183 34.8459L5.71898 35.0324C5.0996 35.2655 4.26708 35.2589 3.63438 35.0258C2.95505 34.7727 2.22243 34.0401 1.96935 33.3607C1.73625 32.728 1.72959 31.8955 1.96269 31.2761L2.14917 30.7833L13.791 19.0748L25.4262 7.37303H18.2333C10.2545 7.37303 10.4943 7.39967 9.61514 6.53386C9.34874 6.28078 9.08233 5.93445 9.00241 5.74797C8.32308 4.12291 9.02239 2.3713 10.5942 1.75857Z" fill="#D1D1D1"/>
</svg>
