<svg width="18" height="18" viewBox="0 0 18 18" fill="none" xmlns="http://www.w3.org/2000/svg">
<path d="M1.68242 0.0415239C1.09483 0.16819 0.493168 0.639669 0.225762 1.18152C-0.182384 2.0154 -0.0275702 2.99354 0.612797 3.66206C1.45724 4.54168 2.86112 4.54168 3.70204 3.66206C4.34592 2.99003 4.49722 2.01892 4.08556 1.18504C3.89907 0.805038 3.48741 0.393374 3.11797 0.217449C2.65353 -0.00421667 2.16797 -0.0640311 1.68242 0.0415239Z" fill="black"/>
<path d="M12.7177 5.73803C11.6305 5.94562 10.7051 6.53673 10.1351 7.39173L9.96974 7.63802L9.95919 6.80062L9.95215 5.96673H8.15772H6.36328V11.9834V18H8.22809H10.0929V14.8404C10.0929 12.8771 10.107 11.533 10.1316 11.2832C10.2512 9.99893 10.7297 9.28468 11.6305 9.04542C11.9507 8.95746 12.4925 8.93987 12.7951 9.00672C13.3756 9.12987 13.6994 9.37968 13.9456 9.88634C14.2623 10.5478 14.2799 10.78 14.2799 14.7313V18H16.1447H18.0095V14.383C18.0095 12.3141 17.9954 10.5584 17.9743 10.2769C17.8547 8.61968 17.4923 7.56413 16.7816 6.80414C16.303 6.29396 15.6662 5.96322 14.8112 5.78377C14.3503 5.68877 13.1258 5.66414 12.7177 5.73803Z" fill="black"/>
<path d="M0.298067 5.99136C0.283993 6.00192 0.273438 8.71116 0.273438 12.008V18H2.15583H4.03823L4.03119 11.9904L4.02064 5.98433L2.16991 5.97377C1.15306 5.97025 0.308622 5.97729 0.298067 5.99136Z" fill="black"/>
</svg>
