<svg width="49" height="48" viewBox="0 0 49 48" fill="none" xmlns="http://www.w3.org/2000/svg">
<path d="M8.18195 0.0187721C6.76283 0.140949 5.82301 0.488678 5.50348 1.01498C5.25912 1.4097 5.26852 1.98298 5.51287 2.3965C5.62565 2.57507 6.67824 3.67465 7.86241 4.84002C9.03718 6.00539 10.071 7.09557 10.1556 7.27414C10.3717 7.70645 10.4375 8.58048 10.2965 9.03159C10.0146 9.92441 9.35671 10.3755 8.36991 10.3849C7.3925 10.3849 7.11996 10.1876 4.75163 7.80043C3.58626 6.63506 2.47727 5.59187 2.28931 5.48849C1.31191 4.98099 0.456675 5.60127 0.137138 7.03918C-0.0696213 7.9508 -0.0320288 9.89622 0.212323 10.8078C0.860795 13.2138 2.39269 15.1216 4.56366 16.2118C5.51287 16.6911 6.32111 16.926 7.46769 17.067C8.57667 17.1986 9.76083 17.0952 10.8134 16.7663L11.4525 16.5689L12.6461 17.7625L13.8302 18.9466L13.6705 19.5763C13.5671 19.9616 13.5013 20.5725 13.4919 21.1458C13.4731 23.6269 12.7588 24.9051 9.53528 28.185L7.60866 30.1492L7.11056 30.027C6.52787 29.8861 5.92639 29.9519 5.42829 30.2056C4.92079 30.4688 0.945378 34.5006 0.766813 34.9329C0.560054 35.4216 0.57885 36.2768 0.804406 36.7937C1.06755 37.3858 11.2645 47.517 11.8942 47.8083C12.3735 48.0339 13.0784 48.0621 13.6423 47.8835C13.9242 47.7895 14.4975 47.282 16.1516 45.6374C17.3357 44.4626 18.3883 43.3442 18.5011 43.1374C18.7267 42.6957 18.7737 41.6807 18.5763 41.3142C18.4541 41.0887 18.5293 41.0041 21.0198 38.5324C23.5761 35.9855 24.093 35.5719 24.6475 35.5719C24.7885 35.5719 25.3711 35.6377 25.9256 35.7317C27.1568 35.9291 27.8523 35.8351 29.0834 35.337L29.8917 35.0081L30.6717 35.7881L31.4611 36.5775L31.2638 37.1978C31.0194 37.9873 30.8409 39.3218 30.9067 39.8857C31.0288 41.0041 32.2882 40.8819 32.2882 39.7447C32.2976 38.9647 32.4667 38.0155 32.7675 37.1508C33.0024 36.4648 33.0306 36.2862 32.9366 36.117C32.8803 35.9949 30.2958 33.3916 27.1944 30.3184C23.3036 26.4557 21.5743 24.6889 21.6119 24.5855C21.6307 24.5009 21.7623 24.125 21.9032 23.7397C22.0442 23.3544 22.1758 22.8187 22.204 22.5367C22.2322 22.2642 22.2698 22.0386 22.2886 22.0386C22.3074 22.0386 22.6363 22.2454 23.031 22.4991C24.2998 23.3262 25.982 23.8243 27.0628 23.6927L27.5609 23.6269L27.6173 24.0874C27.7771 25.4126 28.8861 26.5779 30.2206 26.8129C30.5213 26.8693 30.6341 26.9351 30.6059 27.029C30.5871 27.1042 30.5777 27.4426 30.5777 27.7903C30.5777 29.3034 31.7055 30.4969 33.2562 30.6473L33.8389 30.7131L34.976 31.8221C35.8407 32.6773 36.1696 32.9405 36.3576 32.9405C36.4891 32.9405 36.9966 32.8089 37.476 32.6397C38.2842 32.3578 38.444 32.339 39.6187 32.3296C41.0848 32.3296 41.7521 32.4894 43.049 33.1566C44.0922 33.6923 45.2576 34.8577 45.7933 35.9009C46.4418 37.1602 46.6203 37.8745 46.6109 39.2372C46.6109 40.2146 46.4794 41.2108 46.3478 41.2108C46.329 41.2108 45.3234 40.224 44.1204 39.0211C41.7239 36.6339 41.4326 36.4178 40.2672 36.2392C39.2428 36.07 38.2654 36.3238 37.3914 36.9629C37.1094 37.1696 36.9027 37.4516 36.6395 37.9779C36.3012 38.6827 36.2824 38.7485 36.2824 39.6601C36.2824 40.5342 36.3012 40.6469 36.6019 41.2578C36.8745 41.8499 37.147 42.1506 39.1206 44.0867L41.3292 46.267L40.9721 46.3892C40.7277 46.4832 40.1638 46.5208 39.2428 46.5208C38.0022 46.5114 37.8143 46.4926 37.1282 46.2576C35.6245 45.7313 34.3746 44.7915 33.5475 43.5322C32.8991 42.5736 32.7675 42.4326 32.4573 42.4326C32.1378 42.4326 31.7243 42.7991 31.7243 43.0905C31.7243 43.5228 32.6735 44.8761 33.5663 45.7313C34.4967 46.6054 35.4929 47.1974 36.7053 47.5828C38.9985 48.3252 42.034 47.9869 42.5791 46.9437C42.7671 46.5866 42.7577 46.0697 42.5697 45.6937C42.4852 45.5246 41.395 44.3592 40.145 43.0905C38.2654 41.192 37.8519 40.7221 37.7579 40.4026C37.3256 38.8895 38.1526 37.6395 39.5999 37.6113C40.6055 37.5925 40.6807 37.6489 43.237 40.177C45.6993 42.6112 45.9625 42.8085 46.5921 42.6769C47.297 42.536 47.7199 41.9063 47.9361 40.6751C48.2932 38.7109 47.9079 36.6809 46.8459 34.8859C46.329 33.9931 44.9569 32.6209 44.064 32.104C42.2502 31.0326 40.2296 30.6567 38.1996 31.0138C37.7579 31.089 37.2128 31.2112 36.9872 31.2958L36.5737 31.4462L35.9159 30.7789L35.2486 30.121L37.288 28.0816C39.6187 25.7321 39.7503 25.5535 39.7503 24.3882C39.7597 23.4577 39.4966 22.8563 38.8105 22.236C38.2748 21.7473 37.6545 21.4747 37.0812 21.4747H36.7335L36.6865 20.7793C36.5925 19.3132 35.5869 18.1384 34.1678 17.847C33.6885 17.7531 33.6509 17.7249 33.6979 17.5181C33.7261 17.3959 33.7449 16.973 33.7355 16.5877C33.7261 15.6949 33.4254 15.0088 32.7581 14.3885C32.1566 13.8246 31.5645 13.5615 30.7563 13.5051C30.2394 13.4675 30.1266 13.4299 30.1736 13.3171C30.2018 13.242 30.1736 12.9224 30.1172 12.6029C29.8353 11.0052 28.5383 9.91502 26.9312 9.91502C25.7659 9.91502 25.3899 10.1218 23.8674 11.6255C23.1438 12.3397 22.5141 12.9224 22.4765 12.9224C22.4389 12.9224 22.251 12.8002 22.063 12.6405C21.875 12.4901 21.5179 12.3209 21.2736 12.274C20.4841 12.0954 19.9202 12.3021 19.1496 13.0446L18.6609 13.5333L17.6177 12.4901L16.5745 11.4469L16.7718 10.8172C18.0594 6.63507 15.7662 2.02998 11.6499 0.526272C10.5879 0.140949 9.17815 -0.0658112 8.18195 0.0187721ZM10.3717 1.60706C10.757 1.69164 11.4337 1.94539 11.9224 2.18974C12.6367 2.53748 12.9374 2.76303 13.6329 3.46789C14.8546 4.69905 15.4467 5.89261 15.6629 7.58427C15.7944 8.59927 15.6723 9.66127 15.3151 10.6951C14.9016 11.8604 14.817 11.6443 16.3207 13.1668L17.6741 14.5201L16.0952 16.099L14.5257 17.6685L13.2193 16.3621C11.7344 14.8772 11.8002 14.9054 10.7006 15.3002C7.18574 16.5689 3.27612 14.8115 1.8664 11.3247C1.58445 10.6105 1.36829 9.51089 1.36829 8.75904C1.36829 8.12937 1.52806 7.11437 1.65024 6.89821C1.71603 6.79483 2.24232 7.27414 3.97158 8.994C6.67824 11.6819 6.77223 11.7477 8.32292 11.7477C9.23454 11.7477 9.35671 11.7289 9.9206 11.4563C10.6912 11.0898 11.0954 10.6857 11.4619 9.91502C11.725 9.36053 11.7532 9.21955 11.7532 8.36432C11.7532 7.49969 11.725 7.37752 11.4431 6.76664C11.1706 6.19335 10.8886 5.86442 8.98079 3.9472C7.78722 2.75363 6.81922 1.74803 6.81922 1.71984C6.81922 1.65405 7.61806 1.47548 8.18195 1.42849C8.73644 1.3721 9.59167 1.44729 10.3717 1.60706ZM28.0214 11.6631C28.7075 12.2082 28.9612 13.2232 28.5947 13.9092C28.5101 14.069 27.918 14.7175 27.279 15.3565C26.2734 16.3527 26.0854 16.5031 25.935 16.4185C25.8317 16.3621 25.2396 15.7983 24.6099 15.1592L23.4539 14.0032L24.6569 12.8096C25.3148 12.1518 25.982 11.5503 26.1324 11.4657C26.3298 11.3623 26.6023 11.3247 27.044 11.3435C27.5797 11.3717 27.7207 11.4187 28.0214 11.6631ZM24.8449 17.3771C26.8654 19.4071 28.5289 21.127 28.5289 21.2022C28.5289 21.2868 28.3692 21.5217 28.1812 21.7285C27.4575 22.5085 26.1136 22.4897 24.4877 21.6909C23.6795 21.2962 23.4727 21.127 22.2698 19.9522C21.1326 18.8433 20.8976 18.6553 20.6439 18.6553C20.3243 18.6553 19.986 18.9278 19.9672 19.191C19.9484 19.5105 19.9954 19.6421 20.3055 20.065C20.7097 20.6383 20.8224 21.0048 20.8224 21.8037C20.8224 22.969 20.3713 24.078 19.4691 25.1212C18.9334 25.7415 18.8582 26.014 19.1026 26.343C19.2342 26.5215 19.3939 26.6061 19.6383 26.6249C19.9484 26.6531 20.033 26.6061 20.3619 26.2584L20.7379 25.8543L24.7885 29.9049L28.8391 33.9555L28.012 34.2186L27.1944 34.4724L25.888 34.3032C24.3092 34.0964 23.8486 34.1622 23.0122 34.7355C22.7115 34.9517 21.3675 36.211 20.0236 37.555L17.5801 39.9891L15.6723 38.1376C14.0276 36.5587 13.7175 36.2956 13.4731 36.2956C13.116 36.2956 12.834 36.6057 12.834 37.0099C12.834 37.2636 13.116 37.5831 15.0332 39.5192C16.3959 40.8819 17.2606 41.8217 17.2981 41.9721C17.3357 42.1224 17.3075 42.3292 17.2136 42.489C17.0068 42.8837 13.3979 46.4456 13.0878 46.5584C12.8904 46.6336 12.7494 46.6242 12.5239 46.5302C12.3547 46.455 10.024 44.19 7.12935 41.286C2.11075 36.2674 2.02616 36.1734 2.02616 35.8069C2.02616 35.4498 2.10135 35.3652 4.07496 33.3916C6.03917 31.418 6.13315 31.3428 6.49028 31.3428C6.83801 31.3428 6.93199 31.418 8.83042 33.307C9.9206 34.3878 10.9074 35.2994 11.0202 35.3276C11.2833 35.4122 11.772 35.1678 11.8472 34.9047C11.8848 34.8013 11.8848 34.6227 11.8566 34.51C11.8284 34.3972 11.086 33.5889 10.2119 32.7149L8.61426 31.1172L10.6067 29.0872C13.9994 25.6381 14.7418 24.3224 14.9016 21.4277C14.9674 20.0462 15.0614 19.6421 15.4185 18.9278C15.6065 18.5613 20.2962 13.7965 20.5875 13.6743C20.6909 13.6273 20.86 13.6179 20.9634 13.6461C21.0668 13.6649 22.8149 15.3471 24.8449 17.3771ZM31.2356 15.037C32.2036 15.4505 32.6359 16.5407 32.2036 17.4805C32.1002 17.6967 31.5175 18.3545 30.8221 19.0406L29.6097 20.2248L28.3504 18.9184L27.091 17.6027L28.2564 16.4279C28.8954 15.7889 29.5721 15.178 29.7507 15.084C30.1548 14.8678 30.7657 14.849 31.2356 15.037ZM33.9329 19.2286C35.0136 19.5293 35.5869 20.6947 35.1546 21.7285C34.976 22.1608 32.3164 24.8675 31.7431 25.2058C30.6059 25.8825 29.1492 25.14 29.0176 23.8337C28.9424 23.0066 29.0834 22.7811 30.7281 21.1176C32.1754 19.6515 32.5043 19.3789 33.04 19.2098C33.3784 19.1064 33.5099 19.1158 33.9329 19.2286ZM37.5417 23.0254C37.9553 23.2322 38.2842 23.6927 38.35 24.1438C38.4628 24.8675 38.2278 25.187 36.179 27.2264C34.1678 29.2094 33.9235 29.3692 33.181 29.2376C32.6923 29.1436 32.1472 28.6173 32.0156 28.1192C31.8183 27.3298 31.931 27.1606 33.961 25.1024C34.9854 24.078 35.9441 23.157 36.0944 23.063C36.4328 22.8469 37.1658 22.8281 37.5417 23.0254Z" fill="#EE0D09"/>
</svg>
