<svg width="139" height="137" viewBox="0 0 139 137" fill="none" xmlns="http://www.w3.org/2000/svg">
<path d="M103.355 0.407227C103.681 0.62442 104.006 1.14024 104.088 1.57462C104.169 1.98184 104.685 7.49297 105.201 13.8457C105.744 20.1984 106.233 25.6553 106.314 26.0082L106.423 26.6055L113.264 26.5512L120.078 26.4697L120.431 25.2752C120.866 23.8092 121.924 22.6689 123.39 22.0988C124.341 21.7459 125.508 21.6916 130.096 21.773C135.607 21.8545 135.662 21.8545 136.748 22.5875C137.426 23.0219 138.078 23.782 138.431 24.515C139.001 25.7096 139.028 25.9811 138.947 34.3971L138.865 43.0846L138.078 44.0891C136.557 46.0981 136.34 46.1523 129.635 46.1523C123.933 46.1523 123.608 46.1252 122.576 45.5279C121.381 44.8492 120.268 43.166 120.268 41.9986V41.2656H113.753H107.237V42.1344C107.21 44.3063 109.463 119.969 109.572 120.973L109.708 122.087L111.662 122.222C114.784 122.439 116.902 123.878 118.097 126.593C118.721 128.032 119.155 132.892 118.802 134.765C118.477 136.557 117.934 136.828 114.893 136.828C112.45 136.828 112.178 136.774 111.635 136.204C110.305 134.792 111.418 132.756 113.481 132.756H114.567V130.475C114.567 127.978 114.187 127.136 112.748 126.539C112.178 126.322 108.16 126.24 98.061 126.295L84.161 126.376L83.2922 127.272C82.4506 128.113 82.3963 128.276 82.2878 130.448L82.2063 132.756H93.8801C106.857 132.756 106.504 132.702 106.857 134.575C106.993 135.281 106.884 135.579 106.341 136.122L105.635 136.828H92.4684H79.3014L78.7313 136.095C78.1883 135.389 78.134 135.091 78.2426 131.398C78.3241 127.978 78.4055 127.299 78.9213 126.349C79.8444 124.638 80.7131 123.715 82.152 122.982C83.2922 122.412 83.9438 122.304 86.5229 122.222C89.3463 122.141 89.5907 122.087 89.5907 121.598C89.5907 120.023 91.7626 48.1613 91.8983 44.985L92.0612 41.2656H86.36H80.6317V46.8854C80.6317 53.1838 80.4417 54.0525 78.7585 55.4643C77.2653 56.7131 76.5323 56.7945 66.8946 56.6859L57.9085 56.6045L56.8225 55.8715C56.2253 55.4643 55.438 54.677 55.085 54.1068C54.4606 53.1295 54.4335 52.8309 54.352 47.1568L54.2706 41.2656H43.6827H33.1219V52.4508V63.6631L41.5922 72.1334L50.0897 80.6309H52.696C54.9493 80.6309 55.438 80.7123 56.2253 81.2553C57.6641 82.2055 58.0985 83.3457 58.0985 86.2234V88.6939L59.6188 88.884C61.5192 89.1012 62.6051 89.6441 63.2567 90.7572C64.044 92.0332 64.044 97.4629 63.2567 98.7389C62.3065 100.286 61.4106 100.585 57.3383 100.585H53.7004L53.0489 99.8248C52.3159 98.9561 52.2616 98.6031 52.696 97.6258C53.1303 96.6756 54.2434 96.377 57.1754 96.377H59.7274V94.748V93.1191H31.9003H4.0731V94.748V96.377H25.086C39.6919 96.377 46.3432 96.4584 46.9405 96.6756C49.0581 97.4086 48.6508 100.178 46.3704 100.585C45.8817 100.666 35.8911 100.721 24.1629 100.666C3.74733 100.585 2.82428 100.558 1.98268 100.069C0.462372 99.1461 0.000839233 97.8973 0.000839233 94.7752C0.000839233 91.7346 0.272324 90.9201 1.6026 89.807C2.03697 89.427 2.90573 89.0469 3.50299 88.9383L4.61607 88.7754V86.2506C4.61607 83.3457 5.05045 82.2055 6.48932 81.2553C7.27663 80.7123 7.76529 80.6309 9.88287 80.6309H12.3534L20.7151 72.2691L29.0497 63.9346V52.5865V41.2656H22.8327C16.67 41.2656 16.5885 41.2656 15.8555 40.6412C14.4438 39.4195 14.6881 38.9037 19.3034 32.9582C21.611 29.999 23.7014 27.3385 23.9458 27.0941C24.353 26.6869 24.896 26.6055 26.9321 26.6055C29.1854 26.6055 29.6741 26.4969 32.1446 25.5467C33.6649 24.9494 48.7323 18.9496 65.6729 12.2439L96.4864 0H99.6356C101.998 0 102.921 0.108597 103.355 0.407227ZM98.8211 4.61523C98.8211 5.2668 97.2737 23.0762 97.0565 25.1666L96.8936 26.6055H99.4727H102.079V25.8453C102.079 24.868 100.477 6.08125 100.287 4.94102C100.179 4.23515 100.016 4.07227 99.4999 4.07227C99.0112 4.07227 98.8211 4.20801 98.8211 4.61523ZM67.6004 15.8818L40.9135 26.4697L56.1981 26.6055L71.4555 26.7412L71.9713 27.3928C72.6772 28.2615 72.6229 29.2117 71.8085 29.999L71.1569 30.6777H48.678L26.1991 30.7049L23.81 33.7727C22.5069 35.483 21.4481 36.949 21.4481 37.0305C21.4481 37.1119 43.6555 37.1662 70.7768 37.1391L120.133 37.0576L120.214 33.8541L120.296 30.6777H99.0926H77.8897L77.2381 29.999C76.3694 29.1574 76.3694 28.1258 77.2381 27.2842L77.8897 26.6055H85.3827C89.4821 26.6055 92.8485 26.4969 92.8485 26.3883C92.8485 25.9811 94.4774 7.43867 94.6131 6.29845C94.6946 5.64688 94.6403 5.1582 94.5045 5.21251C94.3688 5.2668 82.2606 10.0449 67.6004 15.8818ZM124.666 26.0082C124.422 26.1982 124.341 27.99 124.395 34.0984L124.476 41.9443H129.635H134.793L134.874 34.2342C134.929 28.7773 134.847 26.4154 134.63 26.1711C134.386 25.8725 133.273 25.791 129.662 25.791C127.11 25.791 124.856 25.8996 124.666 26.0082ZM98.0067 41.4014C98.0067 41.4828 99.1741 43.0846 100.586 44.985L103.165 48.4057V44.8492V41.2656H100.586C99.1741 41.2656 98.0067 41.3199 98.0067 41.4014ZM58.37 46.5324C58.37 50.9848 58.4514 51.8807 58.8044 52.2336C59.1573 52.6137 60.3247 52.668 67.4647 52.668C74.6047 52.668 75.7721 52.6137 76.1251 52.2336C76.478 51.8807 76.5594 50.9848 76.5594 46.5324V41.2656H67.4647H58.37V46.5324ZM95.6719 58.0162C95.7805 58.1248 101.807 53.7539 101.807 53.5639C101.807 53.3738 100.423 51.5006 97.7624 48.0527L95.9706 45.7451L95.7805 51.8535C95.6719 55.1928 95.6176 57.9619 95.6719 58.0162ZM100.287 59.8895C98.7397 61.0025 97.4637 61.9799 97.4637 62.0342C97.4637 62.1971 103.735 70.8574 103.844 70.8574C103.979 70.8574 103.708 60.4053 103.545 58.9664C103.464 58.342 103.328 57.8262 103.246 57.8262C103.165 57.8262 101.835 58.7492 100.287 59.8895ZM95.0475 77.4273C95.0475 79.6535 95.0747 81.4453 95.1561 81.4453C95.4004 81.4453 102.188 76.3957 102.269 76.1514C102.296 75.9885 100.776 73.7352 98.8754 71.1289L95.4276 66.3779L95.2647 69.9072C95.1561 71.8348 95.0747 75.2283 95.0475 77.4273ZM33.1219 75.0654V80.6309H38.7417H44.3885L38.8231 75.0654C35.7553 71.9977 33.2305 69.5 33.2034 69.5C33.1491 69.5 33.1219 71.9977 33.1219 75.0654ZM23.4842 75.2012L18.0546 80.6309H23.5657H29.0497V75.2012C29.0497 72.2148 29.0225 69.7715 28.9682 69.7715C28.9411 69.7715 26.4706 72.2148 23.4842 75.2012ZM101.672 81.8525C100.613 82.6127 99.0655 83.7529 98.2239 84.3773L96.6493 85.5447L100.531 90.4043C102.649 93.0648 104.441 95.2639 104.522 95.2639C104.604 95.291 104.577 92.8205 104.495 89.807C104.387 86.7664 104.305 83.3457 104.278 82.1783C104.251 80.5494 104.169 80.115 103.898 80.2508C103.735 80.3865 102.703 81.0924 101.672 81.8525ZM8.68834 86.7393V88.7754H31.3573H54.0262V86.7393V84.7031H31.3573H8.68834V86.7393ZM94.3417 98.766L94.1516 106.721L98.604 103.544C101.02 101.779 103.056 100.313 103.111 100.286C103.165 100.259 101.346 97.8973 99.0655 95.0467C95.8348 91.0287 94.8575 89.9428 94.7217 90.3229C94.6403 90.5943 94.4502 94.3951 94.3417 98.766ZM100.423 107.263L96.6221 110.005L97.5452 111.146C98.0338 111.743 100.016 114.213 101.943 116.603L105.418 120.946L105.228 114.974C105.147 111.689 105.065 107.915 105.065 106.585C105.065 104.549 105.011 104.223 104.658 104.359C104.414 104.44 102.513 105.743 100.423 107.263ZM93.7172 122.059C93.7987 122.114 95.4819 122.141 97.4637 122.114L101.047 122.032L97.5452 117.661L94.0702 113.29L93.8258 117.607C93.7172 119.996 93.6629 121.978 93.7172 122.059Z" fill="#F3F3F3"/>
</svg>
